<?xml version="1.0" encoding="UTF-8"?>
<svg xmlns="http://www.w3.org/2000/svg" xmlns:xlink="http://www.w3.org/1999/xlink" width="98px" height="150px" viewBox="0 0 98 149" version="1.1">
<g id="surface1">
<path style=" stroke:none;fill-rule:nonzero;fill:rgb(100%,84.313725%,77.254902%);fill-opacity:1;" d="M 2.449219 91.390625 C 2.285156 92.109375 2.066406 92.816406 1.800781 93.503906 L 1.34375 94.667969 C 0.515625 96.792969 0.890625 99.257812 2.300781 100.964844 L 3.03125 101.847656 C 4.726562 103.902344 7.492188 104.355469 9.65625 102.941406 L 10.082031 102.660156 L 10.421875 102.660156 L 10.421875 91.390625 Z M 2.449219 91.390625 "/>
<path style=" stroke:none;fill-rule:nonzero;fill:rgb(42.352941%,52.156863%,60.784314%);fill-opacity:1;" d="M 10.199219 95.863281 L 1.253906 122.164062 L 52.003906 122.164062 L 43.058594 95.863281 L 26.1875 84.019531 L 13.464844 92.015625 Z M 10.199219 95.863281 "/>
<path style=" stroke:none;fill-rule:nonzero;fill:rgb(100%,84.313725%,77.254902%);fill-opacity:1;" d="M 12.398438 138.96875 C 12.398438 138.96875 5.960938 139.664062 5.003906 145.835938 L 5.003906 146.871094 C 5.003906 147.566406 5.570312 148.132812 6.269531 148.132812 L 21.628906 148.132812 C 22.28125 148.132812 22.828125 147.640625 22.890625 146.992188 L 23.695312 138.96875 L 24.558594 122.164062 L 11.371094 122.164062 Z M 12.398438 138.96875 "/>
<path style=" stroke:none;fill-rule:nonzero;fill:rgb(100%,84.313725%,77.254902%);fill-opacity:1;" d="M 40.859375 138.96875 L 41.886719 122.164062 L 28.699219 122.164062 L 29.558594 138.96875 L 30.367188 146.992188 C 30.429688 147.640625 30.976562 148.132812 31.628906 148.132812 L 46.988281 148.132812 C 47.6875 148.132812 48.253906 147.566406 48.253906 146.871094 L 48.253906 145.835938 C 47.296875 139.664062 40.859375 138.96875 40.859375 138.96875 Z M 40.859375 138.96875 "/>
<path style=" stroke:none;fill-rule:nonzero;fill:rgb(46.27451%,56.078431%,64.705882%);fill-opacity:1;" d="M 45.589844 94.632812 L 43.410156 95.292969 C 39.726562 98.101562 33.296875 97.171875 29.570312 94.425781 L 26.507812 92.863281 L 22.152344 95.265625 C 20.328125 96.59375 18.636719 97.683594 16.488281 97.683594 C 14.359375 97.683594 12.234375 97.035156 10.421875 95.738281 L 10.421875 92.023438 L 2.449219 92.023438 C 2.710938 91.007812 2.839844 89.957031 2.839844 88.902344 L 2.839844 68.648438 C 2.839844 68.648438 2.839844 67.054688 2.839844 59.695312 C 2.839844 55.449219 4.125 51.976562 5.941406 49.273438 C 5.941406 49.273438 9.257812 45.582031 10.082031 44.878906 C 11.0625 44.042969 12.082031 43.414062 13.050781 42.96875 C 14.410156 42.34375 15.660156 42.066406 16.535156 42.066406 C 22.746094 38.585938 30.308594 38.511719 36.585938 41.871094 L 36.953125 42.066406 C 40.691406 42.066406 45.929688 44.238281 45.929688 56.082031 C 45.929688 63.4375 45.929688 68.050781 45.929688 68.050781 L 45.929688 88.726562 C 45.929688 89.785156 45.589844 94.632812 45.589844 94.632812 Z M 45.589844 94.632812 "/>
<path style=" stroke:none;fill-rule:nonzero;fill:rgb(100%,100%,100%);fill-opacity:1;" d="M 17.25 41.609375 C 17.25 41.609375 13.632812 42.835938 13.5 43.261719 C 13.371094 43.6875 24.640625 58.253906 24.640625 58.253906 C 24.640625 58.253906 25.84375 59.1875 26.699219 59.09375 C 27.558594 59 28.707031 57.542969 28.707031 57.542969 L 40.730469 41.941406 L 33.910156 39.328125 C 29.679688 36.367188 23.964844 36.671875 20.078125 40.070312 Z M 17.25 41.609375 "/>
<path style=" stroke:none;fill-rule:nonzero;fill:rgb(46.27451%,56.078431%,64.705882%);fill-opacity:1;" d="M 41.449219 56.417969 C 41.503906 56.648438 41.566406 56.878906 41.636719 57.117188 C 43.625 63.992188 50.785156 74.339844 56.136719 75.289062 C 61.667969 76.269531 66.882812 71.5 67.253906 67.484375 C 67.628906 63.46875 46.257812 45.464844 43.492188 43.703125 C 40.730469 41.941406 40.394531 46.644531 40.394531 46.644531 Z M 41.449219 56.417969 "/>
<path style=" stroke:none;fill-rule:nonzero;fill:rgb(94.117647%,41.960784%,50.196078%);fill-opacity:1;" d="M 50.90625 51.75 C 46.253906 59.679688 37.328125 55.347656 31.46875 44.378906 L 33.558594 42.296875 C 39.417969 53.265625 44.691406 56.128906 49.34375 48.199219 Z M 50.90625 51.75 "/>
<path style=" stroke:none;fill-rule:nonzero;fill:rgb(94.117647%,41.960784%,50.196078%);fill-opacity:1;" d="M 53.105469 52.714844 C 51.90625 55.75 49.34375 62.621094 41.765625 63.503906 C 32.5 64.582031 21.25 50.292969 21.25 44.234375 L 17.917969 42.296875 C 16.3125 51.199219 28.667969 68.542969 41.921875 67.484375 C 53.164062 66.589844 56.273438 59.101562 57.726562 56.066406 Z M 53.105469 52.714844 "/>
<path style=" stroke:none;fill-rule:nonzero;fill:rgb(54.117647%,63.921569%,72.54902%);fill-opacity:1;" d="M 15.640625 44.867188 C 7.464844 47.425781 5.6875 55.523438 5.6875 59.597656 C 5.6875 65.109375 5.6875 92.015625 5.6875 92.015625 L 2.644531 92.015625 C 2.902344 90.996094 3.035156 89.949219 3.035156 88.890625 L 3.035156 68.636719 C 3.035156 68.636719 3.035156 67.042969 3.035156 59.6875 C 3.035156 55.4375 4.316406 51.96875 6.136719 49.265625 C 6.136719 49.265625 9.453125 45.570312 10.273438 44.867188 C 11.253906 44.03125 12.273438 43.402344 13.246094 42.957031 Z M 15.640625 44.867188 "/>
<path style=" stroke:none;fill-rule:nonzero;fill:rgb(100%,84.313725%,77.254902%);fill-opacity:1;" d="M 40.714844 24.691406 L 40.714844 19.800781 C 40.714844 13.292969 33.898438 7.074219 26.667969 7.074219 C 19.433594 7.074219 12.617188 13.292969 12.617188 19.800781 L 12.617188 24.714844 C 10.117188 24.941406 8.160156 27.035156 8.160156 29.585938 C 8.160156 32.210938 10.238281 34.355469 12.84375 34.472656 C 14.082031 40.167969 20.207031 45.125 26.667969 45.125 C 33.121094 45.125 39.246094 40.171875 40.488281 34.476562 L 40.714844 34.476562 C 43.429688 34.476562 45.628906 32.289062 45.628906 29.585938 C 45.628906 26.882812 43.429688 24.691406 40.714844 24.691406 Z M 40.714844 24.691406 "/>
<path style=" stroke:none;fill-rule:nonzero;fill:rgb(100%,84.313725%,77.254902%);fill-opacity:1;" d="M 59.074219 65.921875 C 57.222656 65.417969 55.914062 61.199219 56.167969 59.101562 C 56.167969 59.101562 58.855469 52.429688 59.449219 52.714844 C 60.042969 52.996094 62.386719 60.179688 62.386719 60.179688 Z M 59.074219 65.921875 "/>
<path style=" stroke:none;fill-rule:nonzero;fill:rgb(96.862745%,70.980392%,17.254902%);fill-opacity:1;" d="M 82.175781 39.402344 C 82.175781 29.714844 74.292969 21.863281 64.570312 21.863281 C 54.847656 21.863281 46.964844 29.714844 46.964844 39.402344 C 46.964844 49.089844 54.847656 56.941406 64.570312 56.941406 C 74.292969 56.941406 82.175781 49.089844 82.175781 39.402344 Z M 82.175781 39.402344 "/>
<path style=" stroke:none;fill-rule:nonzero;fill:rgb(100%,82.745098%,29.019608%);fill-opacity:1;" d="M 77.28125 39.378906 C 77.269531 32.386719 71.566406 26.726562 64.546875 26.742188 C 57.527344 26.753906 51.84375 32.433594 51.859375 39.429688 C 51.871094 46.421875 57.574219 52.082031 64.59375 52.066406 C 71.613281 52.054688 77.296875 46.375 77.28125 39.378906 Z M 77.28125 39.378906 "/>
<path style=" stroke:none;fill-rule:nonzero;fill:rgb(100%,84.313725%,77.254902%);fill-opacity:1;" d="M 72.953125 65.132812 L 72.953125 58.671875 C 72.953125 57.5625 72.519531 56.496094 71.742188 55.703125 L 69.222656 53.128906 C 67.328125 51.191406 64.167969 51.3125 62.425781 53.386719 L 61.078125 54.996094 C 60.027344 56.253906 59.449219 57.839844 59.449219 59.476562 L 59.449219 66.945312 C 59.449219 68.53125 60.738281 69.816406 62.332031 69.816406 L 68.253906 69.816406 C 70.851562 69.816406 72.953125 67.722656 72.953125 65.132812 Z M 72.953125 65.132812 "/>
<path style=" stroke:none;fill-rule:nonzero;fill:rgb(96.862745%,70.980392%,17.254902%);fill-opacity:1;" d="M 65.617188 34.285156 L 66.574219 36.21875 C 66.746094 36.558594 67.074219 36.796875 67.453125 36.855469 L 69.59375 37.164062 C 70.550781 37.300781 70.933594 38.476562 70.242188 39.148438 L 68.695312 40.652344 C 68.417969 40.917969 68.292969 41.304688 68.359375 41.683594 L 68.722656 43.804688 C 68.886719 44.753906 67.882812 45.480469 67.027344 45.03125 L 65.113281 44.027344 C 64.773438 43.851562 64.367188 43.851562 64.027344 44.027344 L 62.113281 45.03125 C 61.257812 45.480469 60.253906 44.753906 60.417969 43.804688 L 60.785156 41.683594 C 60.847656 41.304688 60.722656 40.917969 60.449219 40.652344 L 58.902344 39.148438 C 58.207031 38.476562 58.589844 37.300781 59.546875 37.164062 L 61.6875 36.855469 C 62.066406 36.796875 62.398438 36.558594 62.566406 36.21875 L 63.523438 34.285156 C 63.953125 33.421875 65.191406 33.421875 65.617188 34.285156 Z M 65.617188 34.285156 "/>
<path style=" stroke:none;fill-rule:nonzero;fill:rgb(100%,100%,100%);fill-opacity:1;" d="M 53.105469 12.898438 L 52.664062 11.65625 C 51.964844 9.707031 50.667969 8.152344 49.039062 7.316406 L 48.003906 6.785156 L 49.039062 6.253906 C 50.667969 5.417969 51.964844 3.863281 52.664062 1.914062 L 53.105469 0.671875 L 53.550781 1.914062 C 54.25 3.863281 55.546875 5.417969 57.175781 6.253906 L 58.210938 6.785156 L 57.175781 7.316406 C 55.546875 8.152344 54.25 9.707031 53.550781 11.65625 Z M 53.105469 12.898438 "/>
<path style=" stroke:none;fill-rule:nonzero;fill:rgb(100%,100%,100%);fill-opacity:1;" d="M 92.21875 69.671875 L 91.777344 68.429688 C 91.078125 66.480469 89.78125 64.929688 88.152344 64.09375 L 87.117188 63.5625 L 88.152344 63.027344 C 89.78125 62.191406 91.078125 60.640625 91.777344 58.691406 L 92.21875 57.449219 L 92.664062 58.691406 C 93.363281 60.640625 94.660156 62.195312 96.289062 63.027344 L 97.324219 63.5625 L 96.289062 64.09375 C 94.660156 64.929688 93.363281 66.480469 92.664062 68.429688 Z M 92.21875 69.671875 "/>
<path style=" stroke:none;fill-rule:nonzero;fill:rgb(100%,100%,100%);fill-opacity:1;" d="M 62.832031 93.300781 L 62.386719 92.0625 C 61.691406 90.113281 60.390625 88.558594 58.765625 87.722656 L 57.726562 87.191406 L 58.765625 86.660156 C 60.390625 85.824219 61.691406 84.269531 62.386719 82.320312 L 62.832031 81.078125 L 63.277344 82.320312 C 63.972656 84.269531 65.269531 85.824219 66.898438 86.660156 L 67.933594 87.191406 L 66.898438 87.722656 C 65.269531 88.558594 63.972656 90.113281 63.277344 92.0625 Z M 62.832031 93.300781 "/>
<path style=" stroke:none;fill-rule:nonzero;fill:rgb(100%,100%,100%);fill-opacity:1;" d="M 53.105469 138.855469 L 52.664062 137.613281 C 51.964844 135.664062 50.667969 134.109375 49.039062 133.273438 L 48.003906 132.742188 L 49.039062 132.210938 C 50.667969 131.375 51.964844 129.820312 52.664062 127.871094 L 53.105469 126.632812 L 53.550781 127.871094 C 54.25 129.820312 55.546875 131.375 57.175781 132.210938 L 58.210938 132.742188 L 57.175781 133.273438 C 55.546875 134.109375 54.25 135.664062 53.550781 137.613281 Z M 53.105469 138.855469 "/>
<path style=" stroke:none;fill-rule:nonzero;fill:rgb(13.72549%,9.411765%,8.235294%);fill-opacity:1;" d="M 47.378906 141.621094 C 46.761719 140.839844 46.046875 140.230469 45.332031 139.757812 C 44.257812 139.046875 43.179688 138.640625 42.363281 138.40625 C 42.148438 138.34375 41.949219 138.292969 41.777344 138.253906 L 42.703125 123.058594 L 53.257812 123.058594 L 44.144531 96.265625 L 45.847656 95.734375 C 46.308594 95.59375 46.566406 95.105469 46.421875 94.648438 C 46.277344 94.191406 45.789062 93.933594 45.332031 94.078125 L 39.210938 95.976562 C 38.304688 96.257812 37.371094 96.394531 36.445312 96.394531 C 34.449219 96.394531 32.480469 95.753906 30.847656 94.527344 L 28.886719 93.058594 C 28.386719 92.683594 27.820312 92.4375 27.234375 92.3125 C 27.238281 92.292969 27.242188 92.273438 27.242188 92.253906 L 27.242188 86.148438 C 27.242188 85.667969 26.851562 85.28125 26.371094 85.28125 C 25.890625 85.28125 25.5 85.667969 25.5 86.148438 L 25.5 92.253906 C 25.5 92.273438 25.503906 92.292969 25.503906 92.3125 C 24.917969 92.4375 24.351562 92.683594 23.851562 93.058594 L 21.894531 94.527344 C 20.261719 95.753906 18.289062 96.394531 16.292969 96.394531 C 15.367188 96.394531 14.4375 96.257812 13.527344 95.976562 L 11.109375 95.222656 L 11.109375 62.621094 C 11.109375 62.140625 10.71875 61.75 10.234375 61.75 C 9.753906 61.75 9.363281 62.140625 9.363281 62.621094 L 9.363281 91.386719 L 5.648438 91.386719 C 5.167969 91.386719 4.777344 91.777344 4.777344 92.257812 C 4.777344 92.734375 5.167969 93.125 5.648438 93.125 L 9.363281 93.125 L 9.363281 95.535156 C 9.359375 95.550781 9.351562 95.5625 9.347656 95.574219 L 6.984375 102.519531 C 5.8125 102.488281 4.664062 101.996094 3.828125 101.085938 L 3.097656 100.289062 C 2.335938 99.457031 1.933594 98.390625 1.933594 97.304688 C 1.933594 96.710938 2.054688 96.117188 2.300781 95.550781 L 2.753906 94.503906 C 3.488281 92.808594 3.867188 90.980469 3.867188 89.132812 L 3.867188 68.875 C 3.867188 68.875 3.867188 67.285156 3.867188 59.929688 C 3.871094 55.855469 5.089844 52.566406 6.820312 49.988281 C 7.089844 49.589844 6.980469 49.050781 6.582031 48.785156 C 6.179688 48.515625 5.640625 48.625 5.371094 49.023438 C 3.46875 51.851562 2.125 55.503906 2.125 59.925781 C 2.125 67.285156 2.125 68.875 2.125 68.875 L 2.125 89.132812 C 2.125 90.742188 1.792969 92.335938 1.152344 93.816406 L 0.699219 94.863281 C 0.359375 95.648438 0.191406 96.480469 0.191406 97.304688 C 0.191406 98.8125 0.75 100.304688 1.8125 101.460938 L 2.542969 102.257812 C 3.578125 103.386719 4.964844 104.054688 6.40625 104.21875 L 0 123.058594 L 10.554688 123.058594 L 11.480469 138.253906 C 11.378906 138.277344 11.273438 138.304688 11.15625 138.335938 C 10.148438 138.597656 8.625 139.140625 7.214844 140.277344 C 6.511719 140.84375 5.839844 141.5625 5.292969 142.460938 C 4.75 143.359375 4.335938 144.4375 4.140625 145.703125 L 4.132812 145.765625 L 4.132812 146.871094 C 4.128906 147.457031 4.371094 147.992188 4.757812 148.375 C 5.140625 148.761719 5.679688 149 6.269531 149 L 21.628906 149 C 22.175781 149 22.6875 148.792969 23.066406 148.449219 C 23.445312 148.105469 23.703125 147.621094 23.757812 147.078125 L 24.566406 139.035156 L 25.382812 123.058594 L 27.871094 123.058594 L 28.691406 139.035156 L 29.5 147.082031 L 29.5 147.078125 C 29.554688 147.621094 29.8125 148.105469 30.191406 148.449219 C 30.570312 148.792969 31.078125 149 31.628906 149 L 46.988281 149 C 47.574219 149 48.117188 148.761719 48.5 148.375 C 48.886719 147.992188 49.125 147.457031 49.125 146.871094 L 49.125 145.769531 L 49.117188 145.703125 C 48.855469 144.015625 48.207031 142.664062 47.378906 141.621094 Z M 10.777344 96.941406 L 13.011719 97.632812 C 14.085938 97.964844 15.195312 98.128906 16.296875 98.128906 C 18.664062 98.128906 21.003906 97.371094 22.941406 95.914062 L 24.902344 94.445312 C 25.335938 94.117188 25.851562 93.957031 26.371094 93.957031 C 26.890625 93.957031 27.402344 94.117188 27.839844 94.445312 L 29.796875 95.914062 C 31.738281 97.371094 34.078125 98.128906 36.445312 98.128906 C 37.546875 98.128906 38.652344 97.96875 39.730469 97.632812 L 42.429688 96.796875 L 50.75 121.269531 L 2.503906 121.269531 Z M 22.867188 138.117188 L 13.21875 138.117188 L 12.300781 123.058594 L 23.640625 123.058594 Z M 40.957031 123.058594 L 40.039062 138.117188 L 30.390625 138.117188 L 29.617188 123.058594 Z M 40.957031 123.058594 "/>
<path style=" stroke:none;fill-rule:nonzero;fill:rgb(13.72549%,9.411765%,8.235294%);fill-opacity:1;" d="M 31.109375 22.917969 C 31.679688 22.664062 32.335938 22.664062 32.90625 22.917969 C 33.277344 23.074219 33.761719 23.125 34.054688 22.871094 C 34.347656 22.621094 34.148438 21.9375 33.480469 21.640625 C 32.546875 21.222656 31.46875 21.222656 30.535156 21.640625 C 29.867188 21.9375 29.667969 22.625 29.960938 22.871094 C 30.253906 23.125 30.738281 23.074219 31.109375 22.917969 Z M 31.109375 22.917969 "/>
<path style=" stroke:none;fill-rule:nonzero;fill:rgb(13.72549%,9.411765%,8.235294%);fill-opacity:1;" d="M 20.351562 22.917969 C 20.921875 22.664062 21.578125 22.664062 22.148438 22.917969 C 22.519531 23.074219 23.003906 23.125 23.292969 22.871094 C 23.589844 22.621094 23.390625 21.9375 22.722656 21.640625 C 21.789062 21.222656 20.710938 21.222656 19.773438 21.640625 C 19.109375 21.9375 18.910156 22.625 19.203125 22.871094 C 19.492188 23.125 19.976562 23.074219 20.351562 22.917969 Z M 20.351562 22.917969 "/>
<path style=" stroke:none;fill-rule:nonzero;fill:rgb(13.72549%,9.411765%,8.235294%);fill-opacity:1;" d="M 22.796875 28.28125 C 22.796875 27.429688 22.105469 26.738281 21.25 26.738281 C 20.394531 26.738281 19.699219 27.429688 19.699219 28.28125 C 19.699219 29.136719 20.394531 29.824219 21.25 29.824219 C 22.105469 29.824219 22.796875 29.136719 22.796875 28.28125 Z M 22.796875 28.28125 "/>
<path style=" stroke:none;fill-rule:nonzero;fill:rgb(13.72549%,9.411765%,8.235294%);fill-opacity:1;" d="M 32.007812 26.738281 C 31.15625 26.738281 30.460938 27.433594 30.460938 28.28125 C 30.460938 29.132812 31.15625 29.824219 32.007812 29.824219 C 32.859375 29.824219 33.558594 29.132812 33.558594 28.28125 C 33.558594 27.433594 32.859375 26.738281 32.007812 26.738281 Z M 32.007812 26.738281 "/>
<path style=" stroke:none;fill-rule:nonzero;fill:rgb(13.72549%,9.411765%,8.235294%);fill-opacity:1;" d="M 25.824219 33.800781 L 27.566406 33.800781 C 27.785156 33.800781 27.964844 33.621094 27.964844 33.402344 C 27.964844 33.183594 27.785156 33.007812 27.566406 33.007812 L 26.402344 33.007812 C 26.128906 33.007812 25.878906 32.855469 25.753906 32.613281 L 25.648438 32.410156 C 25.558594 32.234375 25.292969 32.296875 25.292969 32.496094 L 25.292969 33.269531 C 25.292969 33.5625 25.53125 33.800781 25.824219 33.800781 Z M 25.824219 33.800781 "/>
<path style=" stroke:none;fill-rule:nonzero;fill:rgb(13.72549%,9.411765%,8.235294%);fill-opacity:1;" d="M 23.257812 37.863281 C 23.550781 38.046875 23.882812 38.039062 24.046875 37.886719 C 25.679688 38.65625 27.578125 38.65625 29.210938 37.886719 C 29.375 38.039062 29.703125 38.046875 30 37.863281 C 30.363281 37.640625 30.496094 37.246094 30.320312 37.039062 C 30.140625 36.816406 29.964844 36.597656 29.789062 36.375 C 29.613281 36.167969 29.28125 36.15625 29.03125 36.308594 C 28.824219 36.4375 28.707031 36.660156 28.730469 36.875 C 27.402344 37.5 25.855469 37.5 24.527344 36.875 C 24.550781 36.660156 24.433594 36.4375 24.226562 36.308594 C 23.976562 36.152344 23.644531 36.167969 23.46875 36.375 C 23.292969 36.597656 23.113281 36.816406 22.9375 37.039062 C 22.761719 37.246094 22.894531 37.640625 23.257812 37.863281 Z M 23.257812 37.863281 "/>
<path style=" stroke:none;fill-rule:nonzero;fill:rgb(13.72549%,9.411765%,8.235294%);fill-opacity:1;" d="M 46.800781 93.019531 L 46.800781 69.816406 C 46.800781 69.335938 46.410156 68.949219 45.929688 68.949219 C 45.445312 68.949219 45.054688 69.335938 45.054688 69.816406 L 45.054688 93.019531 C 45.054688 93.5 45.445312 93.886719 45.929688 93.886719 C 46.410156 93.886719 46.800781 93.5 46.800781 93.019531 Z M 46.800781 93.019531 "/>
<path style=" stroke:none;fill-rule:nonzero;fill:rgb(13.72549%,9.411765%,8.235294%);fill-opacity:1;" d="M 26.628906 72.84375 C 27.257812 72.84375 27.769531 72.335938 27.769531 71.707031 C 27.769531 71.078125 27.257812 70.566406 26.628906 70.566406 C 25.996094 70.566406 25.484375 71.078125 25.484375 71.707031 C 25.484375 72.335938 25.996094 72.84375 26.628906 72.84375 Z M 26.628906 72.84375 "/>
<path style=" stroke:none;fill-rule:nonzero;fill:rgb(13.72549%,9.411765%,8.235294%);fill-opacity:1;" d="M 26.628906 81.078125 C 27.257812 81.078125 27.769531 80.570312 27.769531 79.941406 C 27.769531 79.3125 27.257812 78.800781 26.628906 78.800781 C 25.996094 78.800781 25.484375 79.3125 25.484375 79.941406 C 25.484375 80.570312 25.996094 81.078125 26.628906 81.078125 Z M 26.628906 81.078125 "/>
<path style=" stroke:none;fill-rule:nonzero;fill:rgb(13.72549%,9.411765%,8.235294%);fill-opacity:1;" d="M 64.570312 20.996094 C 59.472656 20.996094 54.847656 23.054688 51.503906 26.386719 C 48.785156 29.09375 46.910156 32.644531 46.304688 36.613281 C 45.6875 35.6875 45.585938 34.316406 45.585938 31.925781 L 45.585938 21.328125 C 45.585938 14.6875 40.335938 4.125 26.628906 4.125 C 12.921875 4.125 7.671875 14.472656 7.671875 21.328125 L 7.671875 31.925781 C 7.671875 36.480469 7.300781 37.335938 3.722656 38.4375 C 3.101562 38.625 3.429688 39.773438 4.238281 40.601562 C 8.253906 44.121094 13.472656 42.945312 15.140625 40.851562 C 15.339844 41.078125 15.546875 41.296875 15.765625 41.511719 C 15.578125 41.542969 15.386719 41.582031 15.191406 41.628906 C 14.386719 41.820312 13.503906 42.152344 12.570312 42.617188 C 11.644531 43.082031 10.671875 43.679688 9.707031 44.417969 C 9.324219 44.710938 9.25 45.257812 9.546875 45.636719 C 9.839844 46.015625 10.386719 46.089844 10.765625 45.796875 C 11.488281 45.246094 12.207031 44.78125 12.902344 44.40625 L 17.136719 50.105469 C 17.421875 50.492188 17.96875 50.574219 18.355469 50.289062 C 18.382812 50.265625 18.40625 50.242188 18.429688 50.21875 C 18.621094 50.710938 18.832031 51.203125 19.058594 51.695312 C 20.929688 55.738281 23.996094 59.835938 27.769531 62.953125 C 29.65625 64.507812 31.722656 65.820312 33.910156 66.746094 C 36.09375 67.671875 38.402344 68.210938 40.757812 68.210938 C 41.164062 68.210938 41.570312 68.195312 41.976562 68.160156 C 44.003906 68 45.785156 67.625 47.351562 67.101562 C 47.234375 67.335938 47.222656 67.621094 47.347656 67.871094 C 48.375 69.929688 50 72.042969 51.941406 73.707031 C 52.910156 74.535156 53.960938 75.25 55.066406 75.773438 C 56.167969 76.300781 57.328125 76.636719 58.511719 76.683594 C 58.609375 76.6875 58.707031 76.691406 58.800781 76.691406 C 59.945312 76.691406 61 76.417969 61.9375 75.976562 C 63.339844 75.3125 64.476562 74.285156 65.332031 73.210938 C 65.761719 72.671875 66.121094 72.121094 66.40625 71.585938 C 66.570312 71.277344 66.707031 70.976562 66.824219 70.6875 L 68.253906 70.6875 C 69.789062 70.6875 71.1875 70.0625 72.191406 69.058594 C 73.199219 68.058594 73.824219 66.664062 73.824219 65.136719 L 73.824219 58.671875 C 73.824219 57.644531 73.515625 56.652344 72.949219 55.8125 C 75.929688 54.296875 78.441406 52.007812 80.214844 49.203125 C 82.007812 46.363281 83.046875 43 83.046875 39.402344 C 83.046875 34.320312 80.980469 29.714844 77.636719 26.386719 C 74.296875 23.054688 69.671875 20.996094 64.570312 20.996094 Z M 46.316406 42.253906 C 46.660156 44.445312 47.390625 46.515625 48.4375 48.378906 C 47.675781 49.59375 46.90625 50.484375 46.15625 51.074219 C 45.730469 51.410156 45.316406 51.648438 44.90625 51.804688 C 44.496094 51.960938 44.09375 52.035156 43.679688 52.035156 C 43.074219 52.035156 42.441406 51.875 41.765625 51.527344 C 40.75 51.003906 39.644531 50.054688 38.492188 48.6875 C 38.152344 48.28125 37.808594 47.835938 37.460938 47.359375 C 37.617188 47.304688 37.761719 47.203125 37.867188 47.058594 L 39.976562 44.21875 C 40.265625 43.832031 40.183594 43.289062 39.796875 43.003906 C 39.410156 42.71875 38.863281 42.800781 38.578125 43.1875 L 36.503906 45.972656 C 36.015625 45.230469 35.523438 44.417969 35.023438 43.542969 C 36.171875 42.773438 37.214844 41.863281 38.117188 40.851562 C 38.226562 40.988281 38.347656 41.121094 38.488281 41.25 C 38.457031 41.316406 38.433594 41.386719 38.417969 41.460938 C 38.335938 41.933594 38.65625 42.382812 39.128906 42.464844 C 39.429688 42.515625 39.78125 42.628906 40.164062 42.792969 C 40.742188 43.039062 41.382812 43.398438 42.050781 43.8125 C 42.714844 44.222656 43.40625 44.683594 44.09375 45.132812 C 44.496094 45.394531 45.039062 45.277344 45.300781 44.875 C 45.5625 44.476562 45.449219 43.9375 45.042969 43.675781 C 44.617188 43.402344 44.183594 43.113281 43.746094 42.828125 C 44.582031 42.773438 45.453125 42.589844 46.316406 42.253906 Z M 26.371094 49.503906 L 24.070312 49.503906 L 24.070312 50.195312 C 23.5 49.21875 23.023438 48.265625 22.671875 47.382812 C 22.390625 46.679688 22.1875 46.023438 22.066406 45.429688 C 23.527344 45.917969 25.0625 46.191406 26.628906 46.191406 C 28.21875 46.191406 29.777344 45.910156 31.257812 45.40625 C 32.09375 46.898438 32.984375 48.261719 33.917969 49.484375 C 33.875 49.523438 33.835938 49.570312 33.800781 49.617188 L 29.128906 55.902344 C 28.988281 56.09375 28.9375 56.320312 28.96875 56.535156 C 28.867188 56.433594 28.769531 56.332031 28.671875 56.230469 L 28.671875 49.503906 Z M 30.53125 56.9375 L 35.039062 50.867188 C 35.820312 51.765625 36.621094 52.574219 37.4375 53.273438 C 38.625 54.292969 39.839844 55.09375 41.066406 55.640625 C 42.289062 56.191406 43.519531 56.488281 44.726562 56.488281 C 46.039062 56.488281 47.3125 56.132812 48.460938 55.394531 C 49.558594 54.691406 50.535156 53.652344 51.371094 52.28125 C 51.648438 52.5625 51.933594 52.832031 52.226562 53.09375 C 51.96875 53.734375 51.664062 54.476562 51.28125 55.261719 C 50.511719 56.84375 49.441406 58.589844 47.90625 60.003906 C 47.136719 60.710938 46.253906 61.339844 45.230469 61.828125 C 44.203125 62.316406 43.035156 62.671875 41.6875 62.828125 C 41.378906 62.867188 41.070312 62.882812 40.753906 62.882812 C 39.707031 62.882812 38.625 62.6875 37.53125 62.328125 C 35.613281 61.695312 33.660156 60.550781 31.824219 59.105469 C 31.101562 58.539062 30.398438 57.921875 29.71875 57.277344 C 30.023438 57.316406 30.335938 57.199219 30.53125 56.9375 Z M 50.316406 51.40625 C 49.542969 52.730469 48.660156 53.660156 47.726562 54.257812 C 46.789062 54.855469 45.792969 55.132812 44.726562 55.132812 C 43.746094 55.132812 42.703125 54.890625 41.621094 54.40625 C 40.003906 53.683594 38.308594 52.410156 36.675781 50.660156 C 35.222656 49.101562 33.816406 47.164062 32.535156 44.910156 C 32.988281 44.707031 33.429688 44.488281 33.863281 44.25 C 35.492188 47.097656 37.085938 49.328125 38.675781 50.882812 C 39.492188 51.675781 40.308594 52.296875 41.140625 52.726562 C 41.972656 53.15625 42.828125 53.390625 43.679688 53.390625 C 44.257812 53.390625 44.835938 53.28125 45.390625 53.070312 C 46.226562 52.75 47.015625 52.203125 47.765625 51.449219 C 48.265625 50.945312 48.75 50.347656 49.222656 49.652344 C 49.371094 49.875 49.523438 50.089844 49.679688 50.304688 C 49.921875 50.628906 50.175781 50.949219 50.441406 51.257812 C 50.394531 51.300781 50.351562 51.351562 50.316406 51.40625 Z M 15.683594 38.894531 L 15.683594 18.804688 L 17.234375 18.804688 C 20.011719 18.804688 22.554688 17.261719 23.828125 14.800781 L 24.417969 13.664062 C 25.929688 16.804688 29.117188 18.804688 32.613281 18.804688 L 37.574219 18.804688 L 37.574219 38.898438 C 36.570312 40.230469 35.277344 41.421875 33.804688 42.355469 C 31.667969 43.714844 29.160156 44.535156 26.628906 44.535156 C 24.941406 44.535156 23.265625 44.171875 21.699219 43.527344 C 19.355469 42.558594 17.261719 40.949219 15.777344 39.019531 C 15.746094 38.980469 15.714844 38.9375 15.683594 38.894531 Z M 14.515625 43.65625 C 14.902344 43.507812 15.269531 43.394531 15.601562 43.316406 C 16.03125 43.210938 16.40625 43.164062 16.691406 43.164062 C 16.855469 43.164062 17.003906 43.117188 17.136719 43.039062 C 17.109375 43.339844 17.097656 43.648438 17.097656 43.960938 C 17.097656 45.203125 17.296875 46.527344 17.664062 47.898438 Z M 41.867188 66.8125 C 41.5 66.839844 41.128906 66.855469 40.757812 66.855469 C 37.894531 66.855469 35.066406 65.984375 32.425781 64.515625 C 28.46875 62.316406 24.953125 58.777344 22.445312 54.976562 C 21.191406 53.074219 20.191406 51.109375 19.507812 49.222656 C 18.820312 47.339844 18.453125 45.53125 18.457031 43.960938 C 18.457031 43.867188 18.457031 43.777344 18.460938 43.691406 C 18.492188 43.710938 18.523438 43.730469 18.558594 43.753906 C 19.207031 44.167969 19.894531 44.535156 20.601562 44.855469 C 20.667969 45.511719 20.828125 46.210938 21.070312 46.949219 C 21.628906 48.65625 22.617188 50.5625 23.90625 52.484375 C 25.847656 55.367188 28.472656 58.277344 31.398438 60.488281 C 32.859375 61.597656 34.398438 62.527344 35.972656 63.1875 C 37.546875 63.847656 39.15625 64.238281 40.753906 64.238281 C 41.121094 64.238281 41.484375 64.214844 41.847656 64.175781 C 43.835938 63.941406 45.519531 63.3125 46.921875 62.445312 C 49.03125 61.148438 50.507812 59.335938 51.570312 57.578125 C 52.101562 56.695312 52.53125 55.828125 52.882812 55.035156 C 53.046875 54.671875 53.191406 54.328125 53.324219 54.003906 C 54.433594 54.851562 55.640625 55.582031 56.929688 56.164062 C 56.59375 56.871094 56.1875 57.730469 55.640625 58.664062 C 54.664062 60.324219 53.257812 62.191406 51.085938 63.726562 C 48.914062 65.261719 45.976562 66.484375 41.867188 66.8125 Z M 58.578125 59.476562 L 58.578125 64.523438 C 58.480469 64.410156 58.386719 64.28125 58.296875 64.136719 C 57.953125 63.597656 57.652344 62.867188 57.449219 62.117188 C 57.246094 61.367188 57.136719 60.589844 57.136719 59.976562 C 57.136719 59.789062 57.148438 59.617188 57.164062 59.464844 C 57.1875 59.269531 57.144531 59.085938 57.050781 58.929688 C 57.136719 58.777344 57.214844 58.632812 57.292969 58.488281 C 57.65625 57.808594 57.945312 57.191406 58.1875 56.679688 C 58.390625 56.753906 58.59375 56.828125 58.800781 56.894531 C 58.867188 56.917969 58.9375 56.925781 59.003906 56.933594 C 58.722656 57.746094 58.578125 58.605469 58.578125 59.476562 Z M 64.609375 71.21875 C 64.054688 72.128906 63.234375 73.082031 62.238281 73.789062 C 61.742188 74.140625 61.203125 74.433594 60.628906 74.636719 C 60.058594 74.839844 59.449219 74.953125 58.800781 74.953125 C 58.730469 74.953125 58.65625 74.953125 58.582031 74.949219 C 57.691406 74.914062 56.753906 74.652344 55.816406 74.207031 C 54.414062 73.542969 53.019531 72.457031 51.816406 71.1875 C 50.609375 69.921875 49.59375 68.46875 48.910156 67.101562 C 48.8125 66.90625 48.652344 66.769531 48.46875 66.691406 C 48.722656 66.585938 48.972656 66.476562 49.21875 66.363281 C 52.113281 65.027344 54.105469 63.144531 55.503906 61.304688 C 55.535156 61.511719 55.570312 61.722656 55.617188 61.933594 C 55.832031 62.949219 56.1875 63.976562 56.691406 64.847656 C 56.945312 65.28125 57.238281 65.679688 57.585938 66.015625 C 57.871094 66.285156 58.199219 66.515625 58.578125 66.667969 L 58.578125 66.945312 C 58.578125 67.976562 59 68.917969 59.675781 69.589844 C 60.351562 70.265625 61.296875 70.6875 62.332031 70.683594 L 64.914062 70.683594 C 64.820312 70.859375 64.722656 71.039062 64.609375 71.21875 Z M 70.960938 67.832031 C 70.265625 68.523438 69.3125 68.949219 68.253906 68.949219 L 62.328125 68.949219 C 61.773438 68.949219 61.273438 68.726562 60.910156 68.363281 C 60.542969 67.996094 60.320312 67.5 60.320312 66.945312 L 60.320312 59.476562 C 60.320312 58.042969 60.824219 56.652344 61.75 55.550781 L 63.097656 53.945312 C 63.46875 53.5 63.914062 53.171875 64.398438 52.949219 C 64.886719 52.730469 65.414062 52.617188 65.945312 52.617188 C 66.425781 52.617188 66.90625 52.710938 67.359375 52.894531 C 67.8125 53.082031 68.234375 53.359375 68.601562 53.734375 L 71.117188 56.308594 C 71.738281 56.941406 72.082031 57.789062 72.082031 58.671875 L 72.082031 65.136719 C 72.082031 66.191406 71.65625 67.140625 70.960938 67.832031 Z M 67.941406 50.828125 C 67.769531 50.878906 67.636719 50.984375 67.539062 51.117188 C 67.019531 50.960938 66.480469 50.878906 65.945312 50.878906 C 65.171875 50.878906 64.398438 51.042969 63.683594 51.367188 C 63.585938 51.304688 63.472656 51.261719 63.347656 51.246094 C 60.335938 50.941406 57.65625 49.523438 55.722656 47.410156 C 53.792969 45.292969 52.621094 42.488281 52.617188 39.402344 C 52.621094 36.113281 53.957031 33.140625 56.121094 30.984375 C 58.285156 28.828125 61.269531 27.496094 64.570312 27.496094 C 67.875 27.496094 70.855469 28.828125 73.023438 30.984375 C 75.1875 33.140625 76.523438 36.113281 76.523438 39.402344 C 76.523438 42.109375 75.617188 44.601562 74.09375 46.601562 C 72.566406 48.601562 70.417969 50.105469 67.941406 50.828125 Z M 78.742188 48.277344 C 77.117188 50.84375 74.804688 52.945312 72.066406 54.3125 C 71.960938 54.363281 71.871094 54.433594 71.800781 54.519531 L 69.847656 52.523438 C 69.65625 52.328125 69.457031 52.148438 69.246094 51.988281 C 71.667969 51.09375 73.765625 49.53125 75.300781 47.515625 C 77.019531 45.265625 78.042969 42.449219 78.042969 39.402344 C 78.042969 35.699219 76.53125 32.339844 74.097656 29.914062 C 71.660156 27.484375 68.289062 25.980469 64.570312 25.984375 C 60.851562 25.980469 57.480469 27.484375 55.046875 29.914062 C 52.609375 32.339844 51.097656 35.699219 51.101562 39.402344 C 51.097656 42.875 52.425781 46.042969 54.597656 48.425781 C 56.511719 50.523438 59.082031 52.011719 61.988281 52.574219 C 61.910156 52.65625 61.832031 52.742188 61.757812 52.832031 L 60.410156 54.4375 C 60.140625 54.761719 59.898438 55.101562 59.6875 55.457031 C 59.59375 55.363281 59.480469 55.289062 59.34375 55.246094 C 56.003906 54.152344 53.125 52.039062 51.082031 49.273438 C 49.417969 47.015625 48.308594 44.328125 47.957031 41.40625 C 48.316406 41.171875 48.671875 40.90625 49.019531 40.601562 C 49.828125 39.773438 50.15625 38.628906 49.535156 38.4375 C 48.894531 38.238281 48.359375 38.050781 47.910156 37.847656 C 48.28125 33.863281 50.050781 30.289062 52.738281 27.613281 C 55.769531 24.597656 59.945312 22.730469 64.570312 22.730469 C 69.195312 22.730469 73.371094 24.597656 76.402344 27.613281 C 79.433594 30.632812 81.304688 34.796875 81.304688 39.402344 C 81.304688 42.667969 80.367188 45.707031 78.742188 48.277344 Z M 78.742188 48.277344 "/>
<path style=" stroke:none;fill-rule:nonzero;fill:rgb(13.72549%,9.411765%,8.235294%);fill-opacity:1;" d="M 70.390625 36.648438 C 70.1875 36.53125 69.953125 36.449219 69.703125 36.414062 L 67.5625 36.105469 C 67.429688 36.085938 67.316406 36.003906 67.257812 35.882812 L 66.300781 33.953125 C 66.128906 33.605469 65.863281 33.328125 65.558594 33.148438 C 65.253906 32.96875 64.910156 32.882812 64.570312 32.882812 C 64.230469 32.882812 63.890625 32.96875 63.582031 33.148438 C 63.277344 33.328125 63.011719 33.605469 62.84375 33.953125 L 61.886719 35.882812 C 61.828125 36.003906 61.710938 36.085938 61.578125 36.105469 L 59.4375 36.414062 C 59.191406 36.449219 58.957031 36.53125 58.75 36.652344 C 58.441406 36.828125 58.199219 37.082031 58.039062 37.371094 C 57.875 37.660156 57.789062 37.988281 57.789062 38.320312 C 57.789062 38.5625 57.832031 38.808594 57.929688 39.042969 C 58.027344 39.28125 58.175781 39.503906 58.371094 39.691406 L 59.917969 41.191406 C 60 41.269531 60.042969 41.375 60.042969 41.484375 C 60.042969 41.507812 60.039062 41.53125 60.035156 41.554688 L 59.671875 43.675781 C 59.652344 43.789062 59.640625 43.898438 59.640625 44.007812 C 59.640625 44.550781 59.875 45.039062 60.226562 45.378906 C 60.578125 45.714844 61.054688 45.921875 61.570312 45.925781 C 61.871094 45.925781 62.183594 45.851562 62.46875 45.699219 L 64.382812 44.699219 C 64.441406 44.667969 64.503906 44.652344 64.570312 44.652344 C 64.636719 44.652344 64.703125 44.667969 64.761719 44.699219 L 66.675781 45.699219 C 66.960938 45.851562 67.273438 45.925781 67.570312 45.925781 C 68.089844 45.921875 68.566406 45.714844 68.917969 45.378906 C 69.269531 45.039062 69.5 44.550781 69.5 44.007812 C 69.5 43.898438 69.492188 43.789062 69.472656 43.675781 L 69.105469 41.554688 C 69.101562 41.53125 69.101562 41.507812 69.101562 41.484375 C 69.101562 41.375 69.144531 41.269531 69.222656 41.191406 L 70.769531 39.691406 C 70.964844 39.5 71.113281 39.28125 71.210938 39.042969 C 71.308594 38.808594 71.355469 38.5625 71.355469 38.320312 C 71.355469 37.875 71.199219 37.441406 70.917969 37.09375 C 70.773438 36.921875 70.597656 36.769531 70.390625 36.648438 Z M 69.808594 38.46875 C 69.789062 38.515625 69.757812 38.558594 69.710938 38.605469 L 68.164062 40.109375 C 67.789062 40.472656 67.582031 40.972656 67.582031 41.484375 C 67.582031 41.59375 67.589844 41.703125 67.609375 41.808594 L 67.976562 43.929688 C 67.980469 43.960938 67.980469 43.984375 67.980469 44.007812 C 67.980469 44.066406 67.96875 44.117188 67.949219 44.164062 C 67.917969 44.230469 67.863281 44.296875 67.796875 44.339844 C 67.726562 44.386719 67.648438 44.410156 67.570312 44.410156 C 67.511719 44.410156 67.453125 44.398438 67.378906 44.359375 L 65.46875 43.359375 C 65.1875 43.210938 64.878906 43.140625 64.570312 43.140625 C 64.261719 43.140625 63.953125 43.210938 63.675781 43.359375 L 61.761719 44.359375 C 61.691406 44.398438 61.628906 44.410156 61.570312 44.410156 C 61.46875 44.410156 61.363281 44.367188 61.28125 44.289062 C 61.242188 44.253906 61.214844 44.207031 61.191406 44.160156 C 61.171875 44.113281 61.160156 44.066406 61.160156 44.007812 C 61.160156 43.984375 61.164062 43.960938 61.167969 43.929688 L 61.535156 41.808594 C 61.550781 41.699219 61.5625 41.59375 61.5625 41.484375 C 61.5625 40.972656 61.355469 40.472656 60.980469 40.109375 L 59.429688 38.605469 C 59.382812 38.558594 59.355469 38.515625 59.335938 38.46875 C 59.316406 38.421875 59.304688 38.371094 59.304688 38.320312 C 59.304688 38.226562 59.34375 38.125 59.402344 38.050781 C 59.433594 38.015625 59.46875 37.984375 59.507812 37.960938 C 59.550781 37.9375 59.597656 37.921875 59.660156 37.910156 L 61.796875 37.601562 C 62.425781 37.511719 62.96875 37.117188 63.25 36.550781 L 64.203125 34.621094 C 64.25 34.535156 64.296875 34.488281 64.359375 34.449219 C 64.421875 34.414062 64.496094 34.394531 64.570312 34.394531 C 64.648438 34.394531 64.722656 34.414062 64.785156 34.449219 C 64.84375 34.488281 64.894531 34.535156 64.9375 34.621094 L 65.621094 34.285156 L 64.9375 34.621094 L 65.894531 36.550781 C 66.175781 37.117188 66.71875 37.511719 67.347656 37.601562 L 69.484375 37.910156 C 69.546875 37.921875 69.59375 37.9375 69.636719 37.960938 C 69.695312 37.996094 69.746094 38.046875 69.78125 38.109375 C 69.816406 38.175781 69.835938 38.25 69.835938 38.320312 C 69.835938 38.375 69.828125 38.421875 69.808594 38.46875 Z M 69.808594 38.46875 "/>
<path style=" stroke:none;fill-rule:nonzero;fill:rgb(13.72549%,9.411765%,8.235294%);fill-opacity:1;" d="M 47.695312 7.382812 L 48.730469 7.914062 C 50.183594 8.660156 51.378906 10.074219 52.027344 11.882812 L 52.46875 13.121094 C 52.566406 13.390625 52.820312 13.570312 53.105469 13.570312 C 53.394531 13.570312 53.648438 13.390625 53.742188 13.121094 L 54.1875 11.882812 C 54.835938 10.074219 56.03125 8.660156 57.484375 7.914062 L 58.519531 7.382812 C 58.746094 7.269531 58.886719 7.035156 58.886719 6.785156 C 58.886719 6.535156 58.746094 6.300781 58.519531 6.1875 L 57.484375 5.65625 C 56.03125 4.910156 54.835938 3.496094 54.1875 1.6875 L 53.742188 0.449219 C 53.648438 0.179688 53.394531 0 53.105469 0 C 52.820312 0 52.566406 0.179688 52.46875 0.449219 L 52.027344 1.6875 C 51.378906 3.496094 50.183594 4.910156 48.730469 5.65625 L 47.695312 6.1875 C 47.46875 6.300781 47.328125 6.535156 47.328125 6.785156 C 47.328125 7.035156 47.46875 7.269531 47.695312 7.382812 Z M 53.105469 2.632812 C 53.871094 4.449219 55.140625 5.921875 56.742188 6.785156 C 55.140625 7.648438 53.871094 9.121094 53.105469 10.9375 C 52.34375 9.121094 51.074219 7.648438 49.472656 6.785156 C 51.070312 5.921875 52.34375 4.449219 53.105469 2.632812 Z M 53.105469 2.632812 "/>
<path style=" stroke:none;fill-rule:nonzero;fill:rgb(13.72549%,9.411765%,8.235294%);fill-opacity:1;" d="M 97.632812 62.960938 L 96.597656 62.429688 C 95.144531 61.683594 93.949219 60.273438 93.300781 58.464844 L 92.855469 57.222656 C 92.761719 56.953125 92.507812 56.773438 92.21875 56.773438 C 91.933594 56.773438 91.679688 56.953125 91.582031 57.222656 L 91.140625 58.464844 C 90.492188 60.273438 89.296875 61.683594 87.84375 62.429688 L 86.808594 62.960938 C 86.582031 63.078125 86.441406 63.308594 86.441406 63.558594 C 86.441406 63.8125 86.582031 64.042969 86.808594 64.160156 L 87.84375 64.691406 C 89.296875 65.433594 90.492188 66.847656 91.140625 68.65625 L 91.582031 69.898438 C 91.679688 70.164062 91.933594 70.34375 92.21875 70.34375 C 92.507812 70.34375 92.761719 70.164062 92.855469 69.898438 L 93.300781 68.65625 C 93.949219 66.847656 95.144531 65.433594 96.597656 64.691406 L 97.632812 64.160156 C 97.859375 64.042969 98 63.8125 98 63.558594 C 98 63.308594 97.859375 63.078125 97.632812 62.960938 Z M 92.21875 67.714844 C 91.457031 65.898438 90.1875 64.421875 88.585938 63.558594 C 90.1875 62.699219 91.457031 61.222656 92.21875 59.40625 C 92.984375 61.222656 94.253906 62.699219 95.855469 63.558594 C 94.253906 64.421875 92.984375 65.898438 92.21875 67.714844 Z M 92.21875 67.714844 "/>
<path style=" stroke:none;fill-rule:nonzero;fill:rgb(13.72549%,9.411765%,8.235294%);fill-opacity:1;" d="M 68.246094 86.589844 L 67.207031 86.058594 C 65.753906 85.316406 64.558594 83.902344 63.914062 82.09375 L 63.46875 80.851562 C 63.371094 80.585938 63.117188 80.40625 62.832031 80.40625 C 62.546875 80.40625 62.289062 80.585938 62.195312 80.851562 L 61.75 82.09375 C 61.101562 83.902344 59.90625 85.316406 58.453125 86.058594 L 57.417969 86.589844 C 57.195312 86.707031 57.050781 86.9375 57.050781 87.191406 C 57.050781 87.441406 57.195312 87.675781 57.417969 87.789062 L 58.453125 88.320312 C 59.90625 89.066406 61.101562 90.476562 61.75 92.285156 L 62.195312 93.527344 C 62.289062 93.796875 62.546875 93.976562 62.832031 93.976562 C 63.117188 93.976562 63.371094 93.796875 63.46875 93.527344 L 63.914062 92.285156 C 64.558594 90.476562 65.753906 89.066406 67.207031 88.320312 L 68.246094 87.789062 C 68.46875 87.675781 68.609375 87.441406 68.609375 87.191406 C 68.613281 86.9375 68.46875 86.707031 68.246094 86.589844 Z M 62.832031 91.34375 C 62.070312 89.527344 60.796875 88.054688 59.195312 87.191406 C 60.796875 86.328125 62.066406 84.855469 62.832031 83.035156 C 63.59375 84.855469 64.867188 86.328125 66.46875 87.191406 C 64.867188 88.054688 63.59375 89.527344 62.832031 91.34375 Z M 62.832031 91.34375 "/>
<path style=" stroke:none;fill-rule:nonzero;fill:rgb(13.72549%,9.411765%,8.235294%);fill-opacity:1;" d="M 58.519531 132.144531 L 57.484375 131.613281 C 56.03125 130.867188 54.835938 129.453125 54.1875 127.644531 L 53.742188 126.40625 C 53.648438 126.136719 53.390625 125.957031 53.105469 125.957031 C 52.820312 125.957031 52.566406 126.136719 52.46875 126.40625 L 52.027344 127.644531 C 51.378906 129.453125 50.183594 130.867188 48.730469 131.613281 L 47.695312 132.144531 C 47.46875 132.257812 47.328125 132.492188 47.328125 132.742188 C 47.328125 132.992188 47.46875 133.226562 47.695312 133.339844 L 48.730469 133.871094 C 50.183594 134.617188 51.378906 136.03125 52.027344 137.839844 L 52.46875 139.078125 C 52.566406 139.347656 52.820312 139.527344 53.105469 139.527344 C 53.394531 139.527344 53.648438 139.347656 53.742188 139.078125 L 54.1875 137.839844 C 54.835938 136.03125 56.03125 134.617188 57.484375 133.871094 L 58.519531 133.339844 C 58.742188 133.226562 58.886719 132.992188 58.886719 132.742188 C 58.886719 132.492188 58.746094 132.257812 58.519531 132.144531 Z M 53.105469 136.894531 C 52.34375 135.078125 51.074219 133.605469 49.472656 132.742188 C 51.070312 131.878906 52.34375 130.40625 53.105469 128.589844 C 53.871094 130.40625 55.140625 131.878906 56.742188 132.742188 C 55.140625 133.605469 53.871094 135.078125 53.105469 136.894531 Z M 53.105469 136.894531 "/>
</g>
</svg>
