<?xml version="1.0" standalone="no"?>
<!DOCTYPE svg PUBLIC "-//W3C//DTD SVG 1.0//EN" "http://www.w3.org/TR/2001/REC-SVG-20010904/DTD/svg10.dtd">
<svg xmlns="http://www.w3.org/2000/svg" xmlns:xlink="http://www.w3.org/1999/xlink" id="body_1" width="295" height="192">

<g transform="matrix(0.4097222 0 0 0.4097222 -0 34.951393)">
	<g>
		<g>
            <path d="M556.996 46.542L556.996 236.89401C 556.996 238.62302 555.594 240.02501 553.865 240.02501L553.865 240.02501L499.287 240.02501C 497.55798 240.02501 496.15598 238.62302 496.15598 236.89401L496.15598 236.89401L496.15598 46.542C 496.15598 44.813 497.55798 43.411 499.287 43.411L499.287 43.411L553.865 43.411C 555.595 43.411 556.996 44.813 556.996 46.542z" stroke="none" fill="#806075" fill-rule="nonzero" />
            <path d="M500.56 240.026C 499.535 240.026 498.701 239.192 498.701 238.166L498.701 238.166L498.701 47.814C 498.701 46.788998 499.535 45.954 500.56 45.954L500.56 45.954L555.137 45.954C 556.16205 45.954 556.99603 46.788 556.99603 47.814L556.99603 47.814L556.99603 238.166C 556.99603 239.192 556.16205 240.026 555.137 240.026L555.137 240.026L500.56 240.026z" stroke="none" fill="#76566B" fill-rule="nonzero" />
			<g>
                <path d="M496.158 213.777L556.997 213.777L556.997 220.36499L496.158 220.36499z" stroke="none" fill="#FF6D61" fill-rule="nonzero" />
                <path d="M496.158 163.962L556.997 163.962L556.997 170.556L496.158 170.556z" stroke="none" fill="#FF6D61" fill-rule="nonzero" />
			</g>
            <path d="M516.032 65.396L537.121 65.396L537.121 138.992L516.032 138.992z" stroke="none" fill="#806075" fill-rule="nonzero" />
		</g>
		<g>
            <path d="M187.537 19.134L187.537 236.895C 187.537 238.62401 186.13501 240.026 184.406 240.026L184.406 240.026L121.005005 240.026C 119.27601 240.026 117.87401 238.62401 117.87401 236.895L117.87401 236.895L117.87401 19.134C 117.87401 17.405 119.27601 16.003 121.005005 16.003L121.005005 16.003L184.406 16.003C 186.135 16.002 187.537 17.404 187.537 19.134z" stroke="none" fill="#88849B" fill-rule="nonzero" />
            <path d="M122.277 240.026C 121.252 240.026 120.418 239.192 120.418 238.166L120.418 238.166L120.418 20.405C 120.418 19.380001 121.252 18.545 122.277 18.545L122.277 18.545L185.67801 18.545C 186.703 18.545 187.537 19.379 187.537 20.405L187.537 20.405L187.537 238.166C 187.537 239.192 186.703 240.026 185.67801 240.026L185.67801 240.026L122.277 240.026z" stroke="none" fill="#7E7A91" fill-rule="nonzero" />
			<g>
                <path d="M117.874 213.777L187.537 213.777L187.537 220.36499L117.874 220.36499z" stroke="none" fill="#FF9187" fill-rule="nonzero" />
                <path d="M117.874 163.962L187.537 163.962L187.537 170.556L117.874 170.556z" stroke="none" fill="#FF9187" fill-rule="nonzero" />
			</g>
            <path d="M137.749 37.987L167.66199 37.987L167.66199 138.992L137.749 138.992z" stroke="none" fill="#88849B" fill-rule="nonzero" />
		</g>
		<g>
            <path d="M337.079 48.841L337.079 236.894C 337.079 238.623 335.677 240.025 333.948 240.025L333.948 240.025L289.751 240.025C 288.022 240.025 286.62 238.623 286.62 236.894L286.62 236.894L286.62 48.841C 286.62 47.112 288.022 45.71 289.751 45.71L289.751 45.71L333.948 45.71C 335.678 45.71 337.079 47.112 337.079 48.841z" stroke="none" fill="#FF6790" fill-rule="nonzero" />
            <path d="M291.024 240.026C 289.999 240.026 289.16498 239.192 289.16498 238.166L289.16498 238.166L289.16498 50.113C 289.16498 49.087997 289.999 48.253 291.024 48.253L291.024 48.253L335.22098 48.253C 336.24597 48.253 337.08 49.086998 337.08 50.113L337.08 50.113L337.08 238.16599C 337.08 239.19199 336.24597 240.02599 335.22098 240.02599L335.22098 240.02599L291.024 240.02599L291.024 240.026z" stroke="none" fill="#EE4972" fill-rule="nonzero" />
            <path d="M298.502 78.89L324.46503 78.89L324.46503 105.289L298.502 105.289z" stroke="none" fill="#FF6790" fill-rule="nonzero" />
		</g>
		<g>
            <path d="M605.622 2.83L605.622 237.196C 605.622 238.759 604.355 240.026 602.793 240.026L602.793 240.026L559.825 240.026C 558.262 240.026 556.99603 238.759 556.99603 237.196L556.99603 237.196L556.99603 2.83C 556.99603 1.267 558.26306 0 559.825 0L559.825 0L602.793 0C 604.356 0 605.622 1.267 605.622 2.83z" stroke="none" fill="#AE74C1" fill-rule="nonzero" />
            <path d="M560.975 240.026C 560.04895 240.026 559.295 239.272 559.295 238.345L559.295 238.345L559.295 3.979C 559.295 3.052 560.049 2.298 560.975 2.298L560.975 2.298L603.94196 2.298C 604.868 2.298 605.62195 3.052 605.62195 3.979L605.62195 3.979L605.62195 238.345C 605.62195 239.272 604.8679 240.026 603.94196 240.026L603.94196 240.026L560.975 240.026z" stroke="none" fill="#A46AB7" fill-rule="nonzero" />
			<g>
                <path d="M556.996 216.303L605.62195 216.303L605.62195 222.25699L556.996 222.25699z" stroke="none" fill="#FF81AD" fill-rule="nonzero" />
                <path d="M556.996 171.282L605.62195 171.282L605.62195 177.242L556.996 177.242z" stroke="none" fill="#FF81AD" fill-rule="nonzero" />
			</g>
            <path d="M574.958 25.585L587.66003 25.585L587.66003 133.291L574.958 133.291z" stroke="none" fill="#AE74C1" fill-rule="nonzero" />
		</g>
		<g>
            <path d="M496.158 23.972L496.158 237.196C 496.158 238.76 494.89297 240.026 493.32898 240.026L493.32898 240.026L444.003 240.026C 442.439 240.026 441.17398 238.761 441.17398 237.196L441.17398 237.196L441.17398 23.972C 441.17398 22.408 442.439 21.142 444.003 21.142L444.003 21.142L493.32898 21.142C 494.892 21.142 496.158 22.408 496.158 23.972z" stroke="none" fill="#788691" fill-rule="nonzero" />
            <path d="M445.154 240.026C 444.228 240.026 443.474 239.272 443.474 238.345L443.474 238.345L443.474 25.12C 443.474 24.193 444.228 23.439001 445.154 23.439001L445.154 23.439001L494.479 23.439001C 495.405 23.439001 496.159 24.193 496.159 25.12L496.159 25.12L496.159 238.345C 496.159 239.272 495.405 240.026 494.479 240.026L494.479 240.026L445.154 240.026z" stroke="none" fill="#6E7C87" fill-rule="nonzero" />
            <path d="M459.137 41.01L478.197 41.01L478.197 148.716L459.137 148.716z" stroke="none" fill="#788691" fill-rule="nonzero" />
            <path d="M441.173 172.126L496.157 172.126L496.157 236.414L441.173 236.414z" stroke="none" fill="#F9937D" fill-rule="nonzero" />
		</g>
		<g>
            <path d="M236.164 30.331L236.164 237.196C 236.164 238.76 234.899 240.026 233.335 240.026L233.335 240.026L190.366 240.026C 188.802 240.026 187.537 238.761 187.537 237.196L187.537 237.196L187.537 30.331C 187.537 28.767 188.802 27.501 190.366 27.501L190.366 27.501L233.33499 27.501C 234.898 27.501 236.164 28.767 236.164 30.331z" stroke="none" fill="#AEAFD1" fill-rule="nonzero" />
            <path d="M191.517 240.026C 190.591 240.026 189.837 239.272 189.837 238.345L189.837 238.345L189.837 31.479C 189.837 30.552 190.591 29.798 191.517 29.798L191.517 29.798L234.484 29.798C 235.40999 29.798 236.16399 30.552 236.16399 31.479L236.16399 31.479L236.16399 238.345C 236.16399 239.272 235.40999 240.026 234.484 240.026L234.484 240.026L191.517 240.026z" stroke="none" fill="#A4A5C7" fill-rule="nonzero" />
            <path d="M205.5 47.369L218.202 47.369L218.202 148.716L205.5 148.716z" stroke="none" fill="#AEAFD1" fill-rule="nonzero" />
            <path d="M187.537 172.126L236.164 172.126L236.164 236.414L187.537 236.414z" stroke="none" fill="#FFBCBD" fill-rule="nonzero" />
		</g>
		<g>
			<g>
                <path d="M441.173 68.595L441.173 237.196C 441.173 238.759 439.906 240.026 438.344 240.026L438.344 240.026L408.091 240.026C 406.528 240.026 405.262 238.759 405.262 237.196L405.262 237.196L405.262 68.595C 405.262 67.032 406.529 65.765 408.091 65.765L408.091 65.765L438.344 65.765C 439.907 65.765 441.173 67.032 441.173 68.595z" stroke="none" fill="#F28670" fill-rule="nonzero" />
                <path d="M409.241 240.026C 408.315 240.026 407.561 239.272 407.561 238.345L407.561 238.345L407.561 69.744C 407.561 68.817 408.315 68.063 409.241 68.063L409.241 68.063L439.494 68.063C 440.41998 68.063 441.17398 68.817 441.17398 69.744L441.17398 69.744L441.17398 238.345C 441.17398 239.272 440.41998 240.026 439.494 240.026L439.494 240.026L409.241 240.026z" stroke="none" fill="#E87C66" fill-rule="nonzero" />
			</g>
            <path d="M425.436 166.754L433.89502 166.754L433.89502 226.351L425.436 226.351z" stroke="none" fill="#D96D57" fill-rule="nonzero" />
            <path d="M414.034 183.309L419.551 183.309L419.551 226.71901L414.034 226.71901z" stroke="none" fill="#D96D57" fill-rule="nonzero" />
		</g>
		<g>
			<g>
                <path d="M118.004 75.536L71.871 237.7C 71.443 239.203 69.878006 240.075 68.375 239.647L68.375 239.647L39.277 231.365C 37.774002 230.93701 36.902 229.37201 37.33 227.869L37.33 227.869L83.464 65.705C 83.892 64.202 85.457 63.33 86.96 63.758003L86.96 63.758003L116.058 72.04C 117.56 72.467 118.432 74.033 118.004 75.536z" stroke="none" fill="#FFA48E" fill-rule="nonzero" />
                <path d="M40.384 231.68C 39.493 231.426 38.974 230.495 39.228 229.603L39.228 229.603L85.36 67.44C 85.614 66.549 86.545 66.03 87.436 66.284004L87.436 66.284004L116.534 74.566C 117.424995 74.82 117.94299 75.751 117.689995 76.642L117.689995 76.642L71.557 238.805C 71.303 239.696 70.372 240.215 69.481 239.96199L69.481 239.96199L40.384 231.68z" stroke="none" fill="#FF9A84" fill-rule="nonzero" />
			</g>
            <path transform="matrix(0.2737 -0.9618 0.9618 0.2737 -135.7567 211.1273)"  d="M42.126 191.228L101.722 191.228L101.722 199.687L42.126 199.687z" stroke="none" fill="#F78B75" fill-rule="nonzero" />
            <path transform="matrix(0.2737 -0.9618 0.9618 0.2737 -150.868 200.3435)"  d="M35.523 197.313L78.932 197.313L78.932 202.83L35.523 202.83z" stroke="none" fill="#F78B75" fill-rule="nonzero" />
		</g>
		<g>
			<g>
                <path d="M286.622 66.838L286.622 236.895C 286.622 238.62401 285.22 240.026 283.491 240.026L283.491 240.026L239.294 240.026C 237.565 240.026 236.16301 238.62401 236.16301 236.895L236.16301 236.895L236.16301 66.838C 236.16301 65.109 237.565 63.706997 239.294 63.706997L239.294 63.706997L283.491 63.706997C 285.22 63.707 286.622 65.108 286.622 66.838z" stroke="none" fill="#99BFBF" fill-rule="nonzero" />
                <path d="M240.566 240.026C 239.541 240.026 238.707 239.192 238.707 238.166L238.707 238.166L238.707 68.109C 238.707 67.084 239.541 66.249 240.566 66.249L240.566 66.249L284.763 66.249C 285.788 66.249 286.622 67.083 286.622 68.109L286.622 68.109L286.622 238.16602C 286.622 239.19202 285.788 240.02602 284.763 240.02602L284.763 240.02602L240.566 240.02602L240.566 240.026z" stroke="none" fill="#8AB0B0" fill-rule="nonzero" />
			</g>
            <path d="M249.311 92.636L249.311 148.541L273.474 148.541L273.474 147.103L273.474 92.636L249.311 92.636zM252.185 95.512L270.6 95.512L270.6 145.666L252.185 145.666L252.185 95.512z" stroke="none" fill="#769C9C" fill-rule="nonzero" />
            <path d="M258.003 174.932L266.326 174.932L266.326 224.88101L258.003 224.88101z" stroke="none" fill="#769C9C" fill-rule="nonzero" />
		</g>
        <path d="M0 240.026L720 240.026L720 269.659L0 269.659z" stroke="none" fill="#FAAB82" fill-rule="nonzero" />
		<g>
			<g>
                <path d="M405.262 13.862L405.262 236.894C 405.262 238.623 403.86 240.025 402.13098 240.025L402.13098 240.025L340.21 240.025C 338.481 240.025 337.07898 238.623 337.07898 236.894L337.07898 236.894L337.07898 13.862C 337.07898 12.133 338.481 10.731001 340.21 10.731001L340.21 10.731001L402.13098 10.731001C 403.86 10.731 405.262 12.133 405.262 13.862z" stroke="none" fill="#B0BE60" fill-rule="nonzero" />
                <path d="M341.482 240.026C 340.457 240.026 339.623 239.192 339.623 238.166L339.623 238.166L339.623 15.134C 339.623 14.109 340.457 13.274 341.482 13.274L341.482 13.274L403.40298 13.274C 404.42798 13.274 405.262 14.108 405.262 15.134L405.262 15.134L405.262 238.166C 405.262 239.192 404.42798 240.026 403.40298 240.026L403.40298 240.026L341.482 240.026z" stroke="none" fill="#9CAA4C" fill-rule="nonzero" />
                <path d="M348.96 43.91L392.647 43.91L392.647 70.309L348.96 70.309z" stroke="none" fill="#94A05C" fill-rule="nonzero" />
			</g>
            <path d="M372.442 105.289L383.51898 105.289L383.51898 216.30301L372.442 216.30301z" stroke="none" fill="#B0BE60" fill-rule="nonzero" />
            <path d="M356.212 142.868L363.46402 142.868L363.46402 216.303L356.212 216.303z" stroke="none" fill="#B0BE60" fill-rule="nonzero" />
		</g>
		<g>
            <path d="M634.003 180.916C 634.003 171.83589 641.3621 164.475 650.44 164.475C 659.5179 164.475 666.877 171.83589 666.877 180.916C 666.877 189.99611 659.5179 197.357 650.44 197.357C 641.3621 197.357 634.003 189.99611 634.003 180.916" stroke="none" fill="#828754" fill-rule="nonzero" />
            <path d="M650.116 216.162C 639.47003 188.975 636.622 137.041 664.465 129.669C 692.30804 122.297005 722.125 145.50601 700.366 210.06601L700.366 210.06601L650.116 216.162z" stroke="none" fill="#8C915E" fill-rule="nonzero" />
            <path d="M703.099 240.026L644.629 240.026L639.47 197.357L708.259 197.357L703.099 240.026" stroke="none" fill="#FADED0" fill-rule="nonzero" />
            <path d="M649.386 179.838L654.671 174.811L653.669 181.53L649.386 179.838" stroke="none" fill="#828754" fill-rule="nonzero" />
            <path d="M682.49 189.52L686.951 179.904L689.181 189.52L682.49 189.52" stroke="none" fill="#828754" fill-rule="nonzero" />
            <path d="M663.511 169.092L667.408 160.69L669.357 169.092L663.511 169.092" stroke="none" fill="#828754" fill-rule="nonzero" />
            <path d="M686.317 147.803L684.126 141.333L689.439 144.829L686.317 147.803" stroke="none" fill="#828754" fill-rule="nonzero" />
            <path d="M665.968 188.266L663.777 181.795L669.091 185.291L665.968 188.266" stroke="none" fill="#828754" fill-rule="nonzero" />
            <path d="M653.176 146.16L663.042 143.023L657.594 150.978L653.176 146.16" stroke="none" fill="#828754" fill-rule="nonzero" />
            <path d="M692.234 164.284L692.932 157.097L697.802 160.86L692.234 164.284" stroke="none" fill="#828754" fill-rule="nonzero" />
		</g>
		<g>
            <path d="M32.293 283.829C 32.293 276.0026 38.63578 269.65802 46.46 269.65802C 54.284218 269.65802 60.627 276.0026 60.627 283.829C 60.627 291.65543 54.284218 298 46.46 298C 38.63578 298 32.293 291.65543 32.293 283.829" stroke="none" fill="#76566B" fill-rule="nonzero" />
            <path d="M659.373 283.829C 659.373 276.0026 665.71576 269.65802 673.54 269.65802C 681.3642 269.65802 687.707 276.0026 687.707 283.829C 687.707 291.65543 681.3642 298 673.54 298C 665.71576 298 659.373 291.65543 659.373 283.829" stroke="none" fill="#76566B" fill-rule="nonzero" />
		</g>
	</g>
</g>
</svg>