<?xml version="1.0" encoding="UTF-8"?>
<svg xmlns="http://www.w3.org/2000/svg" xmlns:xlink="http://www.w3.org/1999/xlink" width="205px" height="150px" viewBox="0 0 204 150" version="1.1">
<g id="surface1">
<path style=" stroke:none;fill-rule:nonzero;fill:rgb(23.529412%,66.27451%,85.098039%);fill-opacity:1;" d="M 179.28125 112.570312 L 179.28125 16 C 179.28125 7.566406 172.453125 0.703125 164.058594 0.703125 L 39.753906 0.703125 C 31.359375 0.703125 24.53125 7.566406 24.53125 16 L 24.53125 112.570312 "/>
<path style=" stroke:none;fill-rule:nonzero;fill:rgb(10.980392%,73.333333%,46.27451%);fill-opacity:1;" d="M 32.847656 104.597656 L 32.847656 16 C 32.847656 12.167969 35.941406 9.0625 39.753906 9.0625 L 164.058594 9.0625 C 167.871094 9.0625 170.960938 12.167969 170.960938 16 L 170.960938 104.597656 Z M 32.847656 104.597656 "/>
<path style=" stroke:none;fill-rule:nonzero;fill:rgb(100%,100%,100%);fill-opacity:1;" d="M 170.964844 104.597656 L 32.621094 105.433594 L 32.621094 34.476562 L 170.964844 33.640625 Z M 170.964844 104.597656 "/>
<path style=" stroke:none;fill-rule:nonzero;fill:rgb(100%,45.098039%,45.098039%);fill-opacity:1;" d="M 49.25 21.015625 C 49.25 22.410156 48.125 23.539062 46.738281 23.539062 C 45.351562 23.539062 44.226562 22.410156 44.226562 21.015625 C 44.226562 19.621094 45.351562 18.492188 46.738281 18.492188 C 48.125 18.492188 49.25 19.621094 49.25 21.015625 Z M 49.25 21.015625 "/>
<path style=" stroke:none;fill-rule:nonzero;fill:rgb(26.27451%,79.215686%,100%);fill-opacity:1;" d="M 60.089844 21.015625 C 60.089844 22.410156 58.964844 23.539062 57.578125 23.539062 C 56.191406 23.539062 55.066406 22.410156 55.066406 21.015625 C 55.066406 19.621094 56.191406 18.492188 57.578125 18.492188 C 58.964844 18.492188 60.089844 19.621094 60.089844 21.015625 Z M 60.089844 21.015625 "/>
<path style=" stroke:none;fill-rule:nonzero;fill:rgb(92.941176%,100%,52.941176%);fill-opacity:1;" d="M 70.933594 21.015625 C 70.933594 22.410156 69.808594 23.539062 68.421875 23.539062 C 67.03125 23.539062 65.910156 22.410156 65.910156 21.015625 C 65.910156 19.621094 67.035156 18.492188 68.421875 18.492188 C 69.808594 18.492188 70.933594 19.621094 70.933594 21.015625 Z M 70.933594 21.015625 "/>
<path style=" stroke:none;fill-rule:nonzero;fill:rgb(100%,100%,100%);fill-opacity:1;" d="M 156.175781 24.460938 L 85.425781 24.460938 C 83.550781 24.460938 82.015625 22.917969 82.015625 21.035156 C 82.015625 19.152344 83.550781 17.613281 85.425781 17.613281 L 156.175781 17.613281 C 158.050781 17.613281 159.585938 19.152344 159.585938 21.035156 C 159.585938 22.917969 158.050781 24.460938 156.175781 24.460938 Z M 156.175781 24.460938 "/>
<path style=" stroke:none;fill-rule:nonzero;fill:rgb(65.882353%,83.137255%,100%);fill-opacity:1;" d="M 200.667969 135.613281 L 179.28125 112.570312 L 24.53125 112.570312 L 3.144531 135.613281 C -1.316406 140.421875 2.074219 148.265625 8.621094 148.265625 L 195.191406 148.265625 C 201.734375 148.265625 205.128906 140.421875 200.667969 135.613281 Z M 200.667969 135.613281 "/>
<path style=" stroke:none;fill-rule:nonzero;fill:rgb(70.588235%,70.588235%,70.980392%);fill-opacity:1;" d="M 121.8125 139.769531 L 117.460938 129.660156 C 116.617188 127.703125 114.699219 126.4375 112.578125 126.4375 L 91.230469 126.4375 C 89.109375 126.4375 87.191406 127.703125 86.351562 129.660156 L 82 139.769531 Z M 121.8125 139.769531 "/>
<path style=" stroke:none;fill-rule:nonzero;fill:rgb(100%,92.941176%,54.509804%);fill-opacity:1;" d="M 45.226562 63.675781 L 71.8125 63.675781 L 71.8125 80.1875 L 45.226562 80.1875 Z M 45.226562 63.675781 "/>
<path style=" stroke:none;fill-rule:nonzero;fill:rgb(100%,92.941176%,54.509804%);fill-opacity:1;" d="M 88.003906 63.675781 L 114.589844 63.675781 L 114.589844 80.1875 L 88.003906 80.1875 Z M 88.003906 63.675781 "/>
<path style=" stroke:none;fill-rule:nonzero;fill:rgb(100%,92.941176%,54.509804%);fill-opacity:1;" d="M 129.332031 63.675781 L 155.917969 63.675781 L 155.917969 80.1875 L 129.332031 80.1875 Z M 129.332031 63.675781 "/>
<path style=" stroke:none;fill-rule:nonzero;fill:rgb(100%,92.941176%,54.509804%);fill-opacity:1;" d="M 48.125 42.792969 L 61.417969 42.792969 L 61.417969 55.175781 L 48.125 55.175781 Z M 48.125 42.792969 "/>
<path style=" stroke:none;fill-rule:nonzero;fill:rgb(8.627451%,8.627451%,8.627451%);fill-opacity:1;" d="M 172.269531 106.332031 L 172.269531 16.515625 C 172.269531 12.007812 168.636719 8.359375 164.152344 8.359375 L 39.847656 8.359375 C 35.363281 8.359375 31.730469 12.007812 31.730469 16.515625 L 31.730469 106.332031 Z M 34.15625 16.515625 C 34.15625 14.933594 34.792969 13.507812 35.824219 12.46875 C 36.855469 11.433594 38.273438 10.796875 39.847656 10.796875 L 164.152344 10.796875 C 165.726562 10.796875 167.144531 11.433594 168.175781 12.46875 C 169.210938 13.507812 169.84375 14.933594 169.84375 16.515625 L 169.84375 30.847656 L 34.15625 30.847656 Z M 34.15625 33.285156 L 169.84375 33.285156 L 169.84375 103.894531 L 34.15625 103.894531 Z M 34.15625 33.285156 "/>
<path style=" stroke:none;fill-rule:nonzero;fill:rgb(8.627451%,8.627451%,8.627451%);fill-opacity:1;" d="M 46.832031 17.789062 C 44.777344 17.789062 43.109375 19.464844 43.109375 21.53125 C 43.109375 23.597656 44.777344 25.273438 46.832031 25.273438 C 48.890625 25.273438 50.558594 23.597656 50.558594 21.53125 C 50.558594 19.464844 48.890625 17.789062 46.832031 17.789062 Z M 46.832031 22.835938 C 46.117188 22.835938 45.535156 22.25 45.535156 21.53125 C 45.535156 20.808594 46.117188 20.226562 46.832031 20.226562 C 47.550781 20.226562 48.132812 20.8125 48.132812 21.53125 C 48.132812 22.25 47.550781 22.835938 46.832031 22.835938 Z M 46.832031 22.835938 "/>
<path style=" stroke:none;fill-rule:nonzero;fill:rgb(8.627451%,8.627451%,8.627451%);fill-opacity:1;" d="M 57.675781 17.789062 C 55.617188 17.789062 53.949219 19.464844 53.949219 21.53125 C 53.949219 23.597656 55.617188 25.273438 57.675781 25.273438 C 59.730469 25.273438 61.398438 23.597656 61.398438 21.53125 C 61.398438 19.464844 59.730469 17.789062 57.675781 17.789062 Z M 57.675781 22.835938 C 56.957031 22.835938 56.375 22.25 56.375 21.53125 C 56.375 20.8125 56.957031 20.226562 57.675781 20.226562 C 58.390625 20.226562 58.972656 20.808594 58.972656 21.53125 C 58.972656 22.25 58.390625 22.835938 57.675781 22.835938 Z M 57.675781 22.835938 "/>
<path style=" stroke:none;fill-rule:nonzero;fill:rgb(8.627451%,8.627451%,8.627451%);fill-opacity:1;" d="M 68.515625 17.789062 C 66.457031 17.789062 64.789062 19.464844 64.789062 21.53125 C 64.789062 23.597656 66.457031 25.273438 68.515625 25.273438 C 70.570312 25.273438 72.238281 23.597656 72.238281 21.53125 C 72.238281 19.464844 70.570312 17.789062 68.515625 17.789062 Z M 68.515625 22.835938 C 67.796875 22.835938 67.21875 22.25 67.214844 21.53125 C 67.21875 20.808594 67.796875 20.226562 68.515625 20.226562 C 69.230469 20.226562 69.8125 20.808594 69.8125 21.53125 C 69.8125 22.25 69.230469 22.835938 68.515625 22.835938 Z M 68.515625 22.835938 "/>
<path style=" stroke:none;fill-rule:nonzero;fill:rgb(8.627451%,8.627451%,8.627451%);fill-opacity:1;" d="M 156.269531 16.910156 L 85.519531 16.910156 C 82.96875 16.914062 80.902344 18.988281 80.898438 21.550781 C 80.902344 24.113281 82.96875 26.191406 85.519531 26.195312 L 156.269531 26.195312 C 158.820312 26.191406 160.886719 24.113281 160.890625 21.550781 C 160.886719 18.988281 158.820312 16.914062 156.269531 16.910156 Z M 157.820312 23.109375 C 157.417969 23.511719 156.875 23.757812 156.269531 23.757812 L 85.519531 23.757812 C 84.914062 23.757812 84.371094 23.511719 83.96875 23.109375 C 83.566406 22.703125 83.324219 22.15625 83.324219 21.550781 C 83.324219 20.945312 83.566406 20.398438 83.96875 19.996094 C 84.371094 19.589844 84.914062 19.347656 85.519531 19.347656 L 156.269531 19.347656 C 156.875 19.347656 157.417969 19.589844 157.820312 19.996094 C 158.222656 20.398438 158.464844 20.945312 158.464844 21.550781 C 158.464844 22.15625 158.222656 22.703125 157.820312 23.109375 Z M 157.820312 23.109375 "/>
<path style=" stroke:none;fill-rule:nonzero;fill:rgb(8.627451%,8.627451%,8.627451%);fill-opacity:1;" d="M 180.589844 112.605469 L 180.589844 16.515625 C 180.585938 7.40625 173.21875 0.00390625 164.152344 0 L 39.847656 0 C 30.78125 0.00390625 23.414062 7.40625 23.410156 16.515625 L 23.410156 112.605469 L 2.351562 135.296875 C 0.742188 137.027344 -0.00390625 139.152344 0 141.210938 C 0 143.464844 0.867188 145.644531 2.394531 147.28125 C 3.914062 148.921875 6.132812 150.003906 8.714844 150 L 195.285156 150 C 197.867188 150.003906 200.085938 148.921875 201.605469 147.28125 C 203.132812 145.644531 204 143.464844 204 141.210938 C 204.003906 139.152344 203.257812 137.027344 201.648438 135.296875 Z M 29.945312 6.566406 C 32.488281 4.015625 35.984375 2.4375 39.847656 2.4375 L 164.152344 2.4375 C 168.015625 2.4375 171.511719 4.015625 174.054688 6.566406 C 176.59375 9.121094 178.164062 12.632812 178.164062 16.515625 L 178.164062 111.867188 L 25.835938 111.867188 L 25.835938 16.515625 C 25.839844 12.632812 27.40625 9.121094 29.945312 6.566406 Z M 199.835938 145.613281 C 198.730469 146.792969 197.195312 147.558594 195.285156 147.5625 L 8.714844 147.5625 C 6.804688 147.558594 5.269531 146.792969 4.164062 145.613281 C 3.0625 144.433594 2.425781 142.828125 2.425781 141.210938 C 2.429688 139.730469 2.9375 138.246094 4.125 136.960938 L 25.152344 114.304688 L 178.847656 114.304688 L 199.875 136.960938 L 200.761719 136.128906 L 199.875 136.960938 C 201.0625 138.246094 201.570312 139.730469 201.574219 141.210938 C 201.574219 142.828125 200.9375 144.4375 199.835938 145.613281 Z M 199.835938 145.613281 "/>
<path style=" stroke:none;fill-rule:nonzero;fill:rgb(8.627451%,8.627451%,8.627451%);fill-opacity:1;" d="M 116.964844 125.714844 L 87.035156 125.714844 L 81.289062 139.066406 L 11.46875 139.066406 L 11.46875 141.503906 L 192.53125 141.503906 L 192.53125 139.066406 L 122.710938 139.066406 Z M 83.941406 139.050781 L 88.628906 128.152344 L 115.371094 128.152344 L 120.058594 139.050781 Z M 83.941406 139.050781 "/>
<path style=" stroke:none;fill-rule:nonzero;fill:rgb(8.627451%,8.627451%,8.627451%);fill-opacity:1;" d="M 46.839844 89.523438 L 73.21875 89.523438 L 73.21875 91.800781 L 46.839844 91.800781 Z M 46.839844 89.523438 "/>
<path style=" stroke:none;fill-rule:nonzero;fill:rgb(8.627451%,8.627451%,8.627451%);fill-opacity:1;" d="M 46.839844 96.753906 L 73.21875 96.753906 L 73.21875 99.03125 L 46.839844 99.03125 Z M 46.839844 96.753906 "/>
<path style=" stroke:none;fill-rule:nonzero;fill:rgb(8.627451%,8.627451%,8.627451%);fill-opacity:1;" d="M 130.78125 89.523438 L 157.164062 89.523438 L 157.164062 91.800781 L 130.78125 91.800781 Z M 130.78125 89.523438 "/>
<path style=" stroke:none;fill-rule:nonzero;fill:rgb(8.627451%,8.627451%,8.627451%);fill-opacity:1;" d="M 130.78125 96.753906 L 157.164062 96.753906 L 157.164062 99.03125 L 130.78125 99.03125 Z M 130.78125 96.753906 "/>
<path style=" stroke:none;fill-rule:nonzero;fill:rgb(8.627451%,8.627451%,8.627451%);fill-opacity:1;" d="M 89.527344 89.523438 L 115.910156 89.523438 L 115.910156 91.800781 L 89.527344 91.800781 Z M 89.527344 89.523438 "/>
<path style=" stroke:none;fill-rule:nonzero;fill:rgb(8.627451%,8.627451%,8.627451%);fill-opacity:1;" d="M 89.527344 96.753906 L 115.910156 96.753906 L 115.910156 99.03125 L 89.527344 99.03125 Z M 89.527344 96.753906 "/>
<path style=" stroke:none;fill-rule:nonzero;fill:rgb(8.627451%,8.627451%,8.627451%);fill-opacity:1;" d="M 45.703125 81.960938 L 74.355469 81.960938 L 74.355469 64.019531 L 45.703125 64.019531 Z M 47.972656 66.296875 L 72.085938 66.296875 L 72.085938 79.679688 L 47.972656 79.679688 Z M 47.972656 66.296875 "/>
<path style=" stroke:none;fill-rule:nonzero;fill:rgb(8.627451%,8.627451%,8.627451%);fill-opacity:1;" d="M 129.648438 81.960938 L 158.296875 81.960938 L 158.296875 64.019531 L 129.648438 64.019531 Z M 131.914062 66.296875 L 156.027344 66.296875 L 156.027344 79.679688 L 131.914062 79.679688 Z M 131.914062 66.296875 "/>
<path style=" stroke:none;fill-rule:nonzero;fill:rgb(8.627451%,8.627451%,8.627451%);fill-opacity:1;" d="M 88.394531 81.960938 L 117.042969 81.960938 L 117.042969 64.019531 L 88.394531 64.019531 Z M 90.664062 66.296875 L 114.777344 66.296875 L 114.777344 79.679688 L 90.664062 79.679688 Z M 90.664062 66.296875 "/>
<path style=" stroke:none;fill-rule:nonzero;fill:rgb(8.627451%,8.627451%,8.627451%);fill-opacity:1;" d="M 62.609375 55.238281 L 62.609375 42.378906 L 47.546875 42.378906 L 47.546875 56.378906 L 62.609375 56.378906 Z M 49.816406 54.101562 L 49.816406 44.65625 L 60.34375 44.65625 L 60.34375 54.101562 Z M 49.816406 54.101562 "/>
<path style=" stroke:none;fill-rule:nonzero;fill:rgb(8.627451%,8.627451%,8.627451%);fill-opacity:1;" d="M 79.917969 47.292969 L 96.101562 47.292969 L 96.101562 49.570312 L 79.917969 49.570312 Z M 79.917969 47.292969 "/>
<path style=" stroke:none;fill-rule:nonzero;fill:rgb(8.627451%,8.627451%,8.627451%);fill-opacity:1;" d="M 109.652344 47.292969 L 125.835938 47.292969 L 125.835938 49.570312 L 109.652344 49.570312 Z M 109.652344 47.292969 "/>
<path style=" stroke:none;fill-rule:nonzero;fill:rgb(8.627451%,8.627451%,8.627451%);fill-opacity:1;" d="M 139.382812 47.292969 L 155.566406 47.292969 L 155.566406 49.570312 L 139.382812 49.570312 Z M 139.382812 47.292969 "/>
</g>
</svg>
