<?xml version="1.0" standalone="no"?>
<!DOCTYPE svg PUBLIC "-//W3C//DTD SVG 1.0//EN" "http://www.w3.org/TR/2001/REC-SVG-20010904/DTD/svg10.dtd">
<svg xmlns="http://www.w3.org/2000/svg" xmlns:xlink="http://www.w3.org/1999/xlink" id="body_1" width="295" height="192">

<g transform="matrix(0.2666667 0 0 0.2666667 103.63335 -0)">
	<g>
        <path d="M115.012 370.02C 115.012 379.024 109.224 386.854 100.778 390.65298C 97.259 392.33698 93.231 393.23798 88.969 393.23798C 79.701004 393.23798 71.567 388.92996 66.954 382.43097C 64.373 378.82898 62.887 374.56097 62.887 370.01996C 62.887 365.71295 64.217 361.67996 66.563 358.23395C 66.64101 358.07794 66.72 357.95996 66.836006 357.80295L66.836006 357.80295L64.33401 357.80295L64.33401 278.36295L100.19101 278.36295L100.19101 349.11194C 100.58201 349.26993 100.97301 349.46494 101.32501 349.62094C 109.46 353.536 115.012 361.171 115.012 370.02z" stroke="none" fill="#78AF9B" fill-rule="nonzero" />
        <path d="M298.682 479.433L302.255 475.519C 309.157 467.959 310.987 457.05002 306.931 447.647L306.931 447.647L304.707 442.493C 303.396 439.45602 302.336 436.325 301.526 433.135L301.526 433.135L264.183 433.135L265.44302 483.777L266.26804 484.26602C 276.853 490.542 290.382 488.524 298.682 479.433z" stroke="none" fill="#FFD7C5" fill-rule="nonzero" />
        <path d="M299.6 417.773L299.6 326C 299.6 326 299.6 318.169 299.6 281.991C 299.6 234.027 266.55402 206.278 244.682 197.978L244.682 197.978L245.246 197.201L214.951 182.432C 203.123 182.326 192.59401 179.462 182.85101 177.59401L182.85101 177.59401L181.49202 177.11201L181.05402 177.27602C 169.40001 175.18802 158.83801 174.88202 148.49202 183.02301L148.49202 183.02301L139.04002 190.462C 139.04002 190.462 131.79103 193.392 125.58803 196.25801C 122.550026 196.97401 119.19403 198.09302 115.662025 199.73102C 110.92103 201.92401 105.92403 205.00601 101.134026 209.11702C 97.107025 212.57301 80.87903 230.74002 80.87903 230.74002C 71.98303 244.03201 65.70803 261.092 65.70803 281.99002C 65.70803 318.16803 100.546036 298.63403 100.546036 298.63403L100.546036 298.63403L102.797035 440.96002L102.797035 459.22403L102.799034 459.22403L113.38303 670.67004L168.66504 670.67004L183.82004 500.56705L197.80504 679.27905L254.50903 679.27905L262.08405 451.38904L261.56805 450.95804C 262.45905 450.39105 263.35406 449.82605 264.18304 449.19205L264.18304 449.19205L264.18304 433.13004L301.52603 433.13004C 300.255 428.128 299.6 422.971 299.6 417.773z" stroke="none" fill="#78AF9B" fill-rule="nonzero" />
        <path d="M249.952 230.863L236.569 196.259C 236.569 196.259 276.713 214.465 287.49 240.095C 298.268 265.726 296.921 360.829 296.921 360.829L296.921 360.829L295.574 432.58902C 295.574 432.58902 263.24 435.16003 263.24 433.13702C 263.24 431.644 262.03598 341.53702 261.405 290.182C 261.154 269.873 257.276 249.801 249.952 230.863z" stroke="none" fill="#5B92A0" fill-rule="nonzero" />
        <path d="M126.9 196.26L113.527 230.87C 106.214 249.819 102.343 269.867 102.069 290.186C 101.873 307.256 101.6 328.635 101.327 349.62C 101.131004 363.98898 100.936005 378.162 100.77901 390.652C 97.26001 392.336 93.23201 393.237 88.97001 393.237C 79.70201 393.237 71.56801 388.929 66.95501 382.43L66.95501 382.43L66.56401 360.818C 66.56401 360.818 66.56401 359.917 66.56401 358.233C 66.52501 358.077 66.52501 357.959 66.56401 357.802C 66.447014 346.997 66.40701 309.37 69.14501 278.362C 70.55301 262.23 72.70301 247.941 75.988014 240.11C 86.78 214.466 126.9 196.26 126.9 196.26z" stroke="none" fill="#5B92A0" fill-rule="nonzero" />
        <path d="M274.268 132.793C 274.268 139.411 271.57 145.44 267.229 149.786C 262.889 154.131 256.867 156.832 250.258 156.832L250.258 156.832L249.125 156.832C 243.063 184.828 213.111 209.18 181.51599 209.18C 149.92099 209.18 119.96799 184.827 113.90699 156.832C 107.49399 156.56 101.78499 153.74 97.63999 149.433C 93.49399 145.12599 90.953995 139.25299 90.953995 132.793C 90.953995 123.395996 96.34999 115.214 104.24799 111.298996C 106.828995 109.966995 109.72299 109.105995 112.772995 108.83199L112.772995 108.83199L112.772995 101.62899C 112.772995 96.14599 113.75099 90.66599 115.589 85.41899L115.589 85.41899L247.443 85.41899C 249.28099 90.66599 250.258 96.14599 250.258 101.62899L250.258 101.62899L250.258 108.71499C 253.152 108.71499 255.88899 109.22399 258.431 110.16299C 261.794 111.37698 264.766 113.29699 267.229 115.761986C 271.57 120.108 274.268 126.137 274.268 132.793z" stroke="none" fill="#FFD7C5" fill-rule="nonzero" />
        <path d="M247.111 451.088C 247.111 451.088 247.111 532.276 247.111 548.408C 247.111 564.54004 240.487 676.223 240.487 676.223L240.487 676.223L254.471 680.25604L262.567 549.41705L264.03897 463.71405L264.56897 449.19205L247.111 451.088z" stroke="none" fill="#5B92A0" fill-rule="nonzero" />
        <path d="M118.401 454.405C 118.401 454.405 118.401 540.107 118.401 556.239C 118.401 572.37103 125.026 676.224 125.026 676.224L125.026 676.224L111.041 680.257L102.945 557.249L101.473 471.54602L100.943 451.19302L118.401 454.405z" stroke="none" fill="#5B92A0" fill-rule="nonzero" />
        <path d="M295.504 500.937L267.602 500.937L238.37 526.213L238.37 579.43L281.553 579.43L324.736 579.43L324.736 526.213L295.504 500.937" stroke="none" fill="#FF846C" fill-rule="nonzero" />
        <path d="M65.428 158.826C 64.037 157.97101 62.249 158.96501 62.249 160.603L62.249 160.603L62.249 188.08899C 62.249 189.62 61.436 191.03299 60.116 191.799L60.116 191.799L46.655 199.59999C 45.335 200.366 43.708 200.366 42.388 199.59999L42.388 199.59999L28.927 191.8C 27.607 191.034 26.794 189.621 26.794 188.09L26.794 188.09L26.794 160.604C 26.794 158.966 25.006 157.972 23.615002 158.82701C 12.035002 165.945 4.264002 178.76102 4.264002 193.31801C 4.264002 206.88501 11.016002 218.94 21.312002 226.27701C 26.394001 229.899 29.411003 235.764 29.188002 242.016C 27.926003 277.24402 25.559002 342.966 24.810001 360.997C 23.773 385.99402 40.372 387.03702 44.523003 387.03702C 48.674004 387.03702 65.273 385.99402 64.235 360.997C 63.487 342.965 61.119 277.24402 59.857002 242.016C 59.633003 235.764 62.65 229.899 67.733 226.27701C 78.028 218.94 84.781006 206.886 84.781006 193.31801C 84.779 178.761 77.008 165.944 65.428 158.826z" stroke="none" fill="#EEEEEF" fill-rule="nonzero" />
        <path d="M64.974 331.897L60.776 331.897L60.868 330.306L64.974 330.306C 70.302 330.306 74.660995 325.941 74.660995 320.607C 74.660995 315.272 70.301994 310.908 64.974 310.908L64.974 310.908L62.004997 310.908L62.180996 307.88098L63.391994 307.88098C 68.71999 307.88098 78.27699 303.516 78.27699 298.18198C 78.27699 292.84796 68.71999 288.48297 63.39199 288.48297L63.39199 288.48297L63.31699 288.48297L63.49499 285.44998C 65.76899 285.426 69.97899 285.817 71.62499 284.46997C 73.801994 282.68997 73.078995 278.77496 73.078995 275.75696C 73.078995 270.42197 68.71999 266.05795 63.391994 266.05795L63.391994 266.05795L26.159 266.05795C 20.824001 268.68994 15.573 274.19296 15.573 283.51596L15.573 283.51596L15.573 318.73798C 15.805 333.79797 16.774 344.18298 20.174 351.42096C 21.514 352.33395 23.036 352.88797 24.652 352.88797L24.652 352.88797L64.974 351.29697C 70.302 351.29697 74.660995 346.93198 74.660995 341.59796C 74.660995 336.26395 70.301 331.897 64.974 331.897z" stroke="none" fill="#FFD7C5" fill-rule="nonzero" />
        <path d="M51.498 312.547L67.511 312.547C 71.459 312.548 75.063 310.922 77.647 308.33C 80.236 305.74197 81.859 302.13397 81.859 298.181C 81.86 294.228 80.237 290.62 77.647 288.032C 75.063 285.43903 71.459 283.81403 67.511 283.815L67.511 283.815L51.498 283.815C 49.519 283.815 47.915 285.421 47.915 287.402C 47.915 289.383 49.519 290.989 51.498 290.989L51.498 290.989L67.511 290.989C 69.484 290.99002 71.262 291.79 72.581 293.105C 73.894005 294.42502 74.693 296.20602 74.694 298.181C 74.693 300.156 73.894 301.937 72.581 303.257C 71.263 304.572 69.484 305.37198 67.511 305.373L67.511 305.373L51.498 305.373C 49.519 305.373 47.915 306.97897 47.915 308.96C 47.915 310.941 49.519 312.547 51.498 312.547z" stroke="none" fill="#231815" fill-rule="nonzero" />
        <path d="M70.133 334.831C 71.848 337.791 72.429 340.177 72.428 342.018C 72.425 343.325 72.147 344.388 71.681 345.331C 70.983 346.735 69.795 347.91 68.265 348.772C 66.743996 349.632 64.904 350.132 63.181 350.191L63.181 350.191L63.312 353.776L63.312 350.189L30.84 350.189C 27.229 350.18698 23.993 348.734 21.623001 346.367C 19.259 343.99402 17.807001 340.754 17.806002 337.138L17.806002 337.138L17.806002 280.781C 17.808002 277.165 19.259 273.92502 21.624002 271.552C 23.994003 269.185 27.230003 267.731 30.841003 267.729L30.841003 267.729L37.353004 267.729L63.314003 267.729L63.314003 264.142L63.183002 267.727C 65.487 267.8 67.973 268.68198 69.678 270.10898C 70.538 270.81998 71.215004 271.64697 71.683 272.58698C 72.15 273.53098 72.427 274.593 72.43 275.90097C 72.43 277.73996 71.849 280.12796 70.134 283.08896C 69.14101 284.80197 69.723 286.99796 71.435005 287.99194C 73.146 288.98593 75.339005 288.40295 76.33201 286.68994C 78.53001 282.89896 79.59501 279.27194 79.59501 275.90094C 79.59801 273.52393 79.05301 271.30194 78.09401 269.38495C 76.65501 266.49896 74.34801 264.33594 71.77301 262.88995C 69.18801 261.44296 66.30901 260.66696 63.44501 260.55795L63.44501 260.55795L63.39001 260.55594L37.351 260.55594L30.84 260.55594C 19.682 260.55795 10.642 269.60992 10.639999 280.78195L10.639999 280.78195L10.639999 337.13895C 10.641999 348.31094 19.682 357.36194 30.84 357.36395L30.84 357.36395L63.367 357.36395L63.443 357.36194C 67.256004 357.21094 71.119 355.89893 74.234 353.34494C 75.784004 352.06595 77.135 350.45593 78.092 348.53494C 79.05 346.61795 79.596 344.39594 79.593 342.01895C 79.593 338.64694 78.528 335.01996 76.329 331.22995C 75.335 329.51694 73.143005 328.93396 71.432 329.92896C 69.721 330.922 69.139 333.118 70.133 334.831z" stroke="none" fill="#231815" fill-rule="nonzero" />
        <path d="M51.498 312.547L67.511 312.547C 69.484 312.548 71.263 313.348 72.581 314.663C 73.894005 315.982 74.693 317.763 74.694 319.738C 74.693 321.71402 73.894 323.495 72.581 324.814C 71.263 326.129 69.484 326.929 67.511 326.93L67.511 326.93L51.498 326.93C 49.519 326.93 47.915 328.53598 47.915 330.517C 47.915 332.498 49.519 334.104 51.498 334.104L51.498 334.104L67.511 334.104C 71.459 334.105 75.063 332.48 77.647 329.887C 80.236 327.3 81.86 323.69098 81.859 319.737C 81.86 315.784 80.236 312.176 77.647 309.588C 75.063 306.996 71.459 305.371 67.511 305.372L67.511 305.372L51.498 305.372C 49.519 305.372 47.915 306.978 47.915 308.959C 47.915 310.941 49.519 312.547 51.498 312.547z" stroke="none" fill="#231815" fill-rule="nonzero" />
        <path d="M258.043 85.406L258.043 56.638C 258.043 40.937 249.081 26.616001 234.969 19.767002L234.969 19.767002L221.974 13.461002C 196.187 0.946002 166.09601 0.946002 140.30899 13.461002L140.30899 13.461002L127.31299 19.767002C 113.20199 26.616001 104.23999 40.937004 104.23999 56.638L104.23999 56.638L104.23999 85.406L258.043 85.406z" stroke="none" fill="#78AF9B" fill-rule="nonzero" />
        <path d="M106.068 87.393L142.26001 86.398994C 168.742 85.673 196.32 85.686 222.74802 86.438995L222.74802 86.438995L256.22403 87.393L256.21902 75.459L222.74303 67.283C 196.31403 60.826996 168.73703 60.71 142.25504 66.94199L142.25504 66.94199L106.063034 75.45899L106.068 87.393z" stroke="none" fill="#5B92A0" fill-rule="nonzero" />
        <path d="M103.727 212.507C 109.451 208.103 115.218994 204.823 120.328995 202.67801C 122.881996 201.60501 125.269 200.81601 127.379 200.30402C 129.487 199.79001 131.321 199.56102 132.712 199.56401C 135.067 199.56401 136.97601 197.65201 136.97601 195.29501C 136.97601 192.93701 135.06702 191.02602 132.712 191.02602C 130.43701 191.02802 127.993004 191.37201 125.37 192.00601C 117.528 193.92201 107.98801 198.47801 98.532005 205.73701C 96.664 207.17302 96.313 209.85402 97.74801 211.72401C 99.182 213.592 101.859 213.943 103.727 212.507z" stroke="none" fill="#231815" fill-rule="nonzero" />
        <path d="M72.29 261.591C 74.833 250.70601 79.251 241.257 84.473 233.031C 85.137 231.981 86.323 230.40201 87.77 228.65701C 89.945 226.02602 92.727 222.96402 95.459 220.17102C 98.185 217.38103 100.895 214.83502 102.809 213.29202C 104.641 211.81102 104.928 209.12302 103.449 207.28902C 101.97 205.45401 99.285995 205.16702 97.452995 206.64801C 95.87599 207.92201 94.1 209.535 92.22299 211.35101C 89.411995 214.07101 86.39699 217.23302 83.730995 220.25502C 82.397995 221.76602 81.15199 223.24103 80.059 224.61902C 78.965 226.00002 78.026 227.27101 77.276 228.45001C 71.634 237.33202 66.778 247.686 63.984 259.647C 63.447002 261.943 64.871 264.24 67.165 264.777C 69.459 265.314 71.753 263.888 72.29 261.591z" stroke="none" fill="#231815" fill-rule="nonzero" />
        <path d="M96.865 295.231L96.865 458.701C 96.865 461.059 98.773994 462.97 101.129 462.97C 103.484 462.97 105.393 461.059 105.393 458.701L105.393 458.701L105.393 295.231C 105.393 292.873 103.484 290.961 101.129 290.961C 98.774 290.961 96.865 292.872 96.865 295.231" stroke="none" fill="#231815" fill-rule="nonzero" />
        <path d="M259.918 295.231L259.918 424.11798C 259.918 426.47598 261.827 428.387 264.182 428.387C 266.53702 428.387 268.446 426.47598 268.446 424.11798L268.446 424.11798L268.446 295.231C 268.446 292.873 266.53702 290.961 264.182 290.961C 261.827 290.961 259.918 292.872 259.918 295.231" stroke="none" fill="#231815" fill-rule="nonzero" />
        <path d="M262.008 486.702L264.093 487.939C 268.888 490.781 274.219 492.166 279.494 492.166C 287.758 492.168 295.93298 488.76898 301.82898 482.31497L301.82898 482.31497L305.40298 478.39996C 310.598 472.70895 313.327 465.38196 313.326 457.95996C 313.326 453.90598 312.511 449.81696 310.84598 445.95596L310.84598 445.95596L308.62198 440.80096C 305.485 433.53098 303.86697 425.69397 303.86697 417.77496L303.86697 417.77496L303.86697 325.99597C 303.86697 325.99597 303.86697 318.17096 303.86697 281.99698C 303.86996 266.84097 300.68698 253.51997 295.59598 242.13797C 287.95596 225.05597 276.09198 212.36298 264.318 203.90396C 258.425 199.67296 252.54799 196.49196 247.148 194.33896C 241.733 192.19496 236.842 191.03996 232.601 191.02596C 230.246 191.02596 228.337 192.93695 228.337 195.29596C 228.337 197.65396 230.246 199.56596 232.60101 199.56596C 234.337 199.56096 236.75401 199.92296 239.54301 200.73396C 244.43602 202.14696 250.47702 204.90196 256.678 209.00397C 265.995 215.15697 275.69202 224.31996 283.01202 236.45097C 290.334 248.59198 295.33102 263.67697 295.338 281.998C 295.338 318.17297 295.338 325.99698 295.338 325.99698L295.338 325.99698L295.338 417.77597C 295.338 426.86 297.195 435.84897 300.793 444.18896L300.793 444.18896L303.017 449.34296C 304.215 452.12097 304.797 455.04996 304.798 457.96194C 304.797 463.29694 302.841 468.55194 299.109 472.64093L299.109 472.64093L295.536 476.55493C 291.297 481.19495 285.441 483.62595 279.495 483.62793C 275.702 483.62692 271.89398 482.63992 268.441 480.59393L268.441 480.59393L266.358 479.35693C 264.332 478.15494 261.716 478.82492 260.516 480.85294C 259.313 482.881 259.982 485.5 262.008 486.702z" stroke="none" fill="#231815" fill-rule="nonzero" />
        <path d="M286.622 428.866L266.101 428.866C 263.746 428.866 261.837 430.777 261.837 433.136C 261.837 435.494 263.746 437.405 266.101 437.405L266.101 437.405L286.622 437.405C 288.97702 437.405 290.88602 435.494 290.88602 433.136C 290.886 430.777 288.977 428.866 286.622 428.866" stroke="none" fill="#231815" fill-rule="nonzero" />
        <path d="M96.865 458.701C 96.865 458.701 96.865 464.164 96.865 490.86C 96.866 494.349 97.061 499.685 97.396996 506.46298C 98.575 530.151 101.506996 571.25397 104.146996 606.477C 106.785995 641.695 109.132996 671.008 109.132996 671.01196L109.132996 671.01196L113.383995 670.67194L112.923 666.42694C 112.593994 666.4749 104.25 667.36993 94.99899 672.43396C 90.381 674.972 85.52699 678.58496 81.48399 683.71796C 77.439995 688.84094 74.260994 695.49396 72.98799 703.782L72.98799 703.782L72.93799 704.104L72.93799 709.526C 72.93599 712.404 74.11599 715.049 76.00199 716.931C 77.88199 718.82 80.523994 720.002 83.398994 720L83.398994 720L158.553 720C 163.933 719.998 168.43199 715.917 168.963 710.555L168.963 710.555L168.963 710.56L172.911 671.049L185.74399 500.889C 185.92099 498.538 184.161 496.487 181.81299 496.311C 179.46498 496.134 177.41699 497.89502 177.24098 500.247L177.24098 500.247L164.416 670.28L160.476 709.71106L160.476 709.71606C 160.38 710.7051 159.545 711.4631 158.553 711.4601L158.553 711.4601L83.399 711.4601C 82.852005 711.45807 82.396 711.25006 82.032005 710.89307C 81.675 710.52905 81.468 710.0721 81.466 709.5251L81.466 709.5251L81.466 704.4341L77.202 704.4341L81.416 705.08606C 82.487 698.20605 85.002 693.05304 88.181 689.00305C 92.939 682.94305 99.37 679.36505 104.686 677.34503C 107.336 676.33606 109.687996 675.718 111.34499 675.36005C 112.173996 675.181 112.828995 675.06604 113.26199 674.99805C 113.478 674.96405 113.63899 674.942 113.73799 674.9291L113.73799 674.9291L113.83899 674.9161L113.84299 674.9151L117.96299 674.4661L117.63199 670.33014C 117.63199 670.3231 117.44099 667.9401 117.10599 663.70215C 115.93399 648.87213 113.00198 611.42316 110.36499 574.77515C 109.04599 556.4512 107.80099 538.32715 106.88699 523.34015C 106.42999 515.84717 106.05499 509.13916 105.79499 503.59015C 105.53499 498.04715 105.39099 493.64413 105.39199 490.85916C 105.39199 477.51117 105.39199 469.47116 105.39199 464.76917C 105.39199 460.06616 105.39199 458.70618 105.39199 458.70117C 105.39199 456.34317 103.482994 454.43216 101.12799 454.43216C 98.774 454.432 96.865 456.343 96.865 458.701z" stroke="none" fill="#231815" fill-rule="nonzero" />
        <path d="M254.034 579.483C 250.894 622.31494 247.674 670.381 247.674 670.38495L247.674 670.38495L247.4 674.47095L251.46799 674.9149L251.59698 673.72894L251.45999 674.91394L251.46799 674.9149L251.59698 673.72894L251.45999 674.91394C 251.605 674.91895 259.01498 675.84894 266.56998 680.11896C 270.35498 682.248 274.16898 685.17993 277.279 689.194C 280.387 693.21594 282.841 698.31396 283.895 705.087L283.895 705.087L288.10898 704.435L283.84497 704.435L283.84497 709.526C 283.84296 710.073 283.63498 710.53 283.27896 710.894C 282.91595 711.251 282.45996 711.458 281.91296 711.461L281.91296 711.461L206.75797 711.461C 205.76596 711.463 204.93097 710.706 204.83496 709.717L204.83496 709.717L200.59196 710.13696L204.84196 709.79596L188.07 500.227C 187.882 497.87598 185.826 496.124 183.479 496.31198C 181.132 496.49997 179.381 498.55798 179.569 500.909L179.569 500.909L196.344 710.521L196.347 710.555C 196.877 715.916 201.377 719.998 206.757 720L206.757 720L281.912 720C 284.787 720.002 287.43 718.82 289.309 716.931C 291.19498 715.049 292.374 712.40405 292.37198 709.526L292.37198 709.526L292.37198 704.104L292.322 703.781C 291.05 695.492 287.871 688.84 283.827 683.717C 277.75 676.013 269.906 671.748 263.656 669.36395C 257.39 666.983 252.63701 666.457 252.389 666.42694L252.389 666.42694L251.92801 670.67194L256.182 670.9569C 256.182 670.9489 256.383 667.95593 256.734 662.7819C 257.786 647.2619 260.186 612.2039 262.538 580.1079C 262.71 577.7559 260.94598 575.7099 258.597 575.5379C 256.249 575.365 254.206 577.132 254.034 579.483z" stroke="none" fill="#231815" fill-rule="nonzero" />
        <path d="M259.918 450.87C 259.918 450.87 259.918 456.333 259.918 483.029C 259.919 485.085 259.773 487.179 259.541 490.12198C 259.31 493.05997 259.00098 496.80597 258.706 502.07098C 258.573 504.425 260.37198 506.44098 262.724 506.57397C 265.075 506.70596 267.089 504.90497 267.221 502.55197C 267.51 497.38797 267.811 493.75497 268.043 490.78998C 268.274 487.83096 268.445 485.498 268.446 483.029C 268.446 469.681 268.446 461.641 268.446 456.939C 268.446 452.236 268.446 450.876 268.446 450.871C 268.446 448.513 266.53702 446.602 264.182 446.602C 261.828 446.601 259.919 448.512 259.918 450.87z" stroke="none" fill="#231815" fill-rule="nonzero" />
        <path d="M168.663 666.489L164.719 710.137C 164.40599 713.312 161.739 715.732 158.553 715.732L158.553 715.732L83.399 715.732C 79.977005 715.732 77.202 712.953 77.202 709.527L77.202 709.527L77.202 704.436C 81.888 674.099 113.383 666.49 113.383 666.49L113.383 666.49L168.663 666.49L168.663 666.489z" stroke="none" fill="#231815" fill-rule="nonzero" />
        <path d="M196.648 666.489L200.592 710.137C 200.905 713.312 203.57199 715.732 206.758 715.732L206.758 715.732L281.913 715.732C 285.335 715.732 288.109 712.953 288.109 709.527L288.109 709.527L288.109 704.436C 283.424 674.099 251.92902 666.49 251.92902 666.49L251.92902 666.49L196.648 666.49L196.648 666.489z" stroke="none" fill="#231815" fill-rule="nonzero" />
        <path d="M130.058 85.418C 130.605 88.081 130.84 90.821 130.84 93.562C 130.84 98.45599 129.627 103.036995 127.086 107.226C 124.856995 110.946 121.924995 114.157 118.757996 117.093994C 116.176994 119.480995 113.399994 121.674995 110.85899 124.14099C 109.48999 125.47199 107.65299 126.09899 105.89299 124.96199C 104.75899 124.21699 104.24999 123.00399 104.24999 121.67399L104.24999 121.67399L104.24999 97.713C 104.24999 93.562 104.523994 89.451 105.11099 85.418L105.11099 85.418L130.058 85.418z" stroke="none" fill="#231815" fill-rule="nonzero" />
        <path d="M258.432 99.513L258.432 121.047C 258.432 121.752 258.432 122.457 258.198 123.121994C 257.573 124.923996 255.539 125.940994 253.701 125.43099C 252.21501 125.00099 251.08101 123.39499 249.908 122.41699C 243.76901 116.93599 237.12201 111.53399 233.798 103.74099C 231.686 98.88699 231.491 93.56099 232.116 88.31399C 232.234 87.33499 232.39 86.35599 232.586 85.416985L232.586 85.416985L257.612 85.416985C 258.042 88.11899 258.276 90.859985 258.355 93.60098C 258.432 95.56 258.432 97.517 258.432 99.513z" stroke="none" fill="#231815" fill-rule="nonzero" />
        <path d="M214.862 98.845C 210.287 96.789 205.015 96.789 200.44 98.845C 197.179 100.306 196.203 103.676 197.642 104.894C 199.067 106.146996 201.435 105.88699 203.257 105.121994C 206.045 103.868 209.25801 103.868 212.045 105.121994C 213.86299 105.88699 216.234 106.14199 217.66 104.894C 219.099 103.673 218.121 100.309 214.862 98.845z" stroke="none" fill="#231815" fill-rule="nonzero" />
        <path d="M162.219 98.845C 157.64499 96.789 152.372 96.789 147.79799 98.845C 144.536 100.306 143.56099 103.676 144.999 104.894C 146.42499 106.146996 148.79199 105.88699 150.614 105.121994C 153.402 103.868 156.615 103.868 159.403 105.121994C 161.221 105.88699 163.591 106.14199 165.018 104.894C 166.457 103.673 165.479 100.309 162.219 98.845z" stroke="none" fill="#231815" fill-rule="nonzero" />
        <path d="M162.588 125.843C 162.588 121.66901 159.177 118.254005 155.008 118.254005C 150.83899 118.254005 147.428 121.66901 147.428 125.843C 147.428 130.018 150.83899 133.433 155.008 133.433C 159.177 133.434 162.588 130.019 162.588 125.843z" stroke="none" fill="#231815" fill-rule="nonzero" />
        <path d="M207.651 118.255C 203.482 118.255 200.071 121.67 200.071 125.843994C 200.071 130.019 203.482 133.43399 207.651 133.43399C 211.82 133.43399 215.231 130.019 215.231 125.843994C 215.231 121.67 211.82 118.255 207.651 118.255z" stroke="none" fill="#231815" fill-rule="nonzero" />
        <path d="M185.915 153.515C 186.98999 153.515 187.862 152.643 187.862 151.565C 187.862 150.488 186.991 149.617 185.915 149.617L185.915 149.617L180.224 149.617C 178.885 149.617 177.659 148.866 177.048 147.673L177.048 147.673L176.53601 146.67401C 176.09502 145.811 174.796 146.126 174.796 147.09502L174.796 147.09502L174.796 150.90802C 174.796 152.34901 175.962 153.51602 177.40001 153.51602L177.40001 153.51602L185.915 153.51602L185.915 153.515z" stroke="none" fill="#231815" fill-rule="nonzero" />
        <path d="M245.997 147.806C 245.997 155.096 244.097 162.388 240.66199 169.265C 235.51898 179.577 226.902 188.905 216.43799 195.586C 205.97499 202.276 193.71399 206.30899 181.32898 206.304C 173.06998 206.304 164.87299 204.518 157.21999 201.34C 145.73999 196.578 135.50899 188.665 128.23698 179.187C 120.95098 169.705 116.65498 158.73 116.66199 147.805C 116.66199 145.55399 114.83999 143.73 112.59199 143.73C 110.34399 143.73 108.52199 145.554 108.52199 147.805C 108.52199 156.521 110.790985 165.053 114.71599 172.90999C 120.611984 184.69798 130.21199 195.01599 141.84 202.456C 153.47 209.88599 167.17499 214.45 181.329 214.454C 190.762 214.45299 200.004 212.42 208.556 208.86699C 221.385 203.53299 232.688 194.801 240.873 184.15599C 249.045 173.51498 254.129 160.88799 254.136 147.805C 254.136 145.55399 252.314 143.73 250.066 143.73C 247.819 143.731 245.997 145.555 245.997 147.806z" stroke="none" fill="#231815" fill-rule="nonzero" />
        <path d="M113.703 153.959C 108.177 153.957 103.212006 151.728 99.587006 148.104C 95.968 144.474 93.742004 139.503 93.740005 133.97C 93.742004 128.438 95.968 123.466 99.587006 119.836C 103.213005 116.212 108.17801 113.983 113.703 113.980995L113.703 113.980995L113.703 105.83199C 105.955 105.829994 98.90401 108.98799 93.831 114.07399C 88.752 119.15299 85.598 126.21399 85.6 133.971C 85.598 141.72899 88.752 148.78899 93.831 153.868C 98.904 158.954 105.955 162.111 113.703 162.109L113.703 162.109L113.703 153.959z" stroke="none" fill="#231815" fill-rule="nonzero" />
        <path d="M248.955 162.109C 256.703 162.111 263.754 158.95299 268.827 153.868C 273.906 148.788 277.06 141.728 277.05798 133.971C 277.06 126.21399 273.90698 119.15399 268.827 114.07399C 263.755 108.98799 256.703 105.82999 248.956 105.83199L248.956 105.83199L248.95499 105.83199L248.95499 113.981995L248.956 113.981995C 254.48099 113.98399 259.44598 116.213 263.07098 119.837C 266.68997 123.466995 268.916 128.439 268.91797 133.971C 268.91595 139.504 266.68997 144.47499 263.07098 148.105C 259.44598 151.72899 254.48099 153.957 248.95499 153.95999L248.95499 153.95999L248.95398 153.95999L248.95398 162.109L248.955 162.109z" stroke="none" fill="#231815" fill-rule="nonzero" />
        <path d="M197.828 173.493C 196.375 174.401 194.759 174.356 193.965 173.61699C 185.979 177.40099 176.678 177.40099 168.692 173.61699C 167.895 174.35999 166.279 174.39499 164.83 173.493C 163.057 172.39 162.414 170.44899 163.269 169.43399C 164.137 168.34999 165.004 167.26399 165.873 166.18098C 166.728 165.15898 168.347 165.08598 169.569 165.84499C 170.586 166.47699 171.156 167.57298 171.048 168.63599C 177.547 171.71498 185.117 171.71498 191.614 168.63599C 191.505 167.57599 192.078 166.47998 193.091 165.84499C 194.311 165.09099 195.927 165.15698 196.787 166.18098C 197.655 167.26398 198.522 168.34999 199.391 169.43399C 200.244 170.45 199.603 172.394 197.828 173.493z" stroke="none" fill="#231815" fill-rule="nonzero" />
        <path d="M187.143 431.124L187.143 237.058C 187.143 235.22 185.655 233.73 183.819 233.73C 181.983 233.73 180.495 235.22 180.495 237.058L180.495 237.058L180.495 431.124C 180.495 432.962 181.983 434.452 183.819 434.452C 185.655 434.452 187.143 432.962 187.143 431.124" stroke="none" fill="#231815" fill-rule="nonzero" />
        <path d="M109.274 455.735L259.71698 455.735C 262.072 455.735 263.981 453.82397 263.981 451.46597C 263.981 449.10797 262.072 447.19598 259.71698 447.19598L259.71698 447.19598L109.274 447.19598C 106.919 447.19598 105.01 449.107 105.01 451.46597C 105.009 453.823 106.918 455.735 109.274 455.735" stroke="none" fill="#231815" fill-rule="nonzero" />
        <path d="M127.611 315.197L153.078 315.197C 154.546 315.197 155.737 314.005 155.737 312.535C 155.737 311.064 154.546 309.872 153.078 309.872L153.078 309.872L127.61101 309.872C 126.142006 309.872 124.95201 311.064 124.95201 312.535C 124.951 314.005 126.142 315.197 127.611 315.197" stroke="none" fill="#231815" fill-rule="nonzero" />
        <path d="M211.251 315.197L236.71701 315.197C 238.18501 315.197 239.376 314.005 239.376 312.535C 239.376 311.064 238.18501 309.872 236.71701 309.872L236.71701 309.872L211.251 309.872C 209.78201 309.872 208.59201 311.064 208.59201 312.535C 208.592 314.005 209.782 315.197 211.251 315.197" stroke="none" fill="#231815" fill-rule="nonzero" />
        <path d="M130.191 206.191L128.993 236.588L128.993 236.582C 128.986 236.753 128.982 236.927 128.982 237.102C 128.978 240.681 130.47299 243.871 132.77899 246.10501C 135.083 248.34401 138.211 249.69202 141.55699 249.69402C 143.183 249.69502 144.85399 249.37102 146.46599 248.68901L146.46599 248.68901L146.61198 248.62701L182.56299 228.17302C 183.83998 227.44702 184.286 225.82101 183.56099 224.54301C 182.83499 223.264 181.21199 222.81702 179.93599 223.54402L179.93599 223.54402L144.11798 243.92102L145.43198 246.23602L144.39798 243.78302C 143.43597 244.18903 142.48598 244.36803 141.55698 244.36902C 139.65598 244.37102 137.82597 243.59203 136.48398 242.28502C 135.14398 240.97202 134.30399 239.19801 134.29997 237.10202L134.29997 237.10202L134.30597 236.80402L134.30597 236.79802L135.50397 206.40102C 135.56197 204.93202 134.41896 203.69402 132.95197 203.63602C 131.485 203.578 130.249 204.722 130.191 206.191z" stroke="none" fill="#231815" fill-rule="nonzero" />
        <path d="M231.878 206.401L233.07701 236.798L233.08202 237.102C 233.07802 239.198 232.23802 240.972 230.89801 242.285C 229.55501 243.59201 227.725 244.371 225.824 244.369C 224.89601 244.369 223.944 244.18901 222.985 243.784L222.985 243.784L221.951 246.237L223.265 243.922L187.449 223.54399C 186.17201 222.818 184.548 223.26498 183.823 224.54399C 183.097 225.823 183.54399 227.448 184.82199 228.174L184.82199 228.174L220.771 248.627L220.91699 248.689C 222.52899 249.371 224.2 249.69499 225.825 249.694C 229.17099 249.692 232.299 248.344 234.604 246.105C 236.91 243.872 238.405 240.681 238.40201 237.10199C 238.40201 236.93599 238.399 236.76498 238.39201 236.58899L238.39201 236.58899L237.19301 206.191C 237.13501 204.722 235.89801 203.57799 234.43102 203.636C 232.962 203.694 231.82 204.932 231.878 206.401z" stroke="none" fill="#231815" fill-rule="nonzero" />
        <path d="M262.112 85.406L262.112 56.638C 262.112 39.375 252.259 23.630001 236.744 16.100002L236.744 16.100002L223.74901 9.794003C 210.296 3.265 195.717 0 181.141 0C 166.565 0 151.98601 3.265 138.53401 9.794L138.53401 9.794L125.539 16.1C 110.024 23.630001 100.171005 39.375 100.171005 56.638L100.171005 56.638L100.171005 85.406C 100.171005 87.657 101.993004 89.480995 104.241005 89.480995C 106.489006 89.480995 108.311005 87.656 108.311005 85.406L108.311005 85.406L108.311005 56.638C 108.311005 42.499 116.382 29.601 129.089 23.434002L129.089 23.434002L142.084 17.128002C 154.41699 11.142002 167.77701 8.1500025 181.14099 8.1500025C 194.504 8.1500025 207.86499 11.142002 220.19899 17.128002L220.19899 17.128002L233.19398 23.434002C 245.90198 29.601002 253.97299 42.499 253.97299 56.638L253.97299 56.638L253.97299 85.406C 253.97299 87.657 255.795 89.480995 258.043 89.480995C 260.291 89.481 262.113 87.657 262.112 85.406z" stroke="none" fill="#231815" fill-rule="nonzero" />
        <path d="M105.11 89.493L258.043 89.493C 260.291 89.493 262.113 87.669 262.113 85.418C 262.113 83.167 260.29102 81.343 258.043 81.343L258.043 81.343L105.11 81.343C 102.862 81.343 101.04 83.167 101.04 85.418C 101.04 87.669 102.862 89.493 105.11 89.493" stroke="none" fill="#231815" fill-rule="nonzero" />
        <path d="M106.824 78.698L143.01599 70.181C 155.769 67.18 168.78 65.68 181.79099 65.679C 195.27798 65.679 208.762 67.291 221.956 70.515L221.956 70.515L255.433 78.692C 257.216 79.128 259.01498 78.033005 259.45 76.248C 259.885 74.462 258.79202 72.662 257.009 72.226L257.009 72.226L223.532 64.048996C 209.821 60.698997 195.80699 59.022995 181.791 59.023994C 168.27 59.023994 154.748 60.581993 141.495 63.701996L141.495 63.701996L105.30299 72.218994C 103.51599 72.63999 102.407 74.43099 102.827995 76.22099C 103.248 78.01 105.037 79.119 106.824 78.698z" stroke="none" fill="#231815" fill-rule="nonzero" />
        <path d="M295.504 500.937L295.504 496.667L266.015 496.667L234.106 524.258L234.106 583.7L281.553 583.7L329 583.7L329 524.258L297.09 496.667L295.504 496.667L295.504 500.937L292.717 504.168L320.471 528.166L320.471 575.159L281.553 575.16L242.634 575.16L242.634 528.166L269.188 505.205L295.504 505.206L295.504 500.937L292.717 504.168L295.504 500.937" stroke="none" fill="#231815" fill-rule="nonzero" />
        <path d="M238.032 539.976L321.39 539.976C 322.858 539.976 324.049 538.784 324.049 537.314C 324.049 535.843 322.858 534.651 321.39 534.651L321.39 534.651L238.03201 534.651C 236.56302 534.651 235.37302 535.843 235.37302 537.314C 235.372 538.783 236.563 539.976 238.032 539.976" stroke="none" fill="#231815" fill-rule="nonzero" />
        <path d="M276.416 464.849L276.416 498.493C 276.416 500.851 278.32498 502.76202 280.68 502.76202C 283.035 502.76202 284.944 500.85004 284.944 498.493L284.944 498.493L284.944 464.849C 284.944 462.491 283.035 460.579 280.68 460.579C 278.325 460.579 276.416 462.491 276.416 464.849" stroke="none" fill="#231815" fill-rule="nonzero" />
        <path d="M20.879 353.149C 20.75 356.483 20.64 358.64697 20.549 360.819C 20.515 361.63 20.498 362.421 20.498 363.195C 20.497 369.394 21.567 374.38602 23.418 378.367C 24.800999 381.349 26.627998 383.734 28.637999 385.551C 31.656998 388.28598 35.017 389.723 37.880997 390.47C 40.749996 391.218 43.184 391.305 44.521996 391.306C 45.709995 391.305 47.768997 391.236 50.221996 390.696C 52.063995 390.29 54.142998 389.617 56.249996 388.483C 59.407997 386.795 62.616997 383.997 64.896996 379.808C 67.188995 375.622 68.547 370.16702 68.545 363.196C 68.545 362.423 68.529 361.631 68.494995 360.821C 68.41599 358.92 68.322 357.203 68.215 354.43903C 68.12299 352.08304 66.141 350.24704 63.787994 350.33902C 61.434994 350.43002 59.600994 352.415 59.692993 354.77103C 59.801994 357.59204 59.897995 359.35004 59.97399 361.17303C 60.00199 361.87003 60.01599 362.54404 60.01599 363.19604C 60.01499 368.42606 59.117992 372.12906 57.89299 374.76205C 56.96999 376.74106 55.86599 378.14404 54.68199 379.22006C 52.91199 380.82507 50.89299 381.71405 49.00899 382.20706C 47.12999 382.69907 45.44699 382.76807 44.52199 382.76605C 43.69799 382.76706 42.27999 382.71405 40.650993 382.35504C 39.430992 382.08704 38.107994 381.65005 36.832993 380.96204C 34.91899 379.91702 33.101994 378.38104 31.623993 375.70303C 30.157993 373.02304 29.027992 369.08102 29.024994 363.19403C 29.024994 362.54602 29.038994 361.87204 29.067993 361.17303C 29.155993 359.06003 29.267994 356.85904 29.398993 353.47903C 29.489992 351.12305 27.655993 349.13904 25.302992 349.04803C 22.952 348.957 20.97 350.793 20.879 353.149zM64.923 262.161C 64.907 261.72702 64.891 261.41202 64.870995 261.144C 64.840996 260.733 64.80499 260.474 64.798 260.38202C 64.787994 260.277 64.771996 260.10602 64.753 259.56903C 64.521996 253.15303 64.308 247.16203 64.118 241.86203L64.118 241.86203L64.118 241.85803C 64.112 241.68503 64.107994 241.52103 64.107994 241.36504C 64.106995 236.78604 66.379 232.48303 70.202995 229.75604C 81.571 221.66005 89.04199 208.32704 89.04399 193.31804C 89.04499 185.27603 86.89299 177.69104 83.14499 171.15704C 79.39699 164.62105 74.05899 159.12305 67.65899 155.18805C 66.64399 154.55905 65.46399 154.23904 64.33699 154.24304C 62.65899 154.24805 61.11199 154.89404 59.93899 156.01305C 58.762993 157.11905 57.97499 158.81204 57.985992 160.60405L57.985992 160.60405L57.985992 188.09006L57.977993 188.10706L57.98099 188.10506L44.51999 195.90605L44.521988 195.91205L44.521988 195.90704L44.51899 195.90704L44.521988 195.91205L44.521988 195.90704L44.521988 195.92105L44.528988 195.90906L44.521988 195.90706L44.521988 195.92107L44.528988 195.90907L44.524986 195.90707L31.063986 188.10608L31.058987 188.09108L31.058987 160.60507C 31.069986 158.81207 30.280987 157.11908 29.105988 156.01407C 27.933987 154.89607 26.386988 154.24907 24.707989 154.24406C 23.587988 154.24007 22.39799 154.55707 21.371988 155.19806L21.371988 155.19806L21.385988 155.19006C 14.985989 159.12407 9.647988 164.62306 5.899988 171.15906C 2.1519883 177.69305 -1.1920929E-05 185.27806 0.0009880066 193.32005C 0.0029880067 208.32805 7.472988 221.66205 18.840988 229.75705C 22.663988 232.48605 24.936989 236.78905 24.935987 241.36705C 24.935987 241.52805 24.932987 241.69604 24.926987 241.87605L24.926987 241.87605L24.926987 241.86505C 24.761986 246.45805 24.578987 251.56805 24.382986 257.02304C 24.341986 258.16003 24.303986 258.74103 24.259987 259.41904C 24.215986 260.09802 24.166986 260.86703 24.121986 262.14505C 24.036987 264.50104 25.876986 266.48004 28.229986 266.56506C 30.582987 266.65005 32.559986 264.80807 32.644985 262.45105C 32.687984 261.25406 32.726986 260.64304 32.770985 259.97006C 32.814983 259.29605 32.861984 258.55408 32.905983 257.32907C 33.101982 251.87308 33.284985 246.76308 33.44998 242.17107L33.44998 242.17107L33.44998 242.16006C 33.45798 241.90306 33.46398 241.63806 33.46398 241.36707C 33.462982 233.93106 29.771982 227.06207 23.78498 222.80006C 14.560981 216.22206 8.52698 205.44606 8.528981 193.32007C 8.529982 186.80507 10.262981 180.70407 13.295981 175.41006C 16.327982 170.11906 20.665981 165.65106 25.846981 162.46707L25.846981 162.46707L25.860981 162.45908L24.707981 160.59407L24.707981 162.78407C 25.095982 162.78807 25.533981 162.66608 25.860981 162.45908L25.860981 162.45908L24.707981 160.59407L24.707981 162.78407L24.707981 160.61908L23.21198 162.18608C 23.61198 162.56508 24.11498 162.77908 24.707981 162.78409L24.707981 162.78409L24.707981 160.6191L23.21198 162.1861L24.720982 160.6061L22.530981 160.6061C 22.519981 161.1731 22.80898 161.8201 23.21198 162.1861L23.21198 162.1861L24.720982 160.6061L22.530981 160.6061L22.530981 188.0921C 22.530981 191.1421 24.151981 193.9651 26.789982 195.49611L26.789982 195.49611L40.252983 203.2991L40.24898 203.2971C 41.56798 204.06311 43.04698 204.4491 44.52198 204.4481C 45.99598 204.4481 47.47498 204.06311 48.79298 203.29811L48.79298 203.29811L62.25298 195.49712L62.255978 195.49512C 64.891975 193.96411 66.51398 191.14311 66.51398 188.09212L66.51398 188.09212L66.51398 160.60611L64.323975 160.60611L65.83298 162.18611C 66.23698 161.8191 66.52498 161.17111 66.51398 160.60611L66.51398 160.60611L64.323975 160.60611L65.83298 162.18611L64.336975 160.62012L64.336975 162.78412C 64.92798 162.77911 65.43198 162.56512 65.83298 162.18611L65.83298 162.18611L64.336975 160.62012L64.336975 162.78412L64.336975 160.60812L63.195976 162.46613C 63.51198 162.66412 63.939976 162.78813 64.336975 162.78412L64.336975 162.78412L64.336975 160.60812L63.195976 162.46613C 68.377975 165.65013 72.71597 170.11913 75.74798 175.41013C 78.780975 180.70312 80.51398 186.80412 80.51498 193.32013C 80.516975 205.44614 74.48198 216.22214 65.25898 222.80013C 59.268982 227.06113 55.57998 233.93112 55.57898 241.36713C 55.57898 241.64313 55.58498 241.91313 55.59498 242.17513L55.59498 242.17513L55.59498 242.17113C 55.784977 247.47212 55.999977 253.46313 56.229977 259.87912C 56.244976 260.30112 56.260975 260.6101 56.280975 260.87512C 56.294975 261.0721 56.311974 261.2441 56.325974 261.37012C 56.346973 261.56613 56.352974 261.6061 56.362972 261.72513C 56.37197 261.84412 56.38597 262.06213 56.40097 262.47513C 56.48597 264.83112 58.46297 266.67212 60.81697 266.58713C 63.17 266.498 65.008 264.518 64.923 262.161z" stroke="none" fill="#231815" fill-rule="nonzero" />
        <path d="M58.652 379.166C 60.068 382.40298 62.107002 385.102 64.498 387.231C 68.094 390.435 72.408005 392.37698 76.781 393.542C 81.162994 394.705 85.645 395.10498 89.793 395.108C 93.935 395.107 97.741 394.703 100.79 394.17902C 103.111 393.78003 104.669 391.57202 104.271 389.24902C 103.872 386.92502 101.66701 385.36502 99.347 385.76404C 96.75 386.21103 93.374 386.57004 89.794 386.56903C 85.007996 386.57703 79.859 385.91302 75.67 384.19202C 73.571 383.33603 71.714 382.233 70.173 380.85703C 68.631 379.476 67.384995 377.83304 66.461 375.73404C 65.514 373.57504 62.999 372.59305 60.843 373.54105C 58.686 374.489 57.705 377.007 58.652 379.166z" stroke="none" fill="#231815" fill-rule="nonzero" />
	</g>
</g>
</svg>