<?xml version="1.0" encoding="UTF-8"?>
<svg xmlns="http://www.w3.org/2000/svg" xmlns:xlink="http://www.w3.org/1999/xlink" width="108px" height="150px" viewBox="0 0 108 150" version="1.1">
<g id="surface1">
<path style=" stroke:none;fill-rule:nonzero;fill:rgb(47.058824%,68.627451%,60.784314%);fill-opacity:1;" d="M 40.878906 136.367188 C 40.878906 139.550781 38.820312 142.316406 35.820312 143.660156 C 34.566406 144.253906 33.136719 144.574219 31.621094 144.574219 C 28.328125 144.574219 25.4375 143.050781 23.796875 140.753906 C 22.878906 139.480469 22.351562 137.972656 22.351562 136.367188 C 22.351562 134.84375 22.824219 133.417969 23.660156 132.203125 C 23.6875 132.144531 23.714844 132.105469 23.753906 132.046875 L 22.867188 132.046875 L 22.867188 103.972656 L 35.609375 103.972656 L 35.609375 128.976562 C 35.75 129.03125 35.886719 129.101562 36.011719 129.15625 C 38.90625 130.539062 40.878906 133.238281 40.878906 136.367188 Z M 40.878906 136.367188 "/>
<path style=" stroke:none;fill-rule:nonzero;fill:rgb(47.058824%,68.627451%,60.784314%);fill-opacity:1;" d="M 106.480469 105.253906 C 106.480469 118.039062 106.480469 120.808594 106.480469 120.808594 L 106.480469 150 L 36.351562 150 L 36.269531 144.757812 L 36.246094 143.445312 L 36.230469 142.0625 L 36.023438 129.160156 L 36.019531 128.839844 L 35.734375 111.136719 C 35.734375 111.136719 35.691406 111.160156 35.609375 111.203125 C 35.414062 111.308594 34.996094 111.519531 34.429688 111.757812 C 33.050781 112.351562 30.800781 113.121094 28.679688 112.976562 C 28.085938 112.941406 27.503906 112.832031 26.953125 112.625 C 26.691406 112.527344 26.441406 112.410156 26.195312 112.261719 C 25.367188 111.78125 24.652344 111.011719 24.152344 109.859375 C 23.960938 109.4375 23.804688 108.96875 23.683594 108.4375 C 23.621094 108.191406 23.570312 107.9375 23.535156 107.667969 C 23.472656 107.300781 23.429688 106.910156 23.398438 106.488281 C 23.382812 106.300781 23.371094 106.101562 23.367188 105.902344 C 23.359375 105.691406 23.355469 105.476562 23.355469 105.253906 C 23.355469 104.820312 23.359375 104.390625 23.382812 103.96875 C 23.421875 102.757812 23.523438 101.582031 23.683594 100.453125 C 23.710938 100.253906 23.738281 100.054688 23.765625 99.855469 C 23.871094 99.203125 23.996094 98.5625 24.132812 97.9375 C 25.046875 93.773438 26.703125 90.175781 28.746094 87.140625 C 28.746094 87.140625 29.429688 86.382812 30.382812 85.339844 C 30.472656 85.238281 30.558594 85.140625 30.648438 85.042969 C 32.460938 83.058594 35.050781 80.261719 35.945312 79.5 C 37.648438 78.042969 39.421875 76.957031 41.105469 76.183594 C 42.363281 75.601562 43.558594 75.207031 44.636719 74.953125 C 46.84375 73.941406 49.417969 72.90625 49.417969 72.90625 L 52.773438 70.277344 C 56.453125 67.398438 60.207031 67.503906 64.347656 68.246094 L 64.503906 68.183594 L 64.988281 68.355469 C 68.453125 69.015625 72.191406 70.027344 76.394531 70.066406 L 82.667969 73.105469 L 82.671875 73.105469 L 87.164062 75.285156 L 86.964844 75.5625 C 94.742188 78.496094 106.480469 88.300781 106.480469 105.253906 Z M 106.480469 105.253906 "/>
<path style=" stroke:none;fill-rule:nonzero;fill:rgb(35.686275%,57.254902%,62.745098%);fill-opacity:1;" d="M 105.53125 133.117188 L 105.214844 150 L 93.453125 150 C 93.3125 139.328125 93.066406 121.113281 92.914062 108.78125 C 92.914062 108.570312 92.90625 108.359375 92.90625 108.148438 C 92.816406 100.96875 91.4375 93.878906 88.835938 87.179688 L 84.644531 76.402344 L 84.085938 74.953125 C 84.085938 74.953125 98.347656 81.386719 102.179688 90.445312 C 102.753906 91.804688 103.230469 93.710938 103.628906 95.976562 C 103.636719 95.980469 103.636719 95.980469 103.628906 95.988281 C 104.257812 99.574219 104.679688 104.0625 104.96875 108.65625 C 105.710938 120.515625 105.53125 133.117188 105.53125 133.117188 Z M 105.53125 133.117188 "/>
<path style=" stroke:none;fill-rule:nonzero;fill:rgb(35.686275%,57.254902%,62.745098%);fill-opacity:1;" d="M 45.101562 74.953125 L 40.351562 87.1875 C 37.75 93.882812 36.375 100.96875 36.277344 108.152344 C 36.207031 114.183594 36.109375 121.738281 36.011719 129.15625 C 35.945312 134.234375 35.875 139.246094 35.820312 143.660156 C 34.566406 144.253906 33.136719 144.574219 31.621094 144.574219 C 28.328125 144.574219 25.4375 143.050781 23.796875 140.753906 L 23.660156 133.113281 C 23.660156 133.113281 23.660156 132.796875 23.660156 132.199219 C 23.644531 132.144531 23.644531 132.105469 23.660156 132.046875 C 23.617188 128.230469 23.601562 114.929688 24.574219 103.972656 C 25.074219 98.269531 25.839844 93.21875 27.007812 90.453125 C 30.84375 81.386719 45.101562 74.953125 45.101562 74.953125 Z M 45.101562 74.953125 "/>
<path style=" stroke:none;fill-rule:nonzero;fill:rgb(100%,84.313725%,77.254902%);fill-opacity:1;" d="M 97.480469 52.523438 C 97.480469 54.859375 96.523438 56.992188 94.980469 58.527344 C 93.4375 60.0625 91.296875 61.019531 88.949219 61.019531 L 88.542969 61.019531 C 86.390625 70.914062 75.746094 79.519531 64.515625 79.519531 C 53.285156 79.519531 42.640625 70.914062 40.484375 61.019531 C 38.207031 60.921875 36.175781 59.925781 34.703125 58.402344 C 33.230469 56.878906 32.328125 54.804688 32.328125 52.523438 C 32.328125 49.199219 34.246094 46.308594 37.054688 44.925781 C 37.96875 44.453125 39 44.148438 40.082031 44.054688 L 40.082031 41.507812 C 40.082031 39.570312 40.429688 37.632812 41.082031 35.777344 L 87.945312 35.777344 C 88.601562 37.632812 88.949219 39.570312 88.949219 41.507812 L 88.949219 44.011719 C 89.976562 44.011719 90.949219 44.191406 91.851562 44.523438 C 93.046875 44.953125 94.105469 45.628906 94.980469 46.503906 C 96.523438 48.039062 97.480469 50.167969 97.480469 52.523438 Z M 97.480469 52.523438 "/>
<path style=" stroke:none;fill-rule:nonzero;fill:rgb(93.333333%,93.333333%,93.72549%);fill-opacity:1;" d="M 23.253906 61.722656 C 22.761719 61.421875 22.125 61.773438 22.125 62.351562 L 22.125 72.066406 C 22.125 72.605469 21.835938 73.105469 21.367188 73.375 L 16.582031 76.136719 C 16.113281 76.40625 15.535156 76.40625 15.066406 76.136719 L 10.28125 73.375 C 9.8125 73.105469 9.523438 72.605469 9.523438 72.066406 L 9.523438 62.351562 C 9.523438 61.773438 8.886719 61.421875 8.394531 61.722656 C 4.277344 64.238281 1.515625 68.769531 1.515625 73.914062 C 1.515625 78.707031 3.914062 82.96875 7.574219 85.5625 C 9.382812 86.84375 10.453125 88.914062 10.375 91.125 C 9.925781 103.574219 9.082031 126.804688 8.816406 133.175781 C 8.449219 142.011719 14.347656 142.378906 15.824219 142.378906 C 17.300781 142.378906 23.199219 142.011719 22.828125 133.175781 C 22.5625 126.804688 21.722656 103.574219 21.273438 91.125 C 21.195312 88.914062 22.265625 86.84375 24.074219 85.5625 C 27.734375 82.96875 30.132812 78.707031 30.132812 73.914062 C 30.132812 68.769531 27.371094 64.238281 23.253906 61.722656 Z M 23.253906 61.722656 "/>
<path style=" stroke:none;fill-rule:nonzero;fill:rgb(100%,99.607843%,100%);fill-opacity:1;" d="M 92.472656 35.773438 L 92.472656 29.953125 C 93.042969 10.742188 72.679688 4.945312 66.019531 4.945312 L 63.5 4.945312 C 56.84375 4.945312 36.476562 10.742188 37.050781 29.953125 L 37.359375 35.777344 Z M 92.472656 35.773438 "/>
<path style=" stroke:none;fill-rule:nonzero;fill:rgb(100%,99.607843%,100%);fill-opacity:1;" d="M 67.042969 1.441406 L 62.382812 1.441406 C 60.964844 1.441406 59.816406 2.582031 59.816406 3.992188 L 59.816406 14.304688 L 69.609375 14.304688 L 69.609375 3.992188 C 69.609375 2.582031 68.460938 1.441406 67.042969 1.441406 Z M 67.042969 1.441406 "/>
<path style=" stroke:none;fill-rule:nonzero;fill:rgb(100%,84.313725%,77.254902%);fill-opacity:1;" d="M 23.09375 122.890625 L 21.601562 122.890625 L 21.632812 122.332031 L 23.09375 122.332031 C 24.988281 122.332031 26.535156 120.789062 26.535156 118.902344 C 26.535156 117.015625 24.988281 115.472656 23.09375 115.472656 L 22.039062 115.472656 L 22.101562 114.40625 L 22.53125 114.40625 C 24.425781 114.40625 27.820312 112.863281 27.820312 110.976562 C 27.820312 109.089844 24.425781 107.546875 22.53125 107.546875 L 22.503906 107.546875 L 22.566406 106.476562 C 23.375 106.46875 24.871094 106.605469 25.457031 106.128906 C 26.230469 105.5 25.972656 104.117188 25.972656 103.050781 C 25.972656 101.164062 24.425781 99.621094 22.53125 99.621094 L 9.296875 99.621094 C 7.402344 100.550781 5.535156 102.496094 5.535156 105.792969 L 5.535156 118.242188 C 5.617188 123.5625 5.960938 127.234375 7.171875 129.792969 C 7.644531 130.117188 8.1875 130.3125 8.761719 130.3125 L 23.09375 129.75 C 24.988281 129.75 26.535156 128.207031 26.535156 126.320312 C 26.535156 124.433594 24.988281 122.890625 23.09375 122.890625 Z M 23.09375 122.890625 "/>
<path style=" stroke:none;fill-rule:nonzero;fill:rgb(13.72549%,9.411765%,8.235294%);fill-opacity:1;" d="M 18.304688 116.054688 L 23.996094 116.054688 C 25.398438 116.054688 26.679688 115.480469 27.597656 114.5625 C 28.519531 113.648438 29.09375 112.375 29.09375 110.976562 C 29.09375 109.578125 28.519531 108.304688 27.597656 107.390625 C 26.679688 106.472656 25.398438 105.898438 23.996094 105.898438 L 18.304688 105.898438 C 17.601562 105.898438 17.03125 106.464844 17.03125 107.167969 C 17.03125 107.867188 17.601562 108.433594 18.304688 108.433594 L 23.996094 108.433594 C 24.695312 108.433594 25.328125 108.71875 25.796875 109.183594 C 26.261719 109.648438 26.546875 110.277344 26.546875 110.976562 C 26.546875 111.675781 26.261719 112.304688 25.796875 112.769531 C 25.328125 113.234375 24.695312 113.519531 23.996094 113.519531 L 18.304688 113.519531 C 17.601562 113.519531 17.03125 114.085938 17.03125 114.785156 C 17.03125 115.484375 17.601562 116.054688 18.304688 116.054688 Z M 18.304688 116.054688 "/>
<path style=" stroke:none;fill-rule:nonzero;fill:rgb(13.72549%,9.411765%,8.235294%);fill-opacity:1;" d="M 24.925781 123.929688 C 25.535156 124.976562 25.742188 125.820312 25.742188 126.46875 C 25.742188 126.929688 25.644531 127.308594 25.476562 127.640625 C 25.230469 128.136719 24.808594 128.550781 24.261719 128.855469 C 23.722656 129.160156 23.066406 129.335938 22.457031 129.359375 L 22.503906 130.625 L 22.503906 129.359375 L 10.960938 129.359375 C 9.675781 129.355469 8.527344 128.84375 7.683594 128.007812 C 6.84375 127.167969 6.328125 126.023438 6.328125 124.746094 L 6.328125 104.828125 C 6.328125 103.546875 6.84375 102.402344 7.683594 101.566406 C 8.527344 100.726562 9.675781 100.214844 10.960938 100.214844 L 22.503906 100.214844 L 22.503906 98.945312 L 22.457031 100.214844 C 23.273438 100.238281 24.160156 100.550781 24.765625 101.054688 C 25.070312 101.304688 25.308594 101.597656 25.476562 101.929688 C 25.644531 102.265625 25.742188 102.640625 25.742188 103.101562 C 25.742188 103.75 25.535156 104.59375 24.925781 105.640625 C 24.574219 106.246094 24.78125 107.023438 25.386719 107.375 C 25.996094 107.726562 26.777344 107.519531 27.128906 106.914062 C 27.910156 105.574219 28.289062 104.292969 28.289062 103.101562 C 28.289062 102.261719 28.097656 101.476562 27.753906 100.796875 C 27.242188 99.777344 26.425781 99.015625 25.507812 98.503906 C 24.589844 97.992188 23.566406 97.71875 22.546875 97.679688 L 10.960938 97.679688 C 6.996094 97.679688 3.78125 100.878906 3.78125 104.828125 L 3.78125 124.746094 C 3.78125 128.695312 6.996094 131.894531 10.960938 131.894531 L 22.550781 131.894531 C 23.90625 131.839844 25.277344 131.375 26.382812 130.472656 C 26.9375 130.019531 27.414062 129.453125 27.753906 128.773438 C 28.097656 128.09375 28.289062 127.308594 28.289062 126.46875 C 28.289062 125.277344 27.910156 123.996094 27.128906 122.65625 C 26.777344 122.050781 25.996094 121.84375 25.386719 122.199219 C 24.78125 122.550781 24.574219 123.324219 24.925781 123.929688 Z M 24.925781 123.929688 "/>
<path style=" stroke:none;fill-rule:nonzero;fill:rgb(13.72549%,9.411765%,8.235294%);fill-opacity:1;" d="M 18.304688 116.054688 L 23.996094 116.054688 C 24.695312 116.054688 25.328125 116.335938 25.796875 116.800781 C 26.261719 117.269531 26.546875 117.898438 26.546875 118.59375 C 26.546875 119.292969 26.261719 119.921875 25.796875 120.390625 C 25.328125 120.855469 24.695312 121.136719 23.996094 121.136719 L 18.304688 121.136719 C 17.601562 121.136719 17.03125 121.703125 17.03125 122.40625 C 17.03125 123.105469 17.601562 123.671875 18.304688 123.671875 L 23.996094 123.671875 C 25.398438 123.671875 26.679688 123.097656 27.597656 122.183594 C 28.519531 121.269531 29.09375 119.992188 29.09375 118.59375 C 29.09375 117.199219 28.519531 115.921875 27.597656 115.007812 C 26.679688 114.09375 25.398438 113.519531 23.996094 113.519531 L 18.304688 113.519531 C 17.601562 113.519531 17.03125 114.085938 17.03125 114.785156 C 17.03125 115.488281 17.601562 116.054688 18.304688 116.054688 Z M 18.304688 116.054688 "/>
<path style=" stroke:none;fill-rule:nonzero;fill:rgb(13.72549%,9.411765%,8.235294%);fill-opacity:1;" d="M 36.867188 80.695312 C 38.902344 79.136719 40.953125 77.980469 42.765625 77.222656 C 43.675781 76.84375 44.523438 76.5625 45.273438 76.382812 C 46.023438 76.199219 46.675781 76.121094 47.167969 76.121094 C 48.003906 76.121094 48.683594 75.445312 48.683594 74.613281 C 48.683594 73.777344 48.003906 73.101562 47.167969 73.101562 C 46.359375 73.105469 45.492188 73.226562 44.558594 73.449219 C 41.773438 74.125 38.382812 75.734375 35.019531 78.300781 C 34.355469 78.808594 34.230469 79.757812 34.742188 80.417969 C 35.25 81.078125 36.203125 81.203125 36.867188 80.695312 Z M 36.867188 80.695312 "/>
<path style=" stroke:none;fill-rule:nonzero;fill:rgb(13.72549%,9.411765%,8.235294%);fill-opacity:1;" d="M 25.691406 98.042969 C 26.597656 94.195312 28.167969 90.855469 30.023438 87.949219 C 30.257812 87.578125 30.679688 87.019531 31.195312 86.402344 C 31.96875 85.472656 32.957031 84.390625 33.929688 83.402344 C 34.898438 82.417969 35.859375 81.519531 36.539062 80.972656 C 37.191406 80.449219 37.292969 79.5 36.769531 78.851562 C 36.242188 78.203125 35.289062 78.101562 34.636719 78.625 C 34.078125 79.074219 33.445312 79.644531 32.777344 80.285156 C 31.78125 81.25 30.707031 82.367188 29.761719 83.433594 C 29.285156 83.96875 28.84375 84.488281 28.457031 84.976562 C 28.066406 85.464844 27.734375 85.914062 27.464844 86.332031 C 25.460938 89.46875 23.734375 93.128906 22.742188 97.355469 C 22.550781 98.167969 23.058594 98.980469 23.871094 99.167969 C 24.6875 99.359375 25.503906 98.855469 25.695312 98.042969 Z M 25.691406 98.042969 "/>
<path style=" stroke:none;fill-rule:nonzero;fill:rgb(13.72549%,9.411765%,8.235294%);fill-opacity:1;" d="M 37.460938 109.929688 L 37.460938 150 L 34.429688 150 L 34.429688 109.929688 C 34.429688 109.21875 34.933594 108.613281 35.609375 108.457031 C 35.714844 108.4375 35.824219 108.425781 35.941406 108.425781 C 36.054688 108.425781 36.164062 108.4375 36.269531 108.457031 C 36.953125 108.609375 37.460938 109.210938 37.460938 109.929688 Z M 37.460938 109.929688 "/>
<path style=" stroke:none;fill-rule:nonzero;fill:rgb(13.72549%,9.411765%,8.235294%);fill-opacity:1;" d="M 95.414062 109.929688 L 95.414062 150 L 92.378906 150 L 92.378906 109.929688 C 92.378906 109.472656 92.585938 109.0625 92.914062 108.78125 C 93.171875 108.558594 93.519531 108.425781 93.894531 108.425781 C 94.734375 108.425781 95.414062 109.101562 95.414062 109.929688 Z M 95.414062 109.929688 "/>
<path style=" stroke:none;fill-rule:nonzero;fill:rgb(13.72549%,9.411765%,8.235294%);fill-opacity:1;" d="M 108 105.253906 C 108 118.039062 108 120.808594 108 120.808594 L 108 150 L 104.96875 150 L 104.96875 120.808594 C 104.96875 120.808594 104.96875 118.542969 104.96875 108.65625 L 104.96875 105.253906 C 104.964844 101.855469 104.476562 98.773438 103.628906 95.988281 C 103.636719 95.980469 103.636719 95.980469 103.628906 95.976562 C 102.867188 93.464844 101.824219 91.195312 100.589844 89.15625 C 97.988281 84.867188 94.542969 81.628906 91.226562 79.460938 C 89.027344 78.007812 86.875 77.035156 85.140625 76.53125 C 84.96875 76.480469 84.808594 76.4375 84.644531 76.402344 C 83.863281 76.210938 83.183594 76.121094 82.671875 76.121094 C 81.832031 76.121094 81.15625 75.445312 81.15625 74.609375 C 81.15625 73.78125 81.828125 73.109375 82.667969 73.105469 L 82.671875 73.105469 C 84.179688 73.109375 85.917969 73.515625 87.84375 74.273438 C 89.761719 75.035156 91.851562 76.160156 93.945312 77.65625 C 98.128906 80.644531 102.347656 85.132812 105.058594 91.167969 C 106.871094 95.191406 108 99.902344 108 105.253906 Z M 108 105.253906 "/>
<path style=" stroke:none;fill-rule:nonzero;fill:rgb(13.72549%,9.411765%,8.235294%);fill-opacity:1;" d="M 46.226562 35.777344 C 46.417969 36.71875 46.503906 37.6875 46.503906 38.65625 C 46.503906 40.386719 46.074219 42.003906 45.167969 43.484375 C 44.375 44.800781 43.335938 45.933594 42.207031 46.972656 C 41.292969 47.816406 40.304688 48.59375 39.402344 49.464844 C 38.914062 49.933594 38.261719 50.15625 37.636719 49.753906 C 37.234375 49.492188 37.050781 49.0625 37.050781 48.59375 L 37.050781 40.125 C 37.050781 38.65625 37.148438 37.203125 37.359375 35.777344 Z M 46.226562 35.777344 "/>
<path style=" stroke:none;fill-rule:nonzero;fill:rgb(13.72549%,9.411765%,8.235294%);fill-opacity:1;" d="M 91.851562 40.757812 L 91.851562 48.371094 C 91.851562 48.621094 91.851562 48.867188 91.769531 49.105469 C 91.546875 49.742188 90.824219 50.101562 90.171875 49.921875 C 89.640625 49.769531 89.238281 49.199219 88.824219 48.855469 C 86.640625 46.917969 84.277344 45.007812 83.097656 42.253906 C 82.347656 40.539062 82.277344 38.65625 82.5 36.800781 C 82.539062 36.457031 82.597656 36.109375 82.667969 35.777344 L 91.5625 35.777344 C 91.714844 36.734375 91.796875 37.703125 91.824219 38.671875 C 91.851562 39.363281 91.851562 40.054688 91.851562 40.757812 Z M 91.851562 40.757812 "/>
<path style=" stroke:none;fill-rule:nonzero;fill:rgb(13.72549%,9.411765%,8.235294%);fill-opacity:1;" d="M 76.367188 40.523438 C 74.742188 39.796875 72.867188 39.796875 71.242188 40.523438 C 70.082031 41.039062 69.734375 42.230469 70.246094 42.660156 C 70.753906 43.105469 71.59375 43.011719 72.242188 42.742188 C 73.234375 42.296875 74.375 42.296875 75.367188 42.742188 C 76.011719 43.011719 76.855469 43.101562 77.359375 42.660156 C 77.871094 42.230469 77.523438 41.039062 76.367188 40.523438 Z M 76.367188 40.523438 "/>
<path style=" stroke:none;fill-rule:nonzero;fill:rgb(13.72549%,9.411765%,8.235294%);fill-opacity:1;" d="M 57.65625 40.523438 C 56.03125 39.796875 54.15625 39.796875 52.53125 40.523438 C 51.371094 41.039062 51.023438 42.230469 51.535156 42.660156 C 52.042969 43.105469 52.882812 43.011719 53.53125 42.742188 C 54.523438 42.296875 55.664062 42.296875 56.65625 42.742188 C 57.300781 43.011719 58.144531 43.101562 58.652344 42.660156 C 59.164062 42.230469 58.816406 41.039062 57.65625 40.523438 Z M 57.65625 40.523438 "/>
<path style=" stroke:none;fill-rule:nonzero;fill:rgb(13.72549%,9.411765%,8.235294%);fill-opacity:1;" d="M 57.789062 50.066406 C 57.789062 48.589844 56.574219 47.382812 55.09375 47.382812 C 53.613281 47.382812 52.398438 48.589844 52.398438 50.066406 C 52.398438 51.542969 53.613281 52.75 55.09375 52.75 C 56.574219 52.75 57.789062 51.542969 57.789062 50.066406 Z M 57.789062 50.066406 "/>
<path style=" stroke:none;fill-rule:nonzero;fill:rgb(13.72549%,9.411765%,8.235294%);fill-opacity:1;" d="M 73.804688 47.382812 C 72.320312 47.382812 71.109375 48.589844 71.109375 50.066406 C 71.109375 51.542969 72.320312 52.75 73.804688 52.75 C 75.285156 52.75 76.496094 51.542969 76.496094 50.066406 C 76.496094 48.589844 75.285156 47.382812 73.804688 47.382812 Z M 73.804688 47.382812 "/>
<path style=" stroke:none;fill-rule:nonzero;fill:rgb(13.72549%,9.411765%,8.235294%);fill-opacity:1;" d="M 66.078125 59.847656 C 66.460938 59.847656 66.769531 59.535156 66.769531 59.15625 C 66.769531 58.777344 66.460938 58.46875 66.078125 58.46875 L 64.054688 58.46875 C 63.578125 58.46875 63.144531 58.203125 62.925781 57.78125 L 62.746094 57.429688 C 62.585938 57.125 62.125 57.234375 62.125 57.578125 L 62.125 58.925781 C 62.125 59.433594 62.539062 59.847656 63.050781 59.847656 Z M 66.078125 59.847656 "/>
<path style=" stroke:none;fill-rule:nonzero;fill:rgb(13.72549%,9.411765%,8.235294%);fill-opacity:1;" d="M 87.433594 57.828125 C 87.433594 60.40625 86.757812 62.980469 85.535156 65.414062 C 83.707031 69.058594 80.644531 72.355469 76.925781 74.714844 C 73.207031 77.078125 68.851562 78.503906 64.449219 78.503906 C 61.511719 78.503906 58.601562 77.871094 55.878906 76.75 C 51.800781 75.066406 48.164062 72.269531 45.578125 68.917969 C 42.988281 65.566406 41.460938 61.6875 41.464844 57.828125 C 41.464844 57.03125 40.816406 56.386719 40.015625 56.386719 C 39.21875 56.386719 38.570312 57.03125 38.570312 57.828125 C 38.570312 60.90625 39.375 63.925781 40.773438 66.699219 C 42.867188 70.867188 46.28125 74.515625 50.414062 77.144531 C 54.546875 79.769531 59.417969 81.382812 64.449219 81.382812 C 67.800781 81.382812 71.085938 80.664062 74.125 79.410156 C 78.683594 77.523438 82.703125 74.4375 85.609375 70.675781 C 88.515625 66.914062 90.324219 62.453125 90.324219 57.828125 C 90.324219 57.03125 89.675781 56.386719 88.878906 56.386719 C 88.082031 56.386719 87.433594 57.03125 87.433594 57.828125 Z M 87.433594 57.828125 "/>
<path style=" stroke:none;fill-rule:nonzero;fill:rgb(13.72549%,9.411765%,8.235294%);fill-opacity:1;" d="M 40.414062 60.003906 C 38.449219 60.003906 36.683594 59.214844 35.394531 57.933594 C 34.109375 56.652344 33.316406 54.894531 33.316406 52.9375 C 33.316406 50.984375 34.109375 49.226562 35.394531 47.941406 C 36.683594 46.660156 38.449219 45.875 40.414062 45.875 L 40.414062 42.992188 C 37.660156 42.992188 35.152344 44.109375 33.347656 45.90625 C 31.542969 47.699219 30.421875 50.195312 30.425781 52.9375 C 30.421875 55.679688 31.542969 58.175781 33.347656 59.96875 C 35.152344 61.769531 37.660156 62.882812 40.414062 62.882812 Z M 40.414062 60.003906 "/>
<path style=" stroke:none;fill-rule:nonzero;fill:rgb(13.72549%,9.411765%,8.235294%);fill-opacity:1;" d="M 88.484375 62.882812 C 91.238281 62.882812 93.742188 61.769531 95.546875 59.96875 C 97.351562 58.175781 98.472656 55.679688 98.472656 52.9375 C 98.472656 50.195312 97.351562 47.699219 95.546875 45.90625 C 93.742188 44.109375 91.238281 42.992188 88.484375 42.992188 L 88.484375 45.875 C 90.449219 45.875 92.214844 46.660156 93.5 47.941406 C 94.789062 49.226562 95.578125 50.984375 95.578125 52.9375 C 95.578125 54.894531 94.789062 56.652344 93.5 57.933594 C 92.214844 59.214844 90.449219 60.003906 88.484375 60.003906 Z M 88.484375 62.882812 "/>
<path style=" stroke:none;fill-rule:nonzero;fill:rgb(13.72549%,9.411765%,8.235294%);fill-opacity:1;" d="M 70.3125 66.90625 C 69.796875 67.226562 69.222656 67.210938 68.941406 66.949219 C 66.101562 68.289062 62.796875 68.289062 59.957031 66.949219 C 59.671875 67.214844 59.097656 67.226562 58.585938 66.90625 C 57.953125 66.515625 57.726562 65.832031 58.03125 65.472656 C 58.339844 65.089844 58.644531 64.707031 58.953125 64.324219 C 59.257812 63.960938 59.835938 63.9375 60.269531 64.203125 C 60.628906 64.425781 60.832031 64.816406 60.792969 65.191406 C 63.105469 66.277344 65.792969 66.277344 68.105469 65.191406 C 68.066406 64.816406 68.269531 64.429688 68.628906 64.203125 C 69.0625 63.9375 69.636719 63.960938 69.941406 64.324219 C 70.25 64.707031 70.558594 65.089844 70.867188 65.472656 C 71.171875 65.832031 70.941406 66.519531 70.3125 66.90625 Z M 70.3125 66.90625 "/>
<path style=" stroke:none;fill-rule:nonzero;fill:rgb(13.72549%,9.411765%,8.235294%);fill-opacity:1;" d="M 66.515625 89.375 L 66.515625 150 L 64.15625 150 L 64.15625 89.375 C 64.15625 88.726562 64.683594 88.199219 65.332031 88.199219 C 65.984375 88.199219 66.515625 88.726562 66.515625 89.375 Z M 66.515625 89.375 "/>
<path style=" stroke:none;fill-rule:nonzero;fill:rgb(13.72549%,9.411765%,8.235294%);fill-opacity:1;" d="M 45.355469 116.988281 L 54.40625 116.988281 C 54.929688 116.988281 55.351562 116.570312 55.351562 116.050781 C 55.351562 115.53125 54.929688 115.109375 54.40625 115.109375 L 45.355469 115.109375 C 44.832031 115.109375 44.410156 115.53125 44.410156 116.050781 C 44.410156 116.570312 44.832031 116.988281 45.355469 116.988281 Z M 45.355469 116.988281 "/>
<path style=" stroke:none;fill-rule:nonzero;fill:rgb(13.72549%,9.411765%,8.235294%);fill-opacity:1;" d="M 75.082031 116.988281 L 84.132812 116.988281 C 84.65625 116.988281 85.078125 116.570312 85.078125 116.050781 C 85.078125 115.53125 84.65625 115.109375 84.132812 115.109375 L 75.082031 115.109375 C 74.5625 115.109375 74.136719 115.53125 74.136719 116.050781 C 74.136719 116.570312 74.5625 116.988281 75.082031 116.988281 Z M 75.082031 116.988281 "/>
<path style=" stroke:none;fill-rule:nonzero;fill:rgb(13.72549%,9.411765%,8.235294%);fill-opacity:1;" d="M 46.273438 78.464844 L 45.847656 89.207031 L 45.847656 89.203125 C 45.84375 89.265625 45.84375 89.328125 45.84375 89.386719 C 45.839844 90.652344 46.371094 91.78125 47.191406 92.570312 C 48.011719 93.363281 49.121094 93.835938 50.3125 93.839844 C 50.890625 93.839844 51.484375 93.722656 52.058594 93.484375 L 52.109375 93.460938 L 64.886719 86.234375 C 65.339844 85.976562 65.5 85.402344 65.242188 84.949219 C 64.984375 84.5 64.40625 84.339844 63.953125 84.597656 L 51.222656 91.796875 L 51.691406 92.617188 L 51.324219 91.75 C 50.980469 91.894531 50.644531 91.957031 50.3125 91.957031 C 49.636719 91.957031 48.988281 91.679688 48.507812 91.21875 C 48.03125 90.753906 47.734375 90.128906 47.734375 89.386719 L 47.734375 89.28125 L 48.160156 78.539062 C 48.183594 78.019531 47.777344 77.582031 47.253906 77.558594 C 46.734375 77.539062 46.292969 77.945312 46.273438 78.464844 Z M 46.273438 78.464844 "/>
<path style=" stroke:none;fill-rule:nonzero;fill:rgb(13.72549%,9.411765%,8.235294%);fill-opacity:1;" d="M 82.414062 78.539062 L 82.839844 89.28125 L 82.84375 89.386719 C 82.839844 90.128906 82.542969 90.753906 82.066406 91.21875 C 81.589844 91.683594 80.9375 91.957031 80.261719 91.957031 C 79.933594 91.957031 79.59375 91.894531 79.253906 91.75 L 78.886719 92.617188 L 79.355469 91.796875 L 66.625 84.597656 C 66.167969 84.339844 65.59375 84.496094 65.335938 84.949219 C 65.078125 85.402344 65.234375 85.976562 65.691406 86.234375 L 78.46875 93.460938 L 78.519531 93.484375 C 79.09375 93.726562 79.6875 93.839844 80.261719 93.839844 C 81.453125 93.835938 82.5625 93.363281 83.382812 92.570312 C 84.203125 91.78125 84.734375 90.652344 84.734375 89.386719 C 84.734375 89.328125 84.730469 89.269531 84.730469 89.207031 L 84.304688 78.464844 C 84.28125 77.945312 83.84375 77.539062 83.320312 77.5625 C 82.800781 77.582031 82.394531 78.019531 82.414062 78.539062 Z M 82.414062 78.539062 "/>
<path style=" stroke:none;fill-rule:nonzero;fill:rgb(13.72549%,9.411765%,8.235294%);fill-opacity:1;" d="M 37.359375 37.21875 L 91.714844 37.21875 C 92.511719 37.21875 93.160156 36.574219 93.160156 35.777344 C 93.160156 34.980469 92.511719 34.335938 91.714844 34.335938 L 37.359375 34.335938 C 36.558594 34.335938 35.910156 34.980469 35.910156 35.777344 C 35.910156 36.574219 36.558594 37.21875 37.359375 37.21875 "/>
<path style=" stroke:none;fill-rule:nonzero;fill:rgb(13.72549%,9.411765%,8.235294%);fill-opacity:1;" d="M 38.445312 35.773438 L 38.445312 29.910156 C 38.4375 29.660156 38.433594 29.410156 38.433594 29.164062 C 38.433594 25.457031 39.261719 22.347656 40.621094 19.703125 C 42.65625 15.742188 45.917969 12.800781 49.464844 10.695312 C 53.011719 8.589844 56.832031 7.335938 59.828125 6.75 C 60.582031 6.601562 61.074219 5.871094 60.925781 5.121094 C 60.777344 4.367188 60.042969 3.878906 59.289062 4.027344 C 54.914062 4.890625 49.101562 6.96875 44.269531 10.949219 C 41.855469 12.9375 39.695312 15.410156 38.136719 18.4375 C 36.582031 21.464844 35.640625 25.039062 35.644531 29.164062 C 35.644531 29.4375 35.648438 29.714844 35.65625 29.996094 L 37.050781 29.953125 L 35.65625 29.953125 L 35.65625 35.773438 C 35.65625 36.539062 36.28125 37.160156 37.050781 37.160156 C 37.820312 37.160156 38.445312 36.539062 38.445312 35.773438 Z M 38.445312 35.773438 "/>
<path style=" stroke:none;fill-rule:nonzero;fill:rgb(13.72549%,9.411765%,8.235294%);fill-opacity:1;" d="M 93.867188 35.773438 L 93.867188 29.953125 L 92.472656 29.953125 L 93.867188 29.996094 C 93.875 29.714844 93.878906 29.4375 93.878906 29.164062 C 93.878906 25.007812 92.925781 21.40625 91.347656 18.367188 C 88.976562 13.796875 85.238281 10.511719 81.328125 8.21875 C 77.40625 5.921875 73.296875 4.605469 70.023438 3.984375 C 69.265625 3.84375 68.535156 4.335938 68.390625 5.089844 C 68.25 5.84375 68.746094 6.570312 69.503906 6.714844 C 71.492188 7.089844 73.867188 7.761719 76.285156 8.792969 C 79.917969 10.335938 83.644531 12.6875 86.425781 15.996094 C 87.816406 17.652344 88.976562 19.546875 89.796875 21.722656 C 90.613281 23.902344 91.089844 26.363281 91.089844 29.164062 C 91.089844 29.414062 91.085938 29.660156 91.078125 29.914062 L 91.078125 35.773438 C 91.078125 36.539062 91.703125 37.164062 92.472656 37.164062 C 93.242188 37.160156 93.867188 36.539062 93.867188 35.773438 Z M 93.867188 35.773438 "/>
<path style=" stroke:none;fill-rule:nonzero;fill:rgb(13.72549%,9.411765%,8.235294%);fill-opacity:1;" d="M 38.140625 33.386719 L 50.921875 30.398438 C 55.421875 29.34375 60.019531 28.816406 64.613281 28.816406 C 69.375 28.816406 74.132812 29.382812 78.792969 30.515625 L 90.613281 33.386719 C 91.25 33.539062 91.886719 33.152344 92.042969 32.519531 C 92.195312 31.890625 91.808594 31.253906 91.175781 31.101562 L 79.351562 28.226562 C 74.511719 27.050781 69.5625 26.464844 64.613281 26.464844 C 59.835938 26.464844 55.058594 27.011719 50.378906 28.105469 L 37.597656 31.097656 C 36.964844 31.246094 36.570312 31.878906 36.71875 32.511719 C 36.867188 33.144531 37.503906 33.535156 38.140625 33.386719 Z M 38.140625 33.386719 "/>
<path style=" stroke:none;fill-rule:nonzero;fill:rgb(13.72549%,9.411765%,8.235294%);fill-opacity:1;" d="M 61.265625 14.304688 L 61.265625 3.992188 C 61.265625 3.679688 61.386719 3.414062 61.589844 3.207031 C 61.796875 3.003906 62.070312 2.882812 62.382812 2.878906 L 67.042969 2.878906 C 67.359375 2.882812 67.628906 3.003906 67.835938 3.207031 C 68.039062 3.414062 68.160156 3.683594 68.164062 3.992188 L 68.164062 14.304688 C 68.164062 15.097656 68.808594 15.742188 69.609375 15.742188 C 70.40625 15.742188 71.054688 15.097656 71.054688 14.304688 L 71.054688 3.992188 C 71.054688 2.894531 70.605469 1.886719 69.878906 1.167969 C 69.160156 0.449219 68.148438 0 67.042969 0 L 62.382812 0 C 61.277344 0 60.265625 0.449219 59.546875 1.167969 C 58.824219 1.886719 58.371094 2.894531 58.371094 3.992188 L 58.371094 14.304688 C 58.371094 15.097656 59.019531 15.742188 59.816406 15.742188 C 60.617188 15.742188 61.265625 15.097656 61.265625 14.304688 Z M 61.265625 14.304688 "/>
<path style=" stroke:none;fill-rule:nonzero;fill:rgb(13.72549%,9.411765%,8.235294%);fill-opacity:1;" d="M 23.074219 98.246094 C 23.070312 98.09375 23.0625 97.980469 23.054688 97.886719 C 23.046875 97.742188 23.03125 97.648438 23.03125 97.617188 C 23.027344 97.578125 23.019531 97.519531 23.015625 97.328125 C 22.933594 95.0625 22.855469 92.945312 22.789062 91.070312 C 22.785156 91.007812 22.785156 90.949219 22.785156 90.894531 C 22.785156 89.277344 23.59375 87.753906 24.953125 86.792969 C 28.992188 83.929688 31.648438 79.21875 31.648438 73.914062 C 31.648438 71.070312 30.882812 68.390625 29.550781 66.082031 C 28.21875 63.769531 26.320312 61.828125 24.046875 60.4375 C 23.6875 60.214844 23.269531 60.101562 22.867188 60.101562 C 22.269531 60.105469 21.71875 60.332031 21.304688 60.726562 C 20.886719 61.121094 20.605469 61.71875 20.609375 62.351562 L 20.609375 72.070312 L 15.824219 74.828125 L 11.039062 72.070312 L 11.039062 62.351562 C 11.042969 61.71875 10.761719 61.121094 10.34375 60.730469 C 9.929688 60.332031 9.378906 60.105469 8.78125 60.101562 C 8.382812 60.101562 7.960938 60.210938 7.59375 60.441406 L 7.601562 60.4375 C 5.324219 61.828125 3.429688 63.769531 2.097656 66.082031 C 0.765625 68.390625 0 71.070312 0 73.914062 C 0 79.21875 2.65625 83.929688 6.695312 86.792969 C 8.054688 87.757812 8.863281 89.277344 8.863281 90.894531 C 8.863281 90.953125 8.863281 91.011719 8.859375 91.074219 L 8.859375 91.070312 C 8.800781 92.695312 8.734375 94.5 8.667969 96.429688 C 8.652344 96.828125 8.636719 97.035156 8.621094 97.273438 C 8.605469 97.515625 8.589844 97.785156 8.574219 98.238281 C 8.542969 99.070312 9.195312 99.769531 10.035156 99.800781 C 10.871094 99.832031 11.574219 99.179688 11.601562 98.347656 C 11.617188 97.921875 11.632812 97.707031 11.648438 97.46875 C 11.664062 97.230469 11.679688 96.96875 11.695312 96.535156 C 11.765625 94.609375 11.832031 92.800781 11.890625 91.179688 L 11.890625 91.175781 C 11.890625 91.082031 11.894531 90.992188 11.894531 90.894531 C 11.894531 88.265625 10.582031 85.839844 8.453125 84.332031 C 5.175781 82.007812 3.03125 78.199219 3.03125 73.914062 C 3.03125 71.609375 3.648438 69.453125 4.726562 67.582031 C 5.804688 65.714844 7.34375 64.132812 9.1875 63.007812 L 9.195312 63.003906 L 8.78125 62.34375 L 8.78125 63.121094 C 8.917969 63.121094 9.078125 63.078125 9.195312 63.003906 L 8.78125 62.34375 L 8.78125 63.121094 L 8.78125 62.355469 L 8.25 62.910156 C 8.390625 63.042969 8.570312 63.117188 8.78125 63.121094 L 8.78125 62.355469 L 8.25 62.910156 L 8.785156 62.351562 L 8.007812 62.351562 C 8.003906 62.550781 8.105469 62.78125 8.25 62.910156 L 8.785156 62.351562 L 8.007812 62.351562 L 8.007812 72.066406 C 8.007812 73.144531 8.582031 74.140625 9.523438 74.683594 L 14.304688 77.441406 C 14.773438 77.710938 15.296875 77.847656 15.824219 77.847656 C 16.347656 77.847656 16.871094 77.710938 17.339844 77.441406 L 22.125 74.683594 C 23.0625 74.140625 23.640625 73.144531 23.640625 72.066406 L 23.640625 62.351562 L 22.863281 62.351562 L 23.398438 62.910156 C 23.542969 62.78125 23.644531 62.550781 23.640625 62.351562 L 22.863281 62.351562 L 23.398438 62.910156 L 22.867188 62.355469 L 22.867188 63.121094 C 23.074219 63.121094 23.253906 63.042969 23.398438 62.910156 L 22.867188 62.355469 L 22.867188 63.121094 L 22.867188 62.351562 L 22.460938 63.007812 C 22.570312 63.078125 22.722656 63.121094 22.867188 63.121094 L 22.867188 62.351562 L 22.460938 63.007812 C 24.300781 64.132812 25.84375 65.714844 26.921875 67.582031 C 28 69.453125 28.617188 71.609375 28.617188 73.914062 C 28.617188 78.199219 26.472656 82.007812 23.195312 84.332031 C 21.066406 85.839844 19.753906 88.265625 19.753906 90.894531 C 19.753906 90.992188 19.753906 91.085938 19.757812 91.179688 C 19.828125 93.050781 19.902344 95.167969 19.984375 97.4375 C 19.992188 97.585938 19.996094 97.695312 20.003906 97.789062 C 20.007812 97.859375 20.015625 97.921875 20.019531 97.964844 C 20.027344 98.035156 20.027344 98.046875 20.03125 98.089844 C 20.035156 98.132812 20.039062 98.207031 20.046875 98.355469 C 20.074219 99.1875 20.777344 99.839844 21.613281 99.808594 C 22.449219 99.777344 23.105469 99.078125 23.074219 98.246094 Z M 24.34375 133.117188 C 24.324219 132.628906 24.300781 132.175781 24.273438 131.589844 C 24.265625 131.367188 24.257812 131.128906 24.246094 130.859375 C 24.226562 130.394531 23.996094 129.980469 23.644531 129.71875 C 23.640625 129.714844 23.632812 129.707031 23.621094 129.703125 C 23.40625 129.542969 23.144531 129.4375 22.867188 129.414062 C 22.804688 129.410156 22.738281 129.410156 22.675781 129.410156 L 22.671875 129.410156 C 22.617188 129.410156 22.5625 129.414062 22.503906 129.425781 C 22.488281 129.425781 22.472656 129.429688 22.460938 129.429688 C 22.171875 129.488281 21.914062 129.613281 21.710938 129.800781 C 21.386719 130.089844 21.199219 130.515625 21.214844 130.976562 C 21.226562 131.320312 21.242188 131.625 21.253906 131.894531 C 21.277344 132.410156 21.296875 132.820312 21.316406 133.238281 C 21.328125 133.488281 21.332031 133.726562 21.332031 133.953125 C 21.332031 135.800781 21.007812 137.113281 20.574219 138.042969 C 20.246094 138.742188 19.851562 139.238281 19.4375 139.617188 C 18.808594 140.1875 18.089844 140.5 17.417969 140.671875 C 16.75 140.84375 16.152344 140.871094 15.824219 140.871094 C 15.527344 140.871094 15.027344 140.851562 14.449219 140.730469 C 14.015625 140.628906 13.542969 140.472656 13.09375 140.234375 C 12.410156 139.867188 11.765625 139.324219 11.242188 138.375 C 10.71875 137.429688 10.320312 136.035156 10.3125 133.953125 C 10.3125 133.726562 10.320312 133.488281 10.328125 133.238281 C 10.347656 132.8125 10.367188 132.382812 10.390625 131.867188 C 10.40625 131.480469 10.429688 131.035156 10.445312 130.523438 C 10.453125 130.429688 10.445312 130.332031 10.429688 130.246094 C 10.367188 129.8125 10.125 129.4375 9.773438 129.210938 C 9.574219 129.070312 9.335938 128.984375 9.078125 128.960938 C 9.050781 128.960938 9.023438 128.957031 8.996094 128.957031 C 8.988281 128.957031 8.988281 128.957031 8.984375 128.957031 C 8.296875 128.933594 7.699219 129.371094 7.5 129.992188 C 7.457031 130.125 7.429688 130.261719 7.421875 130.40625 C 7.417969 130.597656 7.40625 130.78125 7.398438 130.953125 C 7.359375 131.832031 7.328125 132.476562 7.300781 133.113281 C 7.289062 133.402344 7.285156 133.683594 7.285156 133.953125 C 7.285156 136.144531 7.667969 137.910156 8.324219 139.316406 C 8.8125 140.371094 9.460938 141.214844 10.179688 141.859375 C 11.253906 142.820312 12.441406 143.332031 13.464844 143.597656 C 14.484375 143.855469 15.351562 143.890625 15.824219 143.890625 C 16.246094 143.890625 16.980469 143.867188 17.851562 143.675781 C 18.5 143.53125 19.242188 143.292969 19.992188 142.894531 C 20.660156 142.539062 21.324219 142.046875 21.925781 141.398438 C 22.347656 140.949219 22.734375 140.429688 23.066406 139.828125 C 23.09375 139.777344 23.121094 139.726562 23.144531 139.675781 C 23.339844 139.308594 23.515625 138.910156 23.667969 138.480469 C 23.695312 138.398438 23.722656 138.320312 23.75 138.242188 C 24.136719 137.039062 24.359375 135.621094 24.359375 133.953125 C 24.363281 133.683594 24.355469 133.398438 24.34375 133.117188 Z M 24.34375 133.117188 "/>
<path style=" stroke:none;fill-rule:nonzero;fill:rgb(13.72549%,9.411765%,8.235294%);fill-opacity:1;" d="M 20.847656 139.597656 C 21.347656 140.742188 22.074219 141.695312 22.925781 142.449219 C 24.203125 143.582031 25.734375 144.269531 27.289062 144.679688 C 28.847656 145.089844 30.441406 145.234375 31.914062 145.234375 C 33.386719 145.234375 34.738281 145.089844 35.824219 144.90625 C 36.648438 144.765625 37.203125 143.984375 37.058594 143.164062 C 36.917969 142.34375 36.136719 141.789062 35.3125 141.929688 C 34.386719 142.089844 33.1875 142.214844 31.914062 142.214844 C 30.214844 142.21875 28.382812 141.984375 26.894531 141.375 C 26.148438 141.074219 25.488281 140.683594 24.941406 140.195312 C 24.394531 139.707031 23.949219 139.128906 23.621094 138.386719 C 23.285156 137.621094 22.390625 137.277344 21.625 137.609375 C 20.859375 137.945312 20.507812 138.835938 20.847656 139.597656 Z M 20.847656 139.597656 "/>
</g>
</svg>
