<?xml version="1.0" encoding="UTF-8"?>
<svg xmlns="http://www.w3.org/2000/svg" xmlns:xlink="http://www.w3.org/1999/xlink" width="65px" height="150px" viewBox="0 0 65 150" version="1.1">
<g id="surface1">
<path style=" stroke:none;fill-rule:nonzero;fill:rgb(42.352941%,52.156863%,60.784314%);fill-opacity:1;" d="M 47.617188 87.5 L 50.65625 129.84375 C 50.65625 129.84375 56.980469 130.527344 57.921875 136.589844 L 57.921875 137.605469 C 57.921875 138.289062 57.363281 138.84375 56.675781 138.84375 L 41.585938 138.84375 C 40.949219 138.84375 40.410156 138.363281 40.347656 137.726562 L 29.753906 94.507812 L 29.289062 94.507812 L 19.484375 129.84375 L 18.695312 137.726562 C 18.632812 138.363281 18.09375 138.847656 17.457031 138.847656 L 2.367188 138.847656 C 1.679688 138.847656 1.121094 138.289062 1.121094 137.605469 L 1.121094 136.589844 C 2.0625 130.53125 8.386719 129.84375 8.386719 129.84375 L 11.117188 87.5 L 29.253906 77.167969 Z M 47.617188 87.5 "/>
<path style=" stroke:none;fill-rule:nonzero;fill:rgb(46.27451%,56.078431%,64.705882%);fill-opacity:1;" d="M 48.480469 54.847656 L 48.480469 85.988281 L 44.984375 87.5 L 42.003906 88.425781 C 38.933594 89.378906 35.585938 88.800781 33.019531 86.871094 L 31.09375 85.429688 C 29.933594 84.558594 28.335938 84.558594 27.175781 85.429688 L 25.253906 86.871094 C 22.683594 88.800781 19.339844 89.378906 16.265625 88.425781 L 13.285156 87.5 L 10.296875 86.210938 L 10.296875 54.847656 C 10.296875 54.847656 10.296875 39.492188 10.296875 38.960938 C 10.296875 38.433594 17.347656 32.261719 29.023438 32.261719 C 40.695312 32.261719 47.378906 36.597656 47.378906 36.597656 L 48.480469 40.824219 Z M 48.480469 54.847656 "/>
<path style=" stroke:none;fill-rule:nonzero;fill:rgb(100%,100%,100%);fill-opacity:1;" d="M 17.050781 34.648438 C 17.050781 34.648438 16.734375 35.84375 16.605469 36.265625 C 16.476562 36.683594 27.546875 50.992188 27.546875 50.992188 C 27.546875 50.992188 28.730469 51.910156 29.570312 51.816406 C 30.414062 51.722656 31.542969 50.292969 31.542969 50.292969 L 43.191406 34.648438 L 37.859375 32.226562 L 37.164062 31.824219 C 32.476562 29.121094 26.6875 29.160156 22.039062 31.929688 Z M 17.050781 34.648438 "/>
<path style=" stroke:none;fill-rule:nonzero;fill:rgb(100%,84.313725%,77.254902%);fill-opacity:1;" d="M 43.226562 17.589844 L 43.226562 16.171875 C 43.226562 9.777344 36.53125 3.671875 29.425781 3.671875 C 22.320312 3.671875 15.625 9.777344 15.625 16.171875 L 15.625 17.609375 C 13.167969 17.835938 11.246094 19.890625 11.246094 22.394531 C 11.246094 24.976562 13.285156 27.082031 15.847656 27.199219 C 17.066406 32.792969 23.082031 37.660156 29.425781 37.660156 C 35.769531 37.660156 41.785156 32.796875 43.003906 27.203125 L 43.226562 27.203125 C 45.890625 27.203125 48.054688 25.050781 48.054688 22.394531 C 48.054688 19.742188 45.890625 17.589844 43.226562 17.589844 Z M 43.226562 17.589844 "/>
<path style=" stroke:none;fill-rule:nonzero;fill:rgb(100%,94.117647%,87.058824%);fill-opacity:1;" d="M 28.097656 21.320312 C 28.097656 23.445312 26.371094 25.167969 24.238281 25.167969 C 22.109375 25.167969 20.378906 23.445312 20.378906 21.320312 C 20.378906 19.199219 22.109375 17.476562 24.238281 17.476562 C 26.371094 17.476562 28.097656 19.199219 28.097656 21.320312 Z M 28.097656 21.320312 "/>
<path style=" stroke:none;fill-rule:nonzero;fill:rgb(100%,94.117647%,87.058824%);fill-opacity:1;" d="M 38.53125 21.320312 C 38.53125 23.445312 36.804688 25.167969 34.671875 25.167969 C 32.542969 25.167969 30.8125 23.445312 30.8125 21.320312 C 30.8125 19.199219 32.542969 17.476562 34.671875 17.476562 C 36.804688 17.476562 38.53125 19.199219 38.53125 21.320312 Z M 38.53125 21.320312 "/>
<path style=" stroke:none;fill-rule:nonzero;fill:rgb(46.27451%,56.078431%,64.705882%);fill-opacity:1;" d="M 28.078125 84.085938 C 12.394531 76.84375 3.539062 65.167969 3.539062 56.1875 C 3.539062 41.964844 11.757812 36.265625 17.050781 34.648438 L 20.6875 57.617188 Z M 28.078125 84.085938 "/>
<path style=" stroke:none;fill-rule:nonzero;fill:rgb(94.901961%,79.215686%,49.411765%);fill-opacity:1;" d="M 38.890625 138.535156 L 30.53125 148.304688 L 26.394531 136.148438 L 51.5 5.738281 L 63.996094 8.125 Z M 38.890625 138.535156 "/>
<path style=" stroke:none;fill-rule:nonzero;fill:rgb(11.764706%,66.666667%,22.352941%);fill-opacity:1;" d="M 38.890625 138.535156 L 37.039062 136.917969 L 35.03125 137.800781 L 33.160156 135.59375 L 30.253906 136.886719 L 28.417969 135.496094 L 26.394531 136.148438 L 51.5 5.738281 L 63.996094 8.125 Z M 38.890625 138.535156 "/>
<path style=" stroke:none;fill-rule:nonzero;fill:rgb(100%,84.313725%,77.254902%);fill-opacity:1;" d="M 51.816406 51.511719 L 52.644531 51.667969 L 52.6875 51.351562 L 51.878906 51.199219 C 50.828125 50.996094 50.132812 49.976562 50.332031 48.929688 C 50.535156 47.882812 51.558594 47.191406 52.609375 47.394531 L 53.195312 47.503906 L 53.273438 46.902344 L 53.035156 46.859375 C 51.984375 46.65625 50.265625 45.441406 50.46875 44.394531 C 50.667969 43.347656 52.71875 42.851562 53.769531 43.054688 L 53.785156 43.054688 L 53.863281 42.453125 C 52.824219 42.246094 52.140625 41.230469 52.339844 40.191406 C 52.539062 39.144531 53.566406 38.453125 54.617188 38.652344 L 61.957031 40.054688 C 62.910156 40.773438 63.738281 42.050781 63.386719 43.878906 L 62.054688 50.789062 C 61.441406 53.734375 60.859375 55.738281 59.914062 57.027344 C 59.613281 57.15625 59.292969 57.207031 58.976562 57.148438 L 51.082031 55.316406 C 50.035156 55.117188 49.339844 54.09375 49.539062 53.046875 C 49.742188 52 50.765625 51.308594 51.816406 51.511719 Z M 51.816406 51.511719 "/>
<path style=" stroke:none;fill-rule:nonzero;fill:rgb(100%,84.313725%,77.254902%);fill-opacity:1;" d="M 44.066406 75.21875 L 43.238281 75.058594 L 43.195312 75.375 L 44.003906 75.53125 C 45.054688 75.730469 45.75 76.75 45.550781 77.796875 C 45.347656 78.84375 44.324219 79.535156 43.273438 79.335938 L 42.6875 79.222656 L 42.609375 79.824219 L 42.847656 79.871094 C 43.898438 80.070312 45.617188 81.289062 45.414062 82.335938 C 45.214844 83.382812 43.164062 83.878906 42.113281 83.675781 L 42.097656 83.671875 L 42.019531 84.273438 C 43.058594 84.484375 43.742188 85.5 43.542969 86.539062 C 43.34375 87.585938 42.316406 88.277344 41.265625 88.074219 L 33.925781 86.671875 C 32.972656 85.957031 32.144531 84.679688 32.496094 82.847656 L 33.828125 75.9375 C 34.441406 72.992188 35.023438 70.992188 35.96875 69.699219 C 36.265625 69.570312 36.589844 69.519531 36.90625 69.582031 L 44.796875 71.414062 C 45.847656 71.613281 46.542969 72.632812 46.34375 73.679688 C 46.140625 74.726562 45.117188 75.417969 44.066406 75.21875 Z M 44.066406 75.21875 "/>
<path style=" stroke:none;fill-rule:nonzero;fill:rgb(13.72549%,9.411765%,8.235294%);fill-opacity:1;" d="M 29.390625 62.820312 C 30.007812 62.820312 30.511719 62.320312 30.511719 61.703125 C 30.511719 61.082031 30.007812 60.582031 29.390625 60.582031 C 28.769531 60.582031 28.265625 61.082031 28.265625 61.703125 C 28.265625 62.320312 28.769531 62.820312 29.390625 62.820312 Z M 29.390625 62.820312 "/>
<path style=" stroke:none;fill-rule:nonzero;fill:rgb(13.72549%,9.411765%,8.235294%);fill-opacity:1;" d="M 29.390625 70.910156 C 30.007812 70.910156 30.511719 70.40625 30.511719 69.789062 C 30.511719 69.171875 30.007812 68.671875 29.390625 68.671875 C 28.769531 68.671875 28.265625 69.171875 28.265625 69.789062 C 28.265625 70.40625 28.769531 70.910156 29.390625 70.910156 Z M 29.390625 70.910156 "/>
<path style=" stroke:none;fill-rule:nonzero;fill:rgb(13.72549%,9.411765%,8.235294%);fill-opacity:1;" d="M 29.136719 41.964844 L 26.878906 41.964844 L 26.878906 48.914062 L 18.320312 37.03125 C 18.070312 36.679688 17.578125 36.597656 17.226562 36.851562 C 16.875 37.101562 16.792969 37.589844 17.046875 37.941406 L 27.058594 51.851562 L 27.066406 51.859375 C 27.320312 52.203125 27.644531 52.464844 28.003906 52.636719 C 28.359375 52.8125 28.75 52.898438 29.136719 52.898438 C 29.523438 52.898438 29.910156 52.8125 30.269531 52.636719 C 30.625 52.464844 30.953125 52.203125 31.207031 51.859375 L 42.445312 36.730469 C 42.703125 36.382812 42.628906 35.890625 42.28125 35.636719 C 41.933594 35.378906 41.441406 35.453125 41.183594 35.796875 L 31.394531 48.976562 L 31.394531 41.964844 Z M 29.136719 41.964844 "/>
<path style=" stroke:none;fill-rule:nonzero;fill:rgb(13.72549%,9.411765%,8.235294%);fill-opacity:1;" d="M 16.148438 63.660156 C 17.824219 66.320312 19.964844 68.425781 22.589844 70.1875 C 25.214844 71.949219 28.320312 73.375 31.972656 74.71875 C 32.414062 74.882812 32.90625 74.65625 33.070312 74.214844 C 33.234375 73.773438 33.007812 73.285156 32.566406 73.121094 C 30.179688 72.242188 28.058594 71.335938 26.179688 70.339844 C 23.367188 68.847656 21.105469 67.15625 19.28125 65.035156 C 17.460938 62.914062 16.0625 60.347656 15.019531 57.050781 C 14.878906 56.601562 14.398438 56.351562 13.945312 56.492188 C 13.496094 56.636719 13.246094 57.113281 13.386719 57.5625 C 14.117188 59.875 15.03125 61.890625 16.148438 63.660156 Z M 16.148438 63.660156 "/>
<path style=" stroke:none;fill-rule:nonzero;fill:rgb(13.72549%,9.411765%,8.235294%);fill-opacity:1;" d="M 42.777344 84.753906 L 42.75 84.746094 Z M 42.777344 84.753906 "/>
<path style=" stroke:none;fill-rule:nonzero;fill:rgb(13.72549%,9.411765%,8.235294%);fill-opacity:1;" d="M 47.902344 19.90625 C 47.644531 19.449219 47.328125 19.027344 46.957031 18.660156 C 46.375 18.078125 45.660156 17.625 44.867188 17.339844 C 44.867188 16.808594 44.867188 16.277344 44.867188 15.75 C 44.867188 15.355469 44.871094 14.960938 44.855469 14.566406 C 44.773438 12.105469 44.074219 9.660156 42.816406 7.535156 C 41.617188 5.503906 39.964844 3.753906 37.984375 2.460938 C 35.890625 1.097656 33.464844 0.261719 30.972656 0.0585938 C 30.109375 -0.0117188 29.226562 -0.015625 28.363281 0.0234375 C 27.105469 0.0820312 25.859375 0.292969 24.65625 0.660156 C 22.492188 1.316406 20.488281 2.464844 18.824219 3.988281 C 17.113281 5.554688 15.765625 7.507812 14.925781 9.667969 C 14.210938 11.503906 13.910156 13.425781 13.910156 15.386719 C 13.910156 16.039062 13.910156 16.6875 13.910156 17.339844 C 13.117188 17.625 12.402344 18.078125 11.820312 18.660156 C 10.800781 19.671875 10.167969 21.082031 10.167969 22.632812 C 10.167969 24.183594 10.800781 25.59375 11.820312 26.609375 C 12.695312 27.480469 13.867188 28.070312 15.167969 28.214844 C 15.375 28.96875 15.660156 29.703125 16.011719 30.410156 C 17.199219 32.765625 19.125 34.828125 21.460938 36.3125 C 23.792969 37.796875 26.546875 38.710938 29.386719 38.710938 C 31.28125 38.710938 33.136719 38.304688 34.855469 37.59375 C 37.429688 36.527344 39.699219 34.785156 41.34375 32.660156 C 42.164062 31.59375 42.828125 30.433594 43.289062 29.210938 C 43.414062 28.882812 43.519531 28.550781 43.613281 28.214844 C 44.714844 28.089844 45.722656 27.648438 46.539062 26.984375 L 45.097656 34.460938 C 45.046875 34.421875 44.992188 34.390625 44.929688 34.367188 C 44.675781 34.261719 44.027344 34 43.324219 33.761719 C 42.96875 33.644531 42.601562 33.53125 42.253906 33.441406 C 42.078125 33.398438 41.90625 33.359375 41.738281 33.332031 C 41.570312 33.304688 41.40625 33.285156 41.230469 33.285156 C 40.757812 33.285156 40.375 33.667969 40.375 34.140625 C 40.375 34.609375 40.757812 34.992188 41.230469 34.992188 C 41.265625 34.992188 41.351562 34.996094 41.457031 35.015625 C 41.644531 35.046875 41.898438 35.109375 42.171875 35.1875 C 42.992188 35.425781 43.972656 35.816406 44.277344 35.941406 C 44.453125 36.015625 44.636719 36.023438 44.808594 35.980469 L 38.457031 68.96875 L 38.296875 68.9375 C 38.039062 68.886719 37.78125 68.863281 37.527344 68.863281 C 36.574219 68.863281 35.671875 69.199219 34.964844 69.777344 C 34.253906 70.355469 33.734375 71.179688 33.550781 72.144531 L 31.421875 83.199219 C 31.371094 83.457031 31.347656 83.710938 31.347656 83.964844 C 31.347656 84.179688 31.367188 84.394531 31.402344 84.605469 C 30.714844 84.152344 29.925781 83.921875 29.136719 83.921875 C 29.0625 83.921875 28.988281 83.925781 28.917969 83.929688 C 28.867188 83.667969 28.699219 83.433594 28.4375 83.3125 C 20.699219 79.738281 14.664062 75.078125 10.582031 70.238281 C 8.542969 67.820312 6.988281 65.359375 5.953125 62.976562 C 4.917969 60.59375 4.394531 58.292969 4.394531 56.1875 C 4.394531 52.714844 4.898438 49.785156 5.71875 47.316406 C 6.953125 43.621094 8.90625 40.957031 11.023438 39.058594 C 13.140625 37.160156 15.429688 36.035156 17.300781 35.460938 C 17.753906 35.324219 18.007812 34.847656 17.871094 34.398438 C 17.730469 33.945312 17.25 33.695312 16.800781 33.832031 C 15.402344 34.257812 13.824219 34.949219 12.238281 35.980469 C 9.863281 37.523438 7.460938 39.835938 5.667969 43.140625 C 3.871094 46.445312 2.683594 50.734375 2.683594 56.1875 C 2.683594 58.574219 3.269531 61.097656 4.382812 63.65625 C 5.527344 66.28125 7.222656 68.941406 9.4375 71.53125 L 9.4375 85.671875 C 9.4375 86.140625 9.824219 86.523438 10.296875 86.523438 C 10.769531 86.523438 11.152344 86.140625 11.152344 85.671875 L 11.152344 73.410156 C 11.691406 73.96875 12.25 74.519531 12.835938 75.066406 C 16.601562 78.570312 21.359375 81.832031 27 84.519531 C 26.886719 84.589844 26.773438 84.664062 26.660156 84.746094 L 24.738281 86.191406 C 23.132812 87.394531 21.199219 88.023438 19.238281 88.023438 C 18.328125 88.023438 17.410156 87.886719 16.519531 87.613281 L 13.539062 86.6875 C 13.089844 86.546875 12.609375 86.796875 12.46875 87.246094 C 12.328125 87.699219 12.578125 88.175781 13.03125 88.316406 L 16.011719 89.242188 C 17.070312 89.566406 18.15625 89.730469 19.238281 89.730469 C 21.566406 89.730469 23.863281 88.984375 25.769531 87.554688 L 27.691406 86.109375 C 28.121094 85.789062 28.625 85.628906 29.136719 85.628906 C 29.644531 85.628906 30.148438 85.789062 30.578125 86.109375 L 32.503906 87.554688 C 32.816406 87.789062 33.238281 87.773438 33.539062 87.546875 C 33.878906 87.722656 34.246094 87.851562 34.640625 87.929688 L 34.800781 87.960938 L 32.230469 101.296875 L 30.316406 94.285156 C 30.191406 93.828125 29.71875 93.5625 29.265625 93.683594 C 29.261719 93.6875 29.257812 93.6875 29.257812 93.6875 C 29.253906 93.6875 29.253906 93.6875 29.25 93.6875 C 28.792969 93.5625 28.324219 93.828125 28.195312 94.28125 L 18.5625 129.007812 L 9.039062 129.007812 L 11.972656 87.5625 C 12.003906 87.089844 11.648438 86.683594 11.179688 86.652344 C 10.707031 86.617188 10.296875 86.972656 10.265625 87.441406 L 7.3125 129.121094 C 7.1875 129.148438 7.050781 129.183594 6.902344 129.222656 C 5.914062 129.480469 4.414062 130.015625 3.027344 131.128906 C 2.339844 131.6875 1.675781 132.394531 1.144531 133.277344 C 0.609375 134.160156 0.203125 135.21875 0.0117188 136.457031 L 0 136.523438 L 0 137.605469 C 0 138.179688 0.238281 138.710938 0.617188 139.085938 C 0.992188 139.464844 1.523438 139.699219 2.101562 139.699219 L 17.191406 139.699219 C 17.726562 139.699219 18.226562 139.492188 18.601562 139.15625 C 18.972656 138.820312 19.226562 138.34375 19.28125 137.8125 L 20.066406 130.003906 L 29.25 96.882812 L 31.242188 104.164062 C 31.296875 104.367188 31.425781 104.53125 31.589844 104.640625 L 25.511719 136.210938 L 30.207031 150 L 39.6875 138.917969 C 39.757812 139.003906 39.832031 139.085938 39.910156 139.15625 C 40.285156 139.492188 40.785156 139.699219 41.320312 139.699219 L 56.410156 139.699219 C 56.988281 139.699219 57.519531 139.464844 57.894531 139.085938 C 58.273438 138.710938 58.511719 138.183594 58.511719 137.605469 L 58.511719 136.523438 L 58.5 136.457031 C 58.246094 134.804688 57.609375 133.472656 56.796875 132.449219 C 56.1875 131.683594 55.484375 131.082031 54.785156 130.617188 C 53.726562 129.921875 52.667969 129.523438 51.867188 129.292969 C 51.617188 129.21875 51.394531 129.164062 51.203125 129.121094 L 48.933594 94.535156 C 48.914062 94.1875 48.683594 93.90625 48.375 93.792969 L 55.308594 57.777344 C 55.339844 57.628906 55.324219 57.484375 55.277344 57.351562 L 57.585938 57.792969 C 57.84375 57.84375 58.101562 57.867188 58.351562 57.867188 C 59.308594 57.867188 60.210938 57.527344 60.917969 56.953125 C 61.628906 56.375 62.148438 55.550781 62.332031 54.585938 L 64.460938 43.53125 C 64.511719 43.273438 64.535156 43.015625 64.535156 42.765625 C 64.535156 41.8125 64.195312 40.914062 63.617188 40.210938 C 63.039062 39.503906 62.210938 38.984375 61.242188 38.800781 L 59.957031 38.554688 L 55.25 37.65625 C 55.300781 37.578125 55.34375 37.488281 55.359375 37.390625 L 61.019531 8.425781 L 62.996094 8.800781 L 57.570312 36.976562 C 57.480469 37.441406 57.785156 37.886719 58.25 37.976562 C 58.714844 38.0625 59.164062 37.761719 59.253906 37.296875 L 65 7.449219 L 50.820312 4.738281 Z M 43.945312 26.5 C 43.984375 26.136719 44.007812 25.765625 44.007812 25.398438 C 44.007812 24.945312 43.640625 24.582031 43.191406 24.582031 C 42.738281 24.582031 42.371094 24.945312 42.371094 25.398438 C 42.371094 26.851562 41.992188 28.308594 41.300781 29.683594 C 40.269531 31.742188 38.539062 33.605469 36.4375 34.941406 C 34.335938 36.277344 31.875 37.082031 29.386719 37.082031 C 27.730469 37.082031 26.085938 36.726562 24.546875 36.089844 C 22.242188 35.140625 20.1875 33.558594 18.726562 31.664062 C 17.996094 30.71875 17.414062 29.695312 17.015625 28.640625 C 16.617188 27.582031 16.402344 26.488281 16.402344 25.398438 C 16.402344 24.949219 16.039062 24.582031 15.585938 24.582031 C 15.136719 24.582031 14.769531 24.949219 14.769531 25.398438 C 14.769531 25.765625 14.792969 26.136719 14.835938 26.503906 C 14.121094 26.324219 13.480469 25.960938 12.976562 25.457031 C 12.25 24.730469 11.800781 23.738281 11.800781 22.632812 C 11.800781 21.527344 12.25 20.535156 12.976562 19.808594 C 13.25 19.535156 13.566406 19.300781 13.910156 19.117188 C 13.910156 19.472656 13.910156 19.824219 13.910156 20.179688 C 13.910156 20.441406 14.015625 20.683594 14.242188 20.828125 C 14.59375 21.058594 14.964844 20.9375 15.242188 20.667969 C 15.746094 20.171875 16.308594 19.738281 16.824219 19.257812 C 17.457031 18.671875 18.054688 18.03125 18.5 17.289062 C 19.007812 16.449219 19.25 15.542969 19.25 14.5625 C 19.25 13.523438 19.066406 12.492188 18.683594 11.523438 C 18.652344 11.4375 18.695312 11.421875 18.757812 11.363281 C 18.800781 11.324219 18.84375 11.285156 18.890625 11.246094 C 18.960938 11.1875 19.039062 11.128906 19.121094 11.082031 C 19.289062 10.988281 19.472656 10.933594 19.660156 10.894531 C 20.503906 10.71875 21.359375 10.625 22.199219 10.4375 C 24.621094 9.894531 26.851562 8.617188 28.867188 7.214844 C 28.988281 7.128906 29.105469 7.046875 29.226562 6.960938 C 29.269531 6.929688 29.351562 6.839844 29.402344 6.832031 C 29.449219 6.824219 29.519531 6.945312 29.558594 6.996094 C 29.742188 7.222656 29.929688 7.445312 30.128906 7.660156 C 30.546875 8.105469 31 8.511719 31.496094 8.867188 C 31.878906 9.136719 32.3125 9.273438 32.78125 9.160156 C 33.214844 9.054688 33.582031 8.753906 33.773438 8.351562 C 33.980469 7.910156 34.167969 7.457031 34.367188 7.007812 C 34.480469 6.753906 34.589844 6.496094 34.703125 6.242188 C 34.800781 6.019531 34.910156 5.820312 35.15625 5.730469 C 35.695312 5.53125 36.046875 6.066406 36.355469 6.410156 C 36.777344 6.871094 37.1875 7.347656 37.578125 7.839844 C 38.285156 8.730469 38.957031 9.679688 39.421875 10.722656 C 39.613281 11.152344 39.769531 11.597656 39.839844 12.0625 C 39.875 12.285156 39.769531 12.507812 39.722656 12.722656 C 39.664062 12.984375 39.617188 13.25 39.585938 13.515625 C 39.460938 14.558594 39.5 15.621094 39.917969 16.597656 C 40.589844 18.15625 41.921875 19.230469 43.160156 20.324219 C 43.390625 20.523438 43.625 20.839844 43.921875 20.925781 C 44.289062 21.03125 44.695312 20.824219 44.824219 20.46875 C 44.871094 20.332031 44.867188 20.195312 44.867188 20.054688 C 44.867188 19.863281 44.867188 19.667969 44.867188 19.472656 C 44.867188 19.355469 44.867188 19.234375 44.867188 19.117188 C 45.210938 19.300781 45.527344 19.535156 45.800781 19.808594 C 46.527344 20.535156 46.976562 21.527344 46.976562 22.632812 C 46.976562 23.738281 46.527344 24.730469 45.800781 25.457031 C 45.296875 25.960938 44.65625 26.324219 43.945312 26.5 Z M 33.378906 85.613281 C 33.003906 85.15625 32.785156 84.574219 32.785156 83.964844 C 32.785156 83.800781 32.800781 83.636719 32.832031 83.46875 L 34.960938 72.414062 C 35.082031 71.785156 35.414062 71.261719 35.875 70.886719 C 36.332031 70.511719 36.914062 70.296875 37.527344 70.296875 C 37.691406 70.296875 37.859375 70.3125 38.027344 70.34375 L 44.410156 71.5625 C 44.8125 71.65625 45.21875 71.878906 45.5 72.167969 C 45.644531 72.316406 45.753906 72.480469 45.828125 72.652344 C 45.90625 72.824219 45.945312 73.007812 45.949219 73.214844 C 45.945312 73.421875 45.902344 73.65625 45.789062 73.929688 C 45.671875 74.199219 45.484375 74.503906 45.195312 74.835938 C 45.148438 74.886719 45.117188 74.945312 45.089844 75.003906 C 44.945312 74.953125 44.800781 74.910156 44.648438 74.878906 L 41.492188 74.277344 C 41.101562 74.203125 40.722656 74.457031 40.648438 74.847656 C 40.574219 75.234375 40.832031 75.609375 41.21875 75.683594 L 44.378906 76.289062 C 44.722656 76.355469 45.011719 76.535156 45.21875 76.789062 C 45.429688 77.042969 45.550781 77.367188 45.546875 77.699219 C 45.546875 77.789062 45.539062 77.878906 45.523438 77.96875 C 45.457031 78.3125 45.273438 78.601562 45.019531 78.808594 C 44.765625 79.015625 44.441406 79.136719 44.105469 79.136719 C 44.015625 79.136719 43.925781 79.128906 43.835938 79.109375 L 40.675781 78.507812 C 40.285156 78.433594 39.910156 78.6875 39.835938 79.074219 C 39.761719 79.464844 40.015625 79.839844 40.40625 79.914062 L 43.5625 80.519531 C 43.90625 80.582031 44.195312 80.765625 44.40625 81.019531 C 44.613281 81.273438 44.734375 81.597656 44.734375 81.929688 C 44.734375 82.019531 44.726562 82.109375 44.707031 82.199219 C 44.640625 82.542969 44.460938 82.832031 44.203125 83.039062 C 43.949219 83.246094 43.625 83.367188 43.289062 83.367188 C 43.203125 83.367188 43.109375 83.355469 43.019531 83.339844 L 39.863281 82.738281 C 39.472656 82.660156 39.097656 82.917969 39.019531 83.304688 C 38.945312 83.695312 39.203125 84.070312 39.59375 84.144531 L 42.75 84.746094 C 42.902344 84.777344 43.054688 84.789062 43.203125 84.792969 C 43.207031 84.859375 43.214844 84.925781 43.238281 84.988281 C 43.394531 85.429688 43.453125 85.800781 43.453125 86.105469 C 43.453125 86.417969 43.394531 86.660156 43.300781 86.855469 C 43.160156 87.152344 42.9375 87.367188 42.640625 87.527344 C 42.351562 87.683594 41.988281 87.765625 41.632812 87.765625 C 41.515625 87.765625 41.402344 87.757812 41.292969 87.742188 L 36.195312 86.765625 L 34.910156 86.523438 C 34.28125 86.402344 33.753906 86.070312 33.378906 85.613281 Z M 46.28125 75.777344 C 46.347656 75.699219 46.410156 75.621094 46.46875 75.542969 L 46.390625 75.957031 C 46.371094 75.933594 46.355469 75.90625 46.335938 75.882812 C 46.308594 75.855469 46.285156 75.828125 46.257812 75.796875 C 46.265625 75.789062 46.273438 75.785156 46.28125 75.777344 Z M 29.527344 142.703125 L 27.367188 136.355469 C 27.625 136.246094 27.902344 136.1875 28.171875 136.1875 C 28.453125 136.1875 28.714844 136.246094 28.933594 136.359375 C 29.148438 136.472656 29.324219 136.625 29.453125 136.847656 C 29.484375 136.898438 29.519531 136.949219 29.558594 136.992188 C 29.601562 137.28125 29.820312 137.519531 30.121094 137.578125 C 30.375 137.628906 30.625 137.53125 30.785156 137.347656 C 30.839844 137.328125 30.894531 137.308594 30.945312 137.285156 C 31.078125 137.21875 31.175781 137.140625 31.253906 137.070312 C 31.394531 136.949219 31.492188 136.832031 31.589844 136.726562 C 31.734375 136.566406 31.867188 136.4375 32.007812 136.351562 C 32.078125 136.308594 32.148438 136.273438 32.234375 136.25 C 32.316406 136.226562 32.414062 136.210938 32.535156 136.210938 C 32.625 136.210938 32.730469 136.21875 32.855469 136.242188 C 33.136719 136.296875 33.300781 136.382812 33.421875 136.472656 C 33.507812 136.542969 33.574219 136.617188 33.636719 136.707031 C 33.726562 136.839844 33.796875 137.011719 33.867188 137.210938 C 33.90625 137.308594 33.945312 137.414062 33.996094 137.527344 C 34.050781 137.644531 34.113281 137.773438 34.238281 137.914062 C 34.277344 137.957031 34.320312 137.996094 34.367188 138.035156 C 34.449219 138.261719 34.640625 138.441406 34.894531 138.492188 C 35.195312 138.550781 35.488281 138.40625 35.636719 138.15625 C 35.6875 138.128906 35.738281 138.09375 35.785156 138.058594 C 36.027344 137.871094 36.289062 137.792969 36.589844 137.789062 C 36.898438 137.789062 37.242188 137.890625 37.542969 138.082031 C 37.675781 138.164062 37.796875 138.261719 37.90625 138.371094 L 33.542969 143.46875 Z M 34.703125 135.777344 C 34.636719 135.691406 34.5625 135.605469 34.476562 135.523438 C 34.316406 135.371094 34.121094 135.230469 33.894531 135.113281 C 33.667969 135 33.410156 134.914062 33.121094 134.859375 C 32.917969 134.820312 32.722656 134.800781 32.535156 134.800781 C 32.152344 134.800781 31.804688 134.882812 31.519531 135.015625 C 31.445312 135.050781 31.378906 135.089844 31.3125 135.125 L 39.675781 91.695312 C 39.746094 91.3125 39.496094 90.941406 39.113281 90.871094 C 38.730469 90.796875 38.359375 91.046875 38.285156 91.429688 L 29.847656 135.265625 C 29.757812 135.207031 29.667969 135.152344 29.574219 135.105469 C 29.136719 134.882812 28.652344 134.78125 28.171875 134.78125 C 27.953125 134.78125 27.734375 134.804688 27.515625 134.847656 L 36.480469 88.28125 L 41.058594 89.15625 L 41.070312 89.15625 C 41.253906 89.183594 41.445312 89.199219 41.632812 89.199219 C 42.015625 89.199219 42.402344 89.140625 42.773438 89.019531 C 43.207031 88.882812 43.621094 88.652344 43.972656 88.324219 Z M 44.671875 84.753906 C 44.648438 84.671875 44.625 84.59375 44.597656 84.515625 C 44.59375 84.503906 44.589844 84.496094 44.585938 84.488281 C 44.636719 84.460938 44.6875 84.433594 44.738281 84.40625 Z M 45.566406 80.171875 C 45.566406 80.171875 45.5625 80.171875 45.5625 80.171875 C 45.5625 80.167969 45.566406 80.167969 45.566406 80.167969 Z M 49.476562 129.007812 L 41.597656 129.007812 L 47.476562 98.464844 Z M 53.628906 57.457031 L 38.332031 136.910156 C 38.320312 136.902344 38.308594 136.894531 38.296875 136.886719 C 37.785156 136.570312 37.199219 136.382812 36.589844 136.382812 C 36.398438 136.382812 36.207031 136.402344 36.015625 136.441406 L 51.601562 56.648438 L 53.816406 57.074219 C 53.726562 57.179688 53.65625 57.308594 53.628906 57.457031 Z M 60.972656 40.207031 C 61.601562 40.328125 62.128906 40.660156 62.503906 41.117188 C 62.878906 41.574219 63.097656 42.152344 63.097656 42.765625 C 63.097656 42.925781 63.082031 43.09375 63.046875 43.257812 L 60.921875 54.316406 C 60.800781 54.941406 60.46875 55.46875 60.007812 55.84375 C 59.546875 56.214844 58.964844 56.433594 58.351562 56.433594 C 58.191406 56.433594 58.023438 56.417969 57.855469 56.386719 L 51.472656 55.164062 C 51.070312 55.074219 50.664062 54.851562 50.382812 54.558594 C 50.238281 54.410156 50.128906 54.25 50.050781 54.078125 C 49.976562 53.902344 49.933594 53.71875 49.933594 53.515625 C 49.933594 53.304688 49.976562 53.070312 50.09375 52.800781 C 50.210938 52.53125 50.398438 52.222656 50.6875 51.890625 C 50.734375 51.839844 50.765625 51.785156 50.792969 51.726562 C 50.933594 51.777344 51.082031 51.820312 51.234375 51.847656 L 54.390625 52.453125 C 54.78125 52.527344 55.15625 52.269531 55.234375 51.882812 C 55.308594 51.492188 55.050781 51.117188 54.660156 51.042969 L 51.503906 50.441406 C 51.160156 50.375 50.871094 50.191406 50.660156 49.9375 C 50.453125 49.683594 50.332031 49.363281 50.332031 49.027344 C 50.332031 48.941406 50.34375 48.851562 50.359375 48.757812 C 50.425781 48.417969 50.609375 48.128906 50.863281 47.921875 C 51.117188 47.710938 51.441406 47.59375 51.777344 47.59375 C 51.867188 47.59375 51.957031 47.601562 52.046875 47.617188 L 55.203125 48.222656 C 55.59375 48.296875 55.972656 48.042969 56.046875 47.652344 C 56.121094 47.265625 55.867188 46.890625 55.476562 46.8125 L 52.316406 46.210938 C 51.972656 46.144531 51.683594 45.964844 51.476562 45.707031 C 51.269531 45.453125 51.148438 45.132812 51.148438 44.796875 C 51.148438 44.710938 51.15625 44.621094 51.171875 44.53125 C 51.238281 44.1875 51.421875 43.898438 51.675781 43.691406 C 51.933594 43.484375 52.253906 43.363281 52.589844 43.363281 C 52.679688 43.363281 52.769531 43.371094 52.859375 43.390625 L 56.019531 43.992188 C 56.410156 44.066406 56.785156 43.8125 56.859375 43.421875 C 56.9375 43.035156 56.679688 42.660156 56.289062 42.585938 L 53.132812 41.980469 C 52.980469 41.953125 52.828125 41.9375 52.679688 41.933594 C 52.675781 41.871094 52.664062 41.804688 52.644531 41.742188 C 52.488281 41.296875 52.425781 40.925781 52.425781 40.621094 C 52.429688 40.3125 52.488281 40.070312 52.582031 39.871094 C 52.722656 39.578125 52.945312 39.359375 53.238281 39.203125 C 53.53125 39.046875 53.894531 38.960938 54.25 38.964844 C 54.363281 38.964844 54.476562 38.972656 54.585938 38.988281 L 59.6875 39.960938 Z M 54.507812 7.179688 L 51.351562 23.554688 C 51.28125 23.9375 51.53125 24.308594 51.914062 24.378906 C 52.296875 24.453125 52.667969 24.203125 52.742188 23.820312 L 55.894531 7.445312 L 59.632812 8.160156 L 53.972656 37.121094 C 53.945312 37.269531 53.964844 37.410156 54.019531 37.539062 C 53.714844 37.558594 53.40625 37.613281 53.109375 37.707031 C 52.550781 37.886719 52.019531 38.214844 51.621094 38.710938 C 51.226562 39.207031 50.984375 39.871094 50.988281 40.621094 C 50.988281 41.113281 51.085938 41.644531 51.285156 42.214844 C 51.289062 42.222656 51.292969 42.230469 51.296875 42.242188 C 51.109375 42.335938 50.929688 42.449219 50.769531 42.582031 C 50.265625 42.988281 49.890625 43.574219 49.761719 44.261719 C 49.726562 44.441406 49.710938 44.621094 49.710938 44.796875 C 49.710938 45.449219 49.933594 46.066406 50.320312 46.558594 C 50.191406 46.632812 50.070312 46.714844 49.953125 46.808594 C 49.449219 47.21875 49.078125 47.804688 48.945312 48.488281 C 48.910156 48.667969 48.894531 48.851562 48.894531 49.027344 C 48.894531 49.703125 49.136719 50.34375 49.546875 50.84375 C 49.570312 50.875 49.597656 50.902344 49.625 50.929688 C 49.617188 50.9375 49.609375 50.945312 49.601562 50.953125 C 49.230469 51.378906 48.953125 51.808594 48.769531 52.238281 C 48.585938 52.671875 48.496094 53.101562 48.496094 53.515625 C 48.496094 53.921875 48.582031 54.308594 48.734375 54.648438 C 48.960938 55.167969 49.324219 55.585938 49.746094 55.90625 C 49.902344 56.027344 50.070312 56.125 50.246094 56.21875 L 47.148438 72.074219 C 46.921875 71.558594 46.558594 71.140625 46.136719 70.820312 C 45.710938 70.503906 45.226562 70.28125 44.726562 70.164062 L 44.710938 70.164062 L 40.136719 69.289062 L 52.179688 6.734375 Z M 54.507812 7.179688 "/>
<path style=" stroke:none;fill-rule:nonzero;fill:rgb(13.72549%,9.411765%,8.235294%);fill-opacity:1;" d="M 43.242188 69.425781 C 43.625 69.5 43.996094 69.25 44.070312 68.867188 L 52.003906 27.65625 C 52.078125 27.273438 51.824219 26.90625 51.441406 26.832031 C 51.058594 26.757812 50.6875 27.007812 50.613281 27.390625 L 42.679688 68.601562 C 42.605469 68.984375 42.859375 69.351562 43.242188 69.425781 Z M 43.242188 69.425781 "/>
<path style=" stroke:none;fill-rule:nonzero;fill:rgb(13.72549%,9.411765%,8.235294%);fill-opacity:1;" d="M 33.792969 15.847656 C 34.351562 15.597656 34.996094 15.597656 35.554688 15.847656 C 35.921875 16 36.398438 16.050781 36.683594 15.800781 C 36.972656 15.558594 36.777344 14.886719 36.121094 14.59375 C 35.203125 14.183594 34.144531 14.183594 33.226562 14.59375 C 32.570312 14.886719 32.375 15.558594 32.664062 15.800781 C 32.949219 16.050781 33.425781 16 33.792969 15.847656 Z M 33.792969 15.847656 "/>
<path style=" stroke:none;fill-rule:nonzero;fill:rgb(13.72549%,9.411765%,8.235294%);fill-opacity:1;" d="M 23.222656 15.847656 C 23.78125 15.597656 24.425781 15.597656 24.984375 15.847656 C 25.351562 16 25.828125 16.050781 26.113281 15.800781 C 26.402344 15.558594 26.207031 14.886719 25.550781 14.59375 C 24.632812 14.183594 23.574219 14.183594 22.65625 14.59375 C 22 14.886719 21.804688 15.558594 22.09375 15.800781 C 22.378906 16.050781 22.855469 16 23.222656 15.847656 Z M 23.222656 15.847656 "/>
<path style=" stroke:none;fill-rule:nonzero;fill:rgb(13.72549%,9.411765%,8.235294%);fill-opacity:1;" d="M 25.625 21.117188 C 25.625 20.28125 24.945312 19.601562 24.105469 19.601562 C 23.261719 19.601562 22.582031 20.28125 22.582031 21.117188 C 22.582031 21.953125 23.261719 22.632812 24.105469 22.632812 C 24.945312 22.632812 25.625 21.953125 25.625 21.117188 Z M 25.625 21.117188 "/>
<path style=" stroke:none;fill-rule:nonzero;fill:rgb(13.72549%,9.411765%,8.235294%);fill-opacity:1;" d="M 36.195312 21.117188 C 36.195312 20.28125 35.511719 19.601562 34.671875 19.601562 C 33.835938 19.601562 33.152344 20.285156 33.152344 21.117188 C 33.152344 21.949219 33.835938 22.632812 34.671875 22.632812 C 35.511719 22.632812 36.195312 21.949219 36.195312 21.117188 Z M 36.195312 21.117188 "/>
<path style=" stroke:none;fill-rule:nonzero;fill:rgb(13.72549%,9.411765%,8.235294%);fill-opacity:1;" d="M 30.308594 26.539062 C 30.523438 26.539062 30.699219 26.363281 30.699219 26.148438 C 30.699219 25.933594 30.523438 25.757812 30.308594 25.757812 L 29.167969 25.757812 C 28.898438 25.757812 28.652344 25.609375 28.527344 25.371094 L 28.425781 25.171875 C 28.339844 25 28.078125 25.0625 28.078125 25.253906 L 28.078125 26.015625 C 28.078125 26.304688 28.3125 26.535156 28.601562 26.535156 L 30.308594 26.535156 Z M 30.308594 26.539062 "/>
<path style=" stroke:none;fill-rule:nonzero;fill:rgb(13.72549%,9.411765%,8.235294%);fill-opacity:1;" d="M 32.492188 29.066406 C 32.320312 28.863281 31.996094 28.847656 31.75 29 C 31.546875 29.125 31.429688 29.347656 31.453125 29.558594 C 30.148438 30.171875 28.628906 30.171875 27.324219 29.558594 C 27.347656 29.34375 27.230469 29.125 27.027344 29 C 26.78125 28.847656 26.457031 28.863281 26.285156 29.066406 C 26.109375 29.285156 25.9375 29.5 25.761719 29.71875 C 25.589844 29.921875 25.71875 30.308594 26.074219 30.527344 C 26.367188 30.707031 26.691406 30.703125 26.851562 30.554688 C 28.453125 31.308594 30.320312 31.308594 31.925781 30.554688 C 32.085938 30.699219 32.410156 30.710938 32.703125 30.527344 C 33.058594 30.308594 33.1875 29.921875 33.015625 29.71875 C 32.839844 29.5 32.667969 29.285156 32.492188 29.066406 Z M 32.492188 29.066406 "/>
<path style=" stroke:none;fill-rule:nonzero;fill:rgb(13.72549%,9.411765%,8.235294%);fill-opacity:1;" d="M 34.746094 16.691406 C 34.179688 16.691406 33.625 16.796875 33.101562 16.996094 C 32.777344 17.121094 32.617188 17.484375 32.742188 17.808594 C 32.832031 18.046875 33.070312 18.207031 33.328125 18.207031 C 33.40625 18.207031 33.480469 18.191406 33.554688 18.164062 C 33.933594 18.019531 34.335938 17.945312 34.746094 17.945312 C 35.632812 17.945312 36.46875 18.289062 37.09375 18.914062 C 37.722656 19.539062 38.066406 20.367188 38.066406 21.25 C 38.066406 22.132812 37.722656 22.960938 37.09375 23.585938 C 36.46875 24.210938 35.632812 24.554688 34.746094 24.554688 C 33.863281 24.554688 33.027344 24.210938 32.402344 23.585938 C 31.773438 22.960938 31.429688 22.132812 31.429688 21.25 C 31.429688 20.566406 31.636719 19.910156 32.03125 19.351562 C 32.128906 19.214844 32.164062 19.050781 32.136719 18.882812 C 32.105469 18.71875 32.015625 18.574219 31.878906 18.480469 C 31.773438 18.40625 31.648438 18.367188 31.519531 18.367188 C 31.3125 18.367188 31.121094 18.464844 31.003906 18.632812 C 30.589844 19.21875 30.320312 19.90625 30.21875 20.625 L 28.5625 20.625 C 28.425781 19.648438 27.96875 18.726562 27.265625 18.027344 C 26.402344 17.167969 25.253906 16.691406 24.03125 16.691406 C 23.460938 16.691406 22.90625 16.796875 22.382812 16.996094 C 22.058594 17.121094 21.898438 17.484375 22.023438 17.808594 C 22.117188 18.046875 22.351562 18.207031 22.609375 18.207031 C 22.6875 18.207031 22.761719 18.191406 22.835938 18.164062 C 23.214844 18.019531 23.617188 17.945312 24.03125 17.945312 C 24.914062 17.945312 25.75 18.289062 26.375 18.914062 C 27.003906 19.539062 27.347656 20.367188 27.347656 21.25 C 27.347656 22.132812 27.003906 22.960938 26.375 23.585938 C 25.75 24.210938 24.914062 24.554688 24.03125 24.554688 C 23.144531 24.554688 22.3125 24.210938 21.683594 23.585938 C 21.058594 22.960938 20.710938 22.132812 20.710938 21.25 C 20.710938 20.566406 20.917969 19.910156 21.3125 19.351562 C 21.410156 19.214844 21.445312 19.046875 21.417969 18.882812 C 21.390625 18.71875 21.296875 18.574219 21.160156 18.480469 C 21.054688 18.40625 20.929688 18.367188 20.800781 18.367188 C 20.59375 18.367188 20.402344 18.464844 20.285156 18.632812 C 19.742188 19.402344 19.453125 20.304688 19.453125 21.25 C 19.453125 22.46875 19.929688 23.613281 20.796875 24.472656 C 21.65625 25.332031 22.804688 25.808594 24.03125 25.808594 C 25.253906 25.808594 26.402344 25.332031 27.265625 24.472656 C 27.96875 23.773438 28.425781 22.855469 28.5625 21.875 L 30.21875 21.875 C 30.351562 22.855469 30.8125 23.773438 31.511719 24.472656 C 32.375 25.332031 33.523438 25.808594 34.75 25.808594 C 35.972656 25.808594 37.121094 25.332031 37.984375 24.472656 C 38.847656 23.613281 39.324219 22.46875 39.324219 21.25 C 39.324219 20.03125 38.847656 18.886719 37.984375 18.027344 C 37.121094 17.167969 35.972656 16.691406 34.746094 16.691406 Z M 34.746094 16.691406 "/>
</g>
</svg>
