<?xml version="1.0" encoding="UTF-8"?>
<svg xmlns="http://www.w3.org/2000/svg" xmlns:xlink="http://www.w3.org/1999/xlink" width="51px" height="150px" viewBox="0 0 51 148" version="1.1">
<g id="surface1">
<path style=" stroke:none;fill-rule:nonzero;fill:rgb(39.215686%,67.058824%,73.72549%);fill-opacity:1;" d="M 51 50.160156 L 51 135.3125 C 51 139.804688 48.910156 147.113281 46.816406 147.394531 C 45.996094 147.503906 40.585938 148.253906 39.269531 147.910156 C 37.230469 147.375 35.148438 146.09375 35.148438 146.09375 C 35.148438 146.09375 32.101562 147.910156 29.382812 147.910156 L 21.617188 147.910156 C 18.898438 147.910156 15.851562 146.09375 15.851562 146.09375 C 15.851562 146.09375 13.765625 147.375 11.726562 147.910156 C 10.414062 148.253906 5 147.503906 4.179688 147.394531 C 2.089844 147.113281 0 139.804688 0 135.3125 L 0 50.160156 C 0 40.832031 4.390625 33.429688 8.527344 28.195312 C 12.203125 23.539062 15.679688 20.597656 15.679688 19.539062 C 15.679688 17.289062 15.679688 11.667969 15.679688 11.667969 L 35.320312 11.667969 C 35.320312 11.667969 35.320312 17.289062 35.320312 19.539062 C 35.320312 20.597656 38.796875 23.539062 42.472656 28.195312 C 46.609375 33.429688 51 40.832031 51 50.160156 Z M 51 50.160156 "/>
<path style=" stroke:none;fill-rule:nonzero;fill:rgb(42.352941%,69.803922%,76.862745%);fill-opacity:1;" d="M 15.894531 11.667969 L 35.078125 11.667969 C 35.078125 11.667969 35.078125 17.265625 35.078125 19.503906 C 35.078125 20.558594 38.472656 23.488281 42.066406 28.125 C 46.105469 33.339844 50.394531 40.707031 50.394531 49.996094 L 50.394531 134.78125 C 50.394531 139.257812 48.351562 146.535156 46.308594 146.8125 C 45.851562 146.878906 43.664062 147.25 42.296875 147.222656 C 41.785156 147.210938 41.265625 147.074219 40.792969 147.050781 C 39.65625 146.992188 38.953125 146.214844 38.554688 145.261719 C 38.007812 143.964844 37.097656 142.636719 36.503906 142.320312 C 36.117188 142.117188 35.8125 142.167969 35.71875 142.480469 C 35.414062 143.484375 32.460938 146.980469 30.28125 147.050781 C 30.023438 147.175781 28.183594 147.328125 27.824219 147.328125 L 23.609375 147.328125 C 23.269531 147.328125 21.511719 147.191406 21.257812 147.070312 C 21.21875 147.054688 20.632812 146.933594 20.554688 146.742188 C 18.21875 146.023438 15.402344 142.957031 15.1875 142.265625 C 15.132812 142.078125 14.960938 142.050781 14.722656 142.183594 C 14.171875 142.488281 13.09375 143.992188 12.449219 145.402344 C 12.042969 146.292969 11.390625 147.003906 10.300781 147.058594 C 9.816406 147.085938 9.28125 147.222656 8.75 147.230469 C 7.355469 147.257812 5.128906 146.878906 4.660156 146.8125 C 2.617188 146.535156 0.578125 139.257812 0.578125 134.785156 L 0.578125 49.996094 C 0.578125 40.707031 4.867188 33.339844 8.90625 28.125 C 12.5 23.488281 15.894531 20.5625 15.894531 19.503906 C 15.894531 17.265625 15.894531 11.667969 15.894531 11.667969 Z M 15.894531 11.667969 "/>
<path style=" stroke:none;fill-rule:nonzero;fill:rgb(44.705882%,72.54902%,79.607843%);fill-opacity:1;" d="M 16.105469 11.667969 L 34.835938 11.667969 C 34.835938 11.667969 34.835938 17.242188 34.835938 19.472656 C 34.835938 20.523438 38.152344 23.4375 41.660156 28.054688 C 45.601562 33.246094 49.792969 40.585938 49.792969 49.832031 L 49.792969 134.253906 C 49.792969 138.710938 47.796875 145.957031 45.804688 146.234375 C 45.246094 146.3125 42.148438 146.828125 40.84375 146.675781 C 40.207031 146.601562 39.582031 146.3125 39.023438 146.21875 C 38.152344 146.070312 37.910156 144.46875 37.835938 142.613281 C 37.753906 140.527344 37.417969 138.285156 37.019531 138.074219 C 36.761719 137.941406 36.480469 138.246094 36.289062 138.867188 C 35.675781 140.875 32.824219 146.050781 31.183594 146.1875 C 30.664062 146.441406 28.925781 146.746094 28.207031 146.746094 L 23.046875 146.746094 C 22.367188 146.746094 20.710938 146.472656 20.199219 146.230469 C 20.125 146.195312 19.652344 145.953125 19.496094 145.574219 C 17.539062 144.132812 14.953125 139.820312 14.527344 138.4375 C 14.414062 138.066406 14.25 137.898438 14.09375 137.984375 C 13.726562 138.1875 13.296875 140.691406 13.167969 142.894531 C 13.0625 144.640625 12.835938 146.078125 12.007812 146.21875 C 11.4375 146.316406 10.800781 146.605469 10.148438 146.679688 C 8.828125 146.835938 5.699219 146.3125 5.140625 146.234375 C 3.148438 145.957031 1.15625 138.710938 1.15625 134.253906 L 1.15625 49.832031 C 1.15625 40.585938 5.339844 33.246094 9.285156 28.054688 C 12.792969 23.4375 16.105469 20.523438 16.105469 19.472656 C 16.105469 17.242188 16.105469 11.667969 16.105469 11.667969 Z M 16.105469 11.667969 "/>
<path style=" stroke:none;fill-rule:nonzero;fill:rgb(47.058824%,74.901961%,81.960784%);fill-opacity:1;" d="M 16.320312 11.667969 L 34.597656 11.667969 C 34.597656 11.667969 34.597656 17.21875 34.597656 19.4375 C 34.597656 20.484375 37.832031 23.386719 41.253906 27.984375 C 45.101562 33.152344 49.1875 40.460938 49.1875 49.667969 L 49.1875 133.726562 C 49.1875 138.164062 47.242188 145.378906 45.296875 145.65625 C 44.644531 145.75 40.636719 146.382812 39.394531 146.128906 C 38.632812 145.972656 37.898438 145.582031 37.253906 145.382812 C 36.648438 145.199219 36.808594 142.679688 37.117188 139.96875 C 37.457031 137.027344 37.734375 133.9375 37.535156 133.832031 C 37.40625 133.761719 37.144531 134.320312 36.859375 135.25 C 35.941406 138.261719 33.183594 145.121094 32.082031 145.328125 C 31.308594 145.707031 29.667969 146.164062 28.585938 146.164062 L 22.484375 146.164062 C 21.464844 146.164062 19.910156 145.757812 19.140625 145.390625 C 19.03125 145.339844 18.738281 144.945312 18.4375 144.40625 C 17.128906 142.078125 14.503906 136.683594 13.867188 134.609375 C 13.695312 134.050781 13.546875 133.742188 13.46875 133.785156 C 13.28125 133.886719 13.558594 137.3125 13.886719 140.390625 C 14.15625 142.945312 14.289062 145.207031 13.714844 145.382812 C 13.066406 145.578125 12.320312 145.976562 11.550781 146.132812 C 10.296875 146.386719 6.273438 145.75 5.621094 145.65625 C 3.675781 145.378906 1.730469 138.164062 1.730469 133.726562 L 1.730469 49.667969 C 1.730469 40.460938 5.816406 33.152344 9.664062 27.984375 C 13.085938 23.386719 16.320312 20.484375 16.320312 19.4375 C 16.320312 17.21875 16.320312 11.667969 16.320312 11.667969 Z M 16.320312 11.667969 "/>
<path style=" stroke:none;fill-rule:nonzero;fill:rgb(49.803922%,77.647059%,84.705882%);fill-opacity:1;" d="M 48.582031 49.503906 L 48.582031 133.199219 C 48.582031 137.617188 46.683594 144.800781 44.789062 145.074219 C 44.042969 145.183594 39.132812 145.921875 37.941406 145.582031 C 37.0625 145.332031 36.175781 144.917969 35.484375 144.550781 C 34.722656 144.144531 38.050781 129.585938 38.050781 129.585938 C 38.050781 129.585938 33.71875 144.105469 32.984375 144.46875 C 31.949219 144.972656 30.410156 145.582031 28.96875 145.582031 L 21.921875 145.582031 C 20.5625 145.582031 19.109375 145.039062 18.082031 144.550781 C 17.246094 144.15625 12.839844 129.585938 12.839844 129.585938 C 12.839844 129.585938 16.175781 144.140625 15.421875 144.542969 C 14.726562 144.910156 13.835938 145.332031 12.949219 145.582031 C 11.757812 145.921875 6.847656 145.183594 6.101562 145.074219 C 4.207031 144.800781 2.308594 137.617188 2.308594 133.199219 L 2.308594 49.503906 C 2.308594 40.335938 6.292969 33.058594 10.042969 27.914062 C 13.382812 23.335938 16.535156 20.445312 16.535156 19.402344 C 16.535156 17.195312 16.535156 11.667969 16.535156 11.667969 L 34.355469 11.667969 C 34.355469 11.667969 34.355469 17.195312 34.355469 19.402344 C 34.355469 20.445312 37.507812 23.335938 40.847656 27.914062 C 44.597656 33.058594 48.582031 40.335938 48.582031 49.503906 Z M 48.582031 49.503906 "/>
<path style=" stroke:none;fill-rule:nonzero;fill:rgb(81.176471%,81.176471%,81.176471%);fill-opacity:1;" d="M 42.472656 28.195312 L 8.527344 28.195312 C 12.203125 23.539062 15.679688 20.597656 15.679688 19.539062 C 15.679688 17.289062 15.679688 11.667969 15.679688 11.667969 L 35.320312 11.667969 C 35.320312 11.667969 35.320312 17.289062 35.320312 19.539062 C 35.320312 20.597656 38.796875 23.539062 42.472656 28.195312 Z M 42.472656 28.195312 "/>
<path style=" stroke:none;fill-rule:nonzero;fill:rgb(83.921569%,83.921569%,83.921569%);fill-opacity:1;" d="M 42.039062 28.195312 L 8.894531 28.195312 C 12.484375 23.539062 15.878906 20.597656 15.878906 19.539062 C 15.878906 17.289062 15.878906 11.667969 15.878906 11.667969 L 35.054688 11.667969 C 35.054688 11.667969 35.054688 17.289062 35.054688 19.539062 C 35.054688 20.597656 38.449219 23.539062 42.039062 28.195312 Z M 42.039062 28.195312 "/>
<path style=" stroke:none;fill-rule:nonzero;fill:rgb(87.058824%,87.058824%,87.058824%);fill-opacity:1;" d="M 41.605469 28.195312 L 9.261719 28.195312 C 12.765625 23.539062 16.078125 20.597656 16.078125 19.539062 C 16.078125 17.289062 16.078125 11.667969 16.078125 11.667969 L 34.789062 11.667969 C 34.789062 11.667969 34.789062 17.289062 34.789062 19.539062 C 34.789062 20.597656 38.101562 23.539062 41.605469 28.195312 Z M 41.605469 28.195312 "/>
<path style=" stroke:none;fill-rule:nonzero;fill:rgb(89.803922%,89.803922%,89.803922%);fill-opacity:1;" d="M 41.171875 28.195312 L 9.628906 28.195312 C 13.046875 23.539062 16.277344 20.597656 16.277344 19.539062 C 16.277344 17.289062 16.277344 11.667969 16.277344 11.667969 L 34.523438 11.667969 C 34.523438 11.667969 34.523438 17.289062 34.523438 19.539062 C 34.523438 20.597656 37.753906 23.539062 41.171875 28.195312 Z M 41.171875 28.195312 "/>
<path style=" stroke:none;fill-rule:nonzero;fill:rgb(92.54902%,92.54902%,92.54902%);fill-opacity:1;" d="M 40.738281 28.195312 L 9.996094 28.195312 C 13.328125 23.539062 16.472656 20.597656 16.472656 19.539062 C 16.472656 17.289062 16.472656 11.667969 16.472656 11.667969 L 34.257812 11.667969 C 34.257812 11.667969 34.257812 17.289062 34.257812 19.539062 C 34.257812 20.597656 37.40625 23.539062 40.738281 28.195312 Z M 40.738281 28.195312 "/>
<path style=" stroke:none;fill-rule:nonzero;fill:rgb(15.294118%,44.313725%,65.490196%);fill-opacity:1;" d="M 0 54.71875 L 51 54.71875 L 51 114.6875 L 0 114.6875 Z M 0 54.71875 "/>
<path style=" stroke:none;fill-rule:nonzero;fill:rgb(18.431373%,47.45098%,68.627451%);fill-opacity:1;" d="M 0.804688 54.722656 L 50.171875 54.722656 L 50.171875 114.6875 L 0.804688 114.6875 Z M 0.804688 54.722656 "/>
<path style=" stroke:none;fill-rule:nonzero;fill:rgb(21.176471%,50.196078%,71.372549%);fill-opacity:1;" d="M 1.609375 54.722656 L 49.34375 54.722656 L 49.34375 114.6875 L 1.609375 114.6875 Z M 1.609375 54.722656 "/>
<path style=" stroke:none;fill-rule:nonzero;fill:rgb(24.313725%,53.333333%,74.509804%);fill-opacity:1;" d="M 2.410156 54.722656 L 48.515625 54.722656 L 48.515625 114.6875 L 2.410156 114.6875 Z M 2.410156 54.722656 "/>
<path style=" stroke:none;fill-rule:nonzero;fill:rgb(27.058824%,56.078431%,77.254902%);fill-opacity:1;" d="M 3.214844 54.722656 L 47.6875 54.722656 L 47.6875 114.6875 L 3.214844 114.6875 Z M 3.214844 54.722656 "/>
<path style=" stroke:none;fill-rule:nonzero;fill:rgb(32.941176%,61.960784%,83.137255%);fill-opacity:1;" d="M 8.144531 54.722656 L 13.402344 54.722656 L 13.402344 114.6875 L 8.144531 114.6875 Z M 8.144531 54.722656 "/>
<path style=" stroke:none;fill-rule:nonzero;fill:rgb(20.392157%,45.098039%,100%);fill-opacity:1;" d="M 36.273438 9.546875 L 14.726562 9.546875 L 14.726562 1.578125 C 14.726562 0.707031 15.433594 0 16.3125 0 L 34.6875 0 C 35.5625 0 36.273438 0.707031 36.273438 1.578125 Z M 36.273438 9.546875 "/>
<path style=" stroke:none;fill-rule:nonzero;fill:rgb(24.313725%,49.019608%,100%);fill-opacity:1;" d="M 36.773438 14.320312 L 14.226562 14.320312 C 14.042969 14.320312 13.894531 14.171875 13.894531 13.992188 L 13.894531 9.878906 C 13.894531 9.695312 14.042969 9.546875 14.226562 9.546875 L 36.773438 9.546875 C 36.957031 9.546875 37.105469 9.695312 37.105469 9.878906 L 37.105469 13.992188 C 37.105469 14.171875 36.957031 14.320312 36.773438 14.320312 Z M 36.773438 14.320312 "/>
<path style=" stroke:none;fill-rule:nonzero;fill:rgb(81.176471%,81.176471%,81.176471%);fill-opacity:1;" d="M 15.679688 14.320312 L 35.320312 14.320312 L 35.320312 15.105469 L 15.679688 15.105469 Z M 15.679688 14.320312 "/>
<path style=" stroke:none;fill-rule:nonzero;fill:rgb(100%,100%,100%);fill-opacity:1;" d="M 22.914062 15.464844 C 22.914062 15.464844 13.523438 31.164062 13.523438 54.351562 L 8.15625 54.351562 C 8.15625 54.351562 9.628906 37.960938 14.613281 27.828125 C 18.285156 20.371094 21.097656 15.464844 21.097656 15.464844 Z M 22.914062 15.464844 "/>
<path style=" stroke:none;fill-rule:nonzero;fill:rgb(100%,100%,100%);fill-opacity:1;" d="M 13.402344 115.15625 L 13.402344 129.917969 C 13.402344 129.917969 13.917969 137.761719 14.023438 138.484375 C 14.125 139.207031 8.144531 130.835938 8.144531 115.15625 Z M 13.402344 115.15625 "/>
<path style=" stroke:none;fill-rule:nonzero;fill:rgb(100%,100%,100%);fill-opacity:1;" d="M 25.5 40.554688 C 25.5 39.882812 24.953125 39.335938 24.273438 39.335938 C 23.597656 39.335938 23.046875 39.882812 23.046875 40.554688 C 23.046875 41.230469 23.597656 41.773438 24.273438 41.773438 C 24.953125 41.773438 25.5 41.230469 25.5 40.554688 Z M 25.5 40.554688 "/>
<path style=" stroke:none;fill-rule:nonzero;fill:rgb(100%,100%,100%);fill-opacity:1;" d="M 33.976562 44.945312 C 33.976562 45.484375 33.539062 45.925781 32.992188 45.925781 C 32.449219 45.925781 32.007812 45.484375 32.007812 44.945312 C 32.007812 44.402344 32.449219 43.964844 32.992188 43.964844 C 33.539062 43.964844 33.976562 44.402344 33.976562 44.945312 Z M 33.976562 44.945312 "/>
<path style=" stroke:none;fill-rule:nonzero;fill:rgb(100%,100%,100%);fill-opacity:1;" d="M 18.367188 48.667969 C 18.367188 49.101562 18.015625 49.453125 17.582031 49.453125 C 17.144531 49.453125 16.792969 49.101562 16.792969 48.667969 C 16.792969 48.234375 17.144531 47.882812 17.582031 47.882812 C 18.015625 47.882812 18.367188 48.234375 18.367188 48.667969 Z M 18.367188 48.667969 "/>
<path style=" stroke:none;fill-rule:nonzero;fill:rgb(100%,100%,100%);fill-opacity:1;" d="M 37.105469 34.011719 C 37.105469 33.382812 36.59375 32.871094 35.960938 32.871094 C 35.328125 32.871094 34.816406 33.382812 34.816406 34.011719 C 34.816406 34.640625 35.328125 35.152344 35.960938 35.152344 C 36.59375 35.152344 37.105469 34.640625 37.105469 34.011719 Z M 37.105469 34.011719 "/>
<path style=" stroke:none;fill-rule:nonzero;fill:rgb(100%,100%,100%);fill-opacity:1;" d="M 43.09375 50.582031 C 43.09375 51.109375 42.664062 51.535156 42.132812 51.535156 C 41.601562 51.535156 41.171875 51.109375 41.171875 50.582031 C 41.171875 50.050781 41.601562 49.625 42.132812 49.625 C 42.664062 49.625 43.09375 50.050781 43.09375 50.582031 Z M 43.09375 50.582031 "/>
<path style=" stroke:none;fill-rule:nonzero;fill:rgb(100%,100%,100%);fill-opacity:1;" d="M 8.15625 33.855469 C 8.15625 34.113281 7.945312 34.324219 7.683594 34.324219 C 7.421875 34.324219 7.210938 34.113281 7.210938 33.855469 C 7.210938 33.59375 7.421875 33.382812 7.683594 33.382812 C 7.945312 33.382812 8.15625 33.59375 8.15625 33.855469 Z M 8.15625 33.855469 "/>
<path style=" stroke:none;fill-rule:nonzero;fill:rgb(100%,100%,100%);fill-opacity:1;" d="M 27.519531 121.683594 C 27.519531 121.851562 27.378906 121.988281 27.210938 121.988281 C 27.039062 121.988281 26.898438 121.851562 26.898438 121.683594 C 26.898438 121.511719 27.039062 121.375 27.210938 121.375 C 27.378906 121.375 27.519531 121.511719 27.519531 121.683594 Z M 27.519531 121.683594 "/>
<path style=" stroke:none;fill-rule:nonzero;fill:rgb(100%,100%,100%);fill-opacity:1;" d="M 38.730469 125.136719 C 38.730469 124.195312 37.960938 123.429688 37.015625 123.429688 C 36.066406 123.429688 35.300781 124.195312 35.300781 125.136719 C 35.300781 126.078125 36.066406 126.84375 37.015625 126.84375 C 37.960938 126.84375 38.730469 126.078125 38.730469 125.136719 Z M 38.730469 125.136719 "/>
<path style=" stroke:none;fill-rule:nonzero;fill:rgb(100%,100%,100%);fill-opacity:1;" d="M 26.507812 133.644531 C 26.507812 134.257812 26.007812 134.753906 25.390625 134.753906 C 24.773438 134.753906 24.273438 134.257812 24.273438 133.644531 C 24.273438 133.03125 24.773438 132.535156 25.390625 132.535156 C 26.007812 132.535156 26.507812 133.03125 26.507812 133.644531 Z M 26.507812 133.644531 "/>
<path style=" stroke:none;fill-rule:nonzero;fill:rgb(100%,100%,100%);fill-opacity:1;" d="M 19.683594 122.335938 C 19.683594 122.699219 19.390625 122.992188 19.027344 122.992188 C 18.664062 122.992188 18.367188 122.699219 18.367188 122.335938 C 18.367188 121.976562 18.664062 121.679688 19.027344 121.679688 C 19.390625 121.679688 19.683594 121.976562 19.683594 122.335938 Z M 19.683594 122.335938 "/>
<path style=" stroke:none;fill-rule:nonzero;fill:rgb(100%,100%,100%);fill-opacity:1;" d="M 16.542969 64.988281 C 16.542969 64.957031 16.554688 64.933594 16.574219 64.917969 C 16.597656 64.902344 16.625 64.902344 16.652344 64.914062 C 16.90625 65.015625 17.144531 65.0625 17.367188 65.0625 C 17.5625 65.0625 17.707031 65.003906 17.800781 64.878906 C 17.890625 64.757812 17.9375 64.550781 17.9375 64.261719 L 17.9375 62.300781 C 17.9375 62.253906 17.960938 62.230469 18.007812 62.230469 L 18.527344 62.230469 C 18.574219 62.230469 18.597656 62.253906 18.597656 62.300781 L 18.597656 64.386719 C 18.597656 64.800781 18.503906 65.105469 18.3125 65.292969 C 18.128906 65.476562 17.828125 65.570312 17.414062 65.570312 C 17.117188 65.570312 16.839844 65.527344 16.582031 65.441406 C 16.554688 65.429688 16.542969 65.40625 16.542969 65.382812 Z M 16.542969 64.988281 "/>
<path style=" stroke:none;fill-rule:nonzero;fill:rgb(100%,100%,100%);fill-opacity:1;" d="M 21.601562 62.6875 C 21.601562 62.730469 21.578125 62.753906 21.535156 62.753906 L 20.699219 62.753906 L 20.699219 65.460938 C 20.699219 65.503906 20.675781 65.527344 20.628906 65.527344 L 20.121094 65.527344 C 20.078125 65.527344 20.054688 65.503906 20.054688 65.460938 L 20.054688 62.753906 L 19.222656 62.753906 C 19.175781 62.753906 19.152344 62.730469 19.152344 62.6875 L 19.152344 62.300781 C 19.152344 62.253906 19.175781 62.230469 19.222656 62.230469 L 21.535156 62.230469 C 21.578125 62.230469 21.601562 62.253906 21.601562 62.300781 Z M 21.601562 62.6875 "/>
<path style=" stroke:none;fill-rule:nonzero;fill:rgb(100%,100%,100%);fill-opacity:1;" d="M 23.046875 62.277344 C 23.054688 62.246094 23.074219 62.230469 23.105469 62.230469 L 23.695312 62.230469 C 23.726562 62.230469 23.746094 62.246094 23.753906 62.277344 L 24.8125 65.421875 C 24.820312 65.449219 24.820312 65.476562 24.804688 65.496094 C 24.792969 65.515625 24.769531 65.527344 24.738281 65.527344 L 24.21875 65.527344 C 24.183594 65.527344 24.160156 65.511719 24.152344 65.484375 L 23.945312 64.734375 L 22.839844 64.734375 L 22.628906 65.484375 C 22.621094 65.511719 22.597656 65.527344 22.566406 65.527344 L 22.066406 65.527344 C 22.035156 65.527344 22.015625 65.515625 22.003906 65.496094 C 21.988281 65.476562 21.988281 65.449219 21.996094 65.421875 Z M 23.808594 64.25 L 23.394531 62.785156 L 23.386719 62.785156 L 22.980469 64.25 Z M 23.808594 64.25 "/>
<path style=" stroke:none;fill-rule:nonzero;fill:rgb(100%,100%,100%);fill-opacity:1;" d="M 25.308594 62.300781 C 25.308594 62.253906 25.332031 62.230469 25.375 62.230469 L 25.882812 62.230469 C 25.90625 62.230469 25.921875 62.242188 25.9375 62.265625 L 27.164062 64.472656 L 27.171875 64.472656 L 27.171875 62.300781 C 27.171875 62.253906 27.195312 62.230469 27.238281 62.230469 L 27.722656 62.230469 C 27.765625 62.230469 27.789062 62.253906 27.789062 62.300781 L 27.789062 65.460938 C 27.789062 65.503906 27.765625 65.527344 27.722656 65.527344 L 27.210938 65.527344 C 27.1875 65.527344 27.171875 65.515625 27.15625 65.496094 L 25.929688 63.28125 L 25.921875 63.28125 L 25.921875 65.460938 C 25.921875 65.503906 25.898438 65.527344 25.851562 65.527344 L 25.375 65.527344 C 25.332031 65.527344 25.308594 65.503906 25.308594 65.460938 Z M 25.308594 62.300781 "/>
<path style=" stroke:none;fill-rule:nonzero;fill:rgb(100%,100%,100%);fill-opacity:1;" d="M 31.078125 63.832031 C 31.078125 64.414062 30.933594 64.847656 30.648438 65.132812 C 30.363281 65.425781 29.949219 65.570312 29.410156 65.570312 C 29.257812 65.570312 29.109375 65.566406 28.96875 65.558594 C 28.828125 65.550781 28.691406 65.535156 28.554688 65.511719 C 28.519531 65.507812 28.503906 65.484375 28.503906 65.449219 L 28.503906 62.3125 C 28.503906 62.273438 28.519531 62.253906 28.554688 62.246094 C 28.691406 62.222656 28.828125 62.207031 28.96875 62.199219 C 29.109375 62.191406 29.257812 62.183594 29.410156 62.183594 C 29.949219 62.183594 30.359375 62.324219 30.648438 62.605469 C 30.933594 62.886719 31.078125 63.296875 31.078125 63.832031 Z M 30.464844 63.832031 C 30.464844 63.441406 30.382812 63.148438 30.21875 62.964844 C 30.050781 62.785156 29.792969 62.691406 29.441406 62.691406 C 29.328125 62.691406 29.222656 62.699219 29.128906 62.71875 L 29.128906 65.039062 C 29.222656 65.058594 29.328125 65.066406 29.441406 65.066406 C 29.792969 65.066406 30.054688 64.972656 30.222656 64.78125 C 30.382812 64.59375 30.464844 64.277344 30.464844 63.832031 Z M 30.464844 63.832031 "/>
<path style=" stroke:none;fill-rule:nonzero;fill:rgb(100%,100%,100%);fill-opacity:1;" d="M 32.417969 62.277344 C 32.425781 62.246094 32.449219 62.230469 32.480469 62.230469 L 33.070312 62.230469 C 33.101562 62.230469 33.117188 62.246094 33.128906 62.277344 L 34.1875 65.421875 C 34.195312 65.449219 34.191406 65.476562 34.179688 65.496094 C 34.167969 65.515625 34.144531 65.527344 34.109375 65.527344 L 33.59375 65.527344 C 33.558594 65.527344 33.535156 65.511719 33.527344 65.484375 L 33.316406 64.734375 L 32.214844 64.734375 L 32.003906 65.484375 C 31.992188 65.511719 31.972656 65.527344 31.941406 65.527344 L 31.441406 65.527344 C 31.410156 65.527344 31.390625 65.515625 31.375 65.496094 C 31.363281 65.476562 31.359375 65.449219 31.367188 65.421875 Z M 33.179688 64.25 L 32.769531 62.785156 L 32.761719 62.785156 L 32.351562 64.25 Z M 33.179688 64.25 "/>
<path style=" stroke:none;fill-rule:nonzero;fill:rgb(100%,100%,100%);fill-opacity:1;" d="M 23.769531 71.320312 C 22.425781 71.320312 21.339844 72.402344 21.339844 73.734375 C 21.339844 74.816406 22.050781 75.726562 23.03125 76.039062 L 23.03125 96.660156 C 21.691406 96.414062 17.820312 97.5625 19.867188 97.886719 C 21.914062 98.214844 26.195312 100.738281 26.195312 100.738281 L 26.195312 73.734375 C 26.195312 72.402344 25.109375 71.320312 23.769531 71.320312 Z M 23.769531 71.320312 "/>
<path style=" stroke:none;fill-rule:nonzero;fill:rgb(100%,100%,100%);fill-opacity:1;" d="M 13.367188 82.027344 C 13.238281 81.257812 12.757812 80.691406 11.585938 80.691406 C 10.582031 80.691406 9.769531 81.503906 9.769531 82.5 C 9.769531 83.5 10.582031 84.308594 11.585938 84.308594 C 11.742188 84.308594 11.890625 84.289062 12.035156 84.253906 L 12.03125 84.308594 L 17.367188 84.308594 C 17.367188 84.308594 17.328125 86.335938 10.316406 99.058594 C 18.445312 93.375 21.542969 82.027344 21.542969 82.027344 Z M 13.367188 82.027344 "/>
<path style=" stroke:none;fill-rule:nonzero;fill:rgb(100%,100%,100%);fill-opacity:1;" d="M 30.933594 86.167969 L 36.707031 82.027344 L 36.636719 81.90625 C 37.144531 81.585938 37.484375 81.023438 37.484375 80.378906 C 37.484375 79.378906 37.066406 78.570312 35.667969 78.570312 C 34.664062 78.570312 33.847656 79.378906 33.847656 80.378906 C 33.847656 80.472656 33.859375 80.566406 33.871094 80.660156 L 29.984375 84.847656 C 28.5625 82.777344 27.890625 81.40625 27.890625 81.40625 L 26.835938 81.40625 C 28.945312 88.324219 34.097656 95.675781 35.214844 96.292969 C 36.332031 96.910156 43.40625 97.714844 43.40625 97.714844 C 37.492188 94.011719 33.417969 89.507812 30.933594 86.167969 Z M 30.933594 86.167969 "/>
</g>
</svg>
