<?xml version="1.0" encoding="UTF-8"?>
<svg xmlns="http://www.w3.org/2000/svg" xmlns:xlink="http://www.w3.org/1999/xlink" width="150px" height="150px" viewBox="0 0 150 150" version="1.1">
<g id="surface1">
<path style=" stroke:none;fill-rule:nonzero;fill:rgb(100%,100%,100%);fill-opacity:1;" d="M 31.324219 133.5 L 118.675781 133.5 L 118.675781 35.738281 C 110.453125 32.257812 103.226562 27.128906 99.316406 16.5 L 31.324219 16.5 Z M 31.324219 133.5 "/>
<path style=" stroke:none;fill-rule:nonzero;fill:rgb(100%,100%,100%);fill-opacity:1;" d="M 45.265625 113.113281 L 45.265625 107.085938 L 104.734375 107.085938 L 104.734375 113.113281 Z M 45.265625 113.113281 "/>
<path style="fill:none;stroke-width:20;stroke-linecap:butt;stroke-linejoin:round;stroke:rgb(26.666667%,26.666667%,26.666667%);stroke-opacity:1;stroke-miterlimit:4;" d="M -145.585938 195 L 145.585938 195 L 145.585938 -130.872396 C 118.111979 -143.346354 89.778646 -154.544271 81.054688 -195 L -145.585938 -195 Z M -145.585938 195 " transform="matrix(0.3,0,0,0.3,75,75)"/>
<path style="fill-rule:nonzero;fill:rgb(100%,100%,100%);fill-opacity:1;stroke-width:20;stroke-linecap:butt;stroke-linejoin:round;stroke:rgb(26.666667%,26.666667%,26.666667%);stroke-opacity:1;stroke-miterlimit:4;" d="M 145.585938 -130.872396 L 81.080729 -130.872396 L 81.054688 -195 Z M 145.585938 -130.872396 " transform="matrix(0.3,0,0,0.3,75,75)"/>
<path style=" stroke:none;fill-rule:nonzero;fill:rgb(100%,100%,100%);fill-opacity:1;" d="M 45.265625 92.128906 L 45.265625 86.097656 L 104.734375 86.097656 L 104.734375 92.128906 Z M 45.265625 92.128906 "/>
<path style=" stroke:none;fill-rule:nonzero;fill:rgb(100%,100%,100%);fill-opacity:1;" d="M 45.265625 71.140625 L 45.265625 65.109375 L 104.734375 65.109375 L 104.734375 71.140625 Z M 45.265625 71.140625 "/>
<path style=" stroke:none;fill-rule:nonzero;fill:rgb(100%,100%,100%);fill-opacity:1;" d="M 45.265625 50.152344 L 45.265625 44.121094 L 104.734375 44.121094 L 104.734375 50.152344 Z M 45.265625 50.152344 "/>
<path style=" stroke:none;fill-rule:nonzero;fill:rgb(26.666667%,26.666667%,26.666667%);fill-opacity:1;" d="M 51.9375 74.304688 C 55.429688 74.304688 58.414062 72.972656 60.683594 70.34375 L 57.300781 66.3125 C 56.039062 67.679688 54.3125 68.761719 52.1875 68.761719 C 48.40625 68.761719 45.960938 65.664062 45.960938 60.335938 C 45.960938 55.117188 48.804688 52.019531 52.261719 52.019531 C 54.167969 52.019531 55.570312 52.882812 56.902344 54.109375 L 60.289062 50.003906 C 58.453125 48.132812 55.644531 46.511719 52.152344 46.511719 C 45.347656 46.511719 39.371094 51.625 39.371094 60.550781 C 39.371094 69.625 45.132812 74.304688 51.9375 74.304688 Z M 51.9375 74.304688 "/>
<path style=" stroke:none;fill-rule:nonzero;fill:rgb(26.666667%,26.666667%,26.666667%);fill-opacity:1;" d="M 74.113281 74.304688 C 80.59375 74.304688 84.335938 70.378906 84.335938 65.914062 C 84.335938 62.136719 82.355469 59.902344 79.042969 58.570312 L 75.695312 57.238281 C 73.320312 56.304688 71.628906 55.726562 71.628906 54.253906 C 71.628906 52.8125 72.851562 52.019531 74.832031 52.019531 C 76.921875 52.019531 78.574219 52.738281 80.339844 54.070312 L 83.542969 50.039062 C 81.203125 47.699219 77.929688 46.511719 74.832031 46.511719 C 69.144531 46.511719 65.113281 50.113281 65.113281 54.613281 C 65.113281 58.5 67.738281 60.839844 70.546875 61.957031 L 73.96875 63.394531 C 76.273438 64.367188 77.746094 64.871094 77.746094 66.421875 C 77.746094 67.859375 76.632812 68.761719 74.257812 68.761719 C 72.132812 68.761719 69.648438 67.644531 67.738281 66.023438 L 64.105469 70.453125 C 66.875 73.007812 70.621094 74.304688 74.113281 74.304688 Z M 74.113281 74.304688 "/>
<path style=" stroke:none;fill-rule:nonzero;fill:rgb(26.666667%,26.666667%,26.666667%);fill-opacity:1;" d="M 95.605469 73.800781 L 103.308594 73.800781 L 111.371094 47.015625 L 104.820312 47.015625 L 101.796875 59.21875 C 101.039062 62.101562 100.464844 64.871094 99.707031 67.789062 L 99.527344 67.789062 C 98.734375 64.871094 98.230469 62.101562 97.441406 59.21875 L 94.378906 47.015625 L 87.574219 47.015625 Z M 95.605469 73.800781 "/>
<path style=" stroke:none;fill-rule:nonzero;fill:rgb(26.666667%,26.666667%,26.666667%);fill-opacity:1;" d="M 75 87.550781 C 70.015625 87.550781 65.976562 91.5625 65.976562 96.507812 C 65.976562 101.453125 70.015625 105.464844 74.996094 105.46875 C 73.359375 109.757812 70.300781 113.582031 66.3125 117.09375 L 69.742188 119.449219 C 75.09375 115.203125 84.023438 107.308594 84.023438 96.507812 C 84.023438 91.558594 79.984375 87.550781 75 87.550781 Z M 75 87.550781 "/>
</g>
</svg>
