<?xml version="1.0" encoding="UTF-8"?>
<svg xmlns="http://www.w3.org/2000/svg" xmlns:xlink="http://www.w3.org/1999/xlink" width="130px" height="150px" viewBox="0 0 130 149" version="1.1">
<g id="surface1">
<path style=" stroke:none;fill-rule:nonzero;fill:rgb(100%,84.313725%,77.254902%);fill-opacity:1;" d="M 117.304688 44.804688 L 115.3125 44.726562 C 113.929688 44.675781 112.835938 43.542969 112.835938 42.164062 L 112.835938 35.308594 C 112.835938 33.632812 111.476562 32.277344 109.796875 32.277344 C 108.117188 32.277344 106.757812 33.632812 106.757812 35.308594 L 106.757812 66.332031 L 119.367188 62.089844 L 121.59375 57.789062 C 121.949219 57.101562 122.132812 56.34375 122.132812 55.570312 L 122.132812 49.804688 C 122.132812 47.117188 120 44.90625 117.304688 44.804688 Z M 117.304688 44.804688 "/>
<path style=" stroke:none;fill-rule:nonzero;fill:rgb(46.27451%,56.078431%,64.705882%);fill-opacity:1;" d="M 91.101562 123.574219 C 91.101562 133.179688 91.101562 139.199219 91.101562 139.199219 L 91.101562 149 L 34.855469 149 L 34.855469 139.980469 C 34.855469 139.980469 34.855469 137.898438 34.855469 128.292969 C 34.855469 122.746094 36.527344 118.214844 38.902344 114.6875 C 38.902344 114.6875 39.160156 114.398438 39.566406 113.953125 C 40.820312 112.5625 43.496094 109.640625 44.308594 108.945312 C 45.585938 107.855469 46.917969 107.035156 48.183594 106.453125 C 49.957031 105.636719 51.589844 105.277344 52.730469 105.277344 C 60.835938 100.726562 70.714844 100.632812 78.90625 105.019531 L 79.386719 105.277344 C 83.460938 105.277344 88.910156 107.257812 90.589844 116.9375 C 90.917969 118.835938 91.101562 121.035156 91.101562 123.574219 Z M 91.101562 123.574219 "/>
<path style=" stroke:none;fill-rule:nonzero;fill:rgb(100%,100%,100%);fill-opacity:1;" d="M 53.664062 104.675781 C 53.664062 104.675781 48.941406 106.28125 48.769531 106.835938 C 48.597656 107.390625 63.3125 126.410156 63.3125 126.410156 C 63.3125 126.410156 64.882812 127.632812 66 127.507812 C 67.121094 127.382812 68.621094 125.480469 68.621094 125.480469 L 84.320312 105.109375 L 75.410156 101.699219 C 69.890625 97.832031 62.429688 98.234375 57.355469 102.667969 Z M 53.664062 104.675781 "/>
<path style=" stroke:none;fill-rule:nonzero;fill:rgb(54.117647%,63.921569%,72.54902%);fill-opacity:1;" d="M 51.566406 108.929688 C 40.890625 112.269531 38.566406 122.84375 38.566406 128.164062 L 38.566406 149 L 35.105469 149 L 35.105469 139.964844 C 35.105469 139.964844 35.105469 137.882812 35.105469 128.277344 C 35.105469 122.730469 36.78125 118.199219 39.15625 114.671875 C 39.15625 114.671875 39.375 114.425781 39.726562 114.039062 C 40.9375 112.699219 43.726562 109.644531 44.558594 108.929688 C 45.839844 107.839844 47.171875 107.019531 48.4375 106.4375 Z M 51.566406 108.929688 "/>
<path style=" stroke:none;fill-rule:nonzero;fill:rgb(46.27451%,56.078431%,64.705882%);fill-opacity:1;" d="M 84.320312 103.6875 C 88.800781 102.09375 90.164062 102.792969 93.71875 99.640625 L 104.269531 90.285156 C 105.609375 89.097656 106.375 87.394531 106.375 85.609375 L 106.375 62.089844 L 119.367188 62.089844 L 119.367188 91.066406 C 119.367188 95.21875 117.507812 99.152344 114.292969 101.796875 L 93.613281 117.945312 L 86.871094 117.945312 L 81.007812 103.84375 Z M 84.320312 103.6875 "/>
<path style=" stroke:none;fill-rule:nonzero;fill:rgb(100%,100%,100%);fill-opacity:1;" d="M 1.136719 1.132812 L 127.695312 1.132812 L 127.695312 26.996094 L 1.136719 26.996094 Z M 1.136719 1.132812 "/>
<path style=" stroke:none;fill-rule:nonzero;fill:rgb(94.901961%,79.215686%,49.411765%);fill-opacity:1;" d="M 97.214844 1.132812 L 127.695312 1.132812 L 127.695312 26.996094 L 97.214844 26.996094 Z M 97.214844 1.132812 "/>
<path style=" stroke:none;fill-rule:nonzero;fill:rgb(100%,84.313725%,77.254902%);fill-opacity:1;" d="M 84.296875 82.589844 L 84.296875 76.203125 C 84.296875 67.707031 75.398438 59.589844 65.957031 59.589844 C 56.515625 59.589844 47.617188 67.707031 47.617188 76.203125 L 47.617188 82.617188 C 44.351562 82.917969 41.796875 85.648438 41.796875 88.980469 C 41.796875 92.410156 44.507812 95.207031 47.914062 95.359375 C 49.53125 102.796875 57.527344 109.265625 65.957031 109.265625 C 74.386719 109.265625 82.378906 102.800781 84 95.367188 L 84.296875 95.367188 C 87.839844 95.367188 90.710938 92.507812 90.710938 88.980469 C 90.710938 85.449219 87.839844 82.589844 84.296875 82.589844 Z M 84.296875 82.589844 "/>
<path style=" stroke:none;fill-rule:nonzero;fill:rgb(13.72549%,9.411765%,8.235294%);fill-opacity:1;" d="M 52.933594 106.707031 C 53.261719 106.707031 53.554688 106.566406 53.765625 106.347656 C 54.28125 106.746094 54.816406 107.125 55.371094 107.476562 C 58.472656 109.449219 62.128906 110.660156 65.90625 110.664062 C 68.425781 110.664062 70.890625 110.121094 73.171875 109.179688 C 76.59375 107.761719 79.613281 105.445312 81.796875 102.617188 C 82.886719 101.203125 83.769531 99.660156 84.382812 98.035156 C 84.546875 97.601562 84.6875 97.160156 84.8125 96.714844 C 86.539062 96.515625 88.089844 95.738281 89.253906 94.574219 C 90.609375 93.226562 91.449219 91.351562 91.449219 89.292969 C 91.449219 87.84375 91.035156 86.484375 90.3125 85.335938 C 89.59375 84.191406 88.570312 83.253906 87.355469 82.636719 C 87.105469 82.507812 86.828125 82.488281 86.578125 82.558594 L 86.578125 79.246094 C 86.578125 77.183594 86.257812 75.183594 85.667969 73.300781 C 85.078125 71.421875 84.214844 69.660156 83.128906 68.058594 C 81.042969 64.988281 78.125 62.523438 74.703125 60.980469 C 75.527344 59.527344 75.996094 57.847656 75.996094 56.058594 C 75.996094 50.503906 71.480469 46.003906 65.90625 46.003906 C 60.335938 46.003906 55.816406 50.503906 55.816406 56.058594 C 55.816406 57.859375 56.296875 59.554688 57.132812 61.015625 C 53.742188 62.5625 50.855469 65.011719 48.785156 68.058594 C 47.699219 69.660156 46.835938 71.421875 46.246094 73.300781 C 45.65625 75.183594 45.335938 77.183594 45.335938 79.246094 L 45.335938 82.589844 C 45.0625 82.484375 44.742188 82.488281 44.457031 82.636719 C 43.242188 83.253906 42.21875 84.191406 41.5 85.335938 C 40.78125 86.484375 40.363281 87.84375 40.363281 89.292969 C 40.363281 91.351562 41.203125 93.226562 42.558594 94.574219 C 43.722656 95.738281 45.28125 96.519531 47.007812 96.714844 C 47.285156 97.714844 47.660156 98.691406 48.132812 99.632812 C 49.035156 101.421875 50.257812 103.085938 51.722656 104.550781 C 51.480469 104.59375 51.230469 104.640625 50.976562 104.703125 C 49.925781 104.957031 48.769531 105.386719 47.558594 105.992188 C 46.34375 106.597656 45.074219 107.382812 43.8125 108.347656 C 43.316406 108.726562 43.222656 109.441406 43.605469 109.9375 C 43.988281 110.433594 44.703125 110.527344 45.199219 110.144531 C 46.167969 109.402344 47.140625 108.785156 48.070312 108.28125 L 62.820312 128.140625 C 63.15625 128.59375 63.589844 128.945312 64.066406 129.175781 C 64.539062 129.40625 65.054688 129.519531 65.570312 129.519531 C 66.085938 129.519531 66.601562 129.40625 67.078125 129.175781 C 67.550781 128.945312 67.984375 128.59375 68.324219 128.140625 L 83.257812 108.027344 C 83.601562 107.566406 83.503906 106.917969 83.042969 106.574219 C 82.578125 106.234375 81.925781 106.332031 81.582031 106.792969 L 68.574219 124.308594 L 68.574219 114.988281 L 62.570312 114.988281 L 62.570312 124.308594 L 50.003906 107.386719 C 50.542969 107.179688 51.054688 107.015625 51.511719 106.90625 C 52.074219 106.769531 52.5625 106.707031 52.933594 106.707031 Z M 49.464844 97.277344 C 48.9375 95.871094 48.652344 94.417969 48.652344 92.964844 C 48.652344 92.367188 48.164062 91.882812 47.566406 91.882812 C 46.964844 91.882812 46.480469 92.367188 46.480469 92.964844 C 46.480469 93.460938 46.511719 93.949219 46.566406 94.4375 C 45.617188 94.199219 44.769531 93.714844 44.097656 93.046875 C 43.128906 92.082031 42.535156 90.761719 42.535156 89.292969 C 42.535156 88.257812 42.832031 87.300781 43.34375 86.484375 C 43.832031 85.703125 44.523438 85.058594 45.335938 84.621094 L 45.335938 86.066406 C 45.335938 86.941406 46.402344 87.378906 47.019531 86.753906 C 47.988281 85.773438 50 84.386719 51.28125 82.425781 C 53.910156 79.925781 58.507812 69.980469 58.882812 66.21875 C 59.535156 72.027344 62.023438 73.050781 71.601562 78.394531 C 71.402344 78.453125 71.199219 78.519531 71.007812 78.609375 C 70.136719 78.996094 69.875 79.890625 70.261719 80.214844 C 70.640625 80.546875 71.273438 80.476562 71.757812 80.273438 C 72.503906 79.941406 73.359375 79.941406 74.101562 80.273438 C 74.4375 80.414062 74.835938 80.484375 75.179688 80.410156 C 77.449219 81.710938 80.027344 83.226562 82.964844 85.035156 C 83.71875 85.714844 84.429688 86.28125 84.894531 86.753906 C 85.511719 87.378906 86.578125 86.941406 86.578125 86.066406 L 86.578125 84.675781 C 87.347656 85.113281 88.003906 85.734375 88.472656 86.484375 C 88.984375 87.300781 89.277344 88.257812 89.277344 89.292969 C 89.277344 90.761719 88.683594 92.082031 87.71875 93.046875 C 87.046875 93.714844 86.199219 94.199219 85.25 94.433594 C 85.304688 93.949219 85.335938 93.460938 85.335938 92.96875 C 85.335938 92.371094 84.847656 91.886719 84.25 91.886719 C 83.648438 91.886719 83.164062 92.371094 83.164062 92.96875 C 83.164062 94.902344 82.65625 96.839844 81.738281 98.664062 C 80.367188 101.402344 78.066406 103.878906 75.273438 105.652344 C 72.484375 107.429688 69.210938 108.5 65.90625 108.5 C 63.703125 108.5 61.515625 108.023438 59.472656 107.179688 C 56.410156 105.917969 53.679688 103.816406 51.738281 101.300781 C 50.769531 100.042969 49.996094 98.683594 49.464844 97.277344 Z M 49.464844 97.277344 "/>
<path style=" stroke:none;fill-rule:nonzero;fill:rgb(13.72549%,9.411765%,8.235294%);fill-opacity:1;" d="M 92.238281 117.945312 L 92.238281 149 L 89.964844 149 L 89.964844 117.945312 C 89.964844 117.503906 90.21875 117.121094 90.589844 116.9375 C 90.742188 116.855469 90.917969 116.8125 91.101562 116.8125 C 91.730469 116.8125 92.238281 117.320312 92.238281 117.945312 Z M 92.238281 117.945312 "/>
<path style=" stroke:none;fill-rule:nonzero;fill:rgb(13.72549%,9.411765%,8.235294%);fill-opacity:1;" d="M 67.398438 143.972656 C 67.398438 144.792969 66.730469 145.460938 65.90625 145.460938 C 65.082031 145.460938 64.417969 144.792969 64.417969 143.972656 C 64.417969 143.152344 65.082031 142.488281 65.90625 142.488281 C 66.730469 142.488281 67.398438 143.152344 67.398438 143.972656 Z M 67.398438 143.972656 "/>
<path style=" stroke:none;fill-rule:nonzero;fill:rgb(13.72549%,9.411765%,8.235294%);fill-opacity:1;" d="M 117.347656 43.671875 L 115.359375 43.59375 C 114.96875 43.578125 114.628906 43.417969 114.375 43.15625 C 114.125 42.894531 113.976562 42.550781 113.976562 42.164062 L 113.976562 35.308594 C 113.976562 34.160156 113.503906 33.113281 112.75 32.363281 C 112 31.613281 110.949219 31.144531 109.796875 31.144531 C 108.648438 31.144531 107.597656 31.613281 106.84375 32.363281 C 106.089844 33.113281 105.621094 34.160156 105.621094 35.308594 L 105.621094 58.882812 C 105.621094 59.507812 106.128906 60.015625 106.757812 60.015625 C 107.386719 60.015625 107.894531 59.507812 107.894531 58.882812 L 107.894531 35.308594 C 107.894531 34.78125 108.105469 34.3125 108.453125 33.96875 C 108.800781 33.621094 109.269531 33.414062 109.796875 33.410156 C 110.324219 33.414062 110.792969 33.621094 111.140625 33.96875 C 111.488281 34.3125 111.699219 34.78125 111.699219 35.308594 L 111.699219 42.164062 C 111.699219 43.152344 112.09375 44.066406 112.738281 44.730469 C 113.375 45.394531 114.277344 45.824219 115.269531 45.859375 L 117.261719 45.9375 C 118.304688 45.976562 119.234375 46.421875 119.910156 47.121094 C 120.585938 47.820312 120.996094 48.761719 120.996094 49.804688 L 120.996094 55.574219 C 120.996094 56.164062 120.855469 56.742188 120.582031 57.269531 L 118.671875 60.957031 L 105.238281 60.957031 L 105.238281 85.609375 C 105.238281 87.070312 104.609375 88.464844 103.511719 89.4375 L 92.960938 98.792969 C 92.113281 99.546875 91.425781 100.042969 90.808594 100.398438 C 90.347656 100.664062 89.921875 100.855469 89.476562 101.015625 C 88.816406 101.253906 88.097656 101.425781 87.199219 101.652344 C 86.304688 101.875 85.242188 102.15625 83.933594 102.621094 C 83.34375 102.832031 83.035156 103.480469 83.246094 104.070312 C 83.457031 104.660156 84.109375 104.96875 84.699219 104.757812 C 85.78125 104.375 86.664062 104.128906 87.460938 103.925781 C 88.058594 103.773438 88.609375 103.640625 89.15625 103.492188 C 89.976562 103.265625 90.792969 102.988281 91.660156 102.519531 C 92.527344 102.058594 93.425781 101.417969 94.472656 100.488281 L 105.027344 91.132812 C 106.609375 89.726562 107.511719 87.71875 107.511719 85.609375 L 107.511719 63.222656 L 118.230469 63.222656 L 118.230469 91.066406 C 118.230469 94.875 116.523438 98.488281 113.574219 100.917969 L 92.910156 117.054688 C 92.417969 117.441406 92.332031 118.152344 92.71875 118.644531 C 93.105469 119.136719 93.820312 119.226562 94.316406 118.839844 L 115.007812 102.679688 L 115.015625 102.671875 C 118.492188 99.8125 120.503906 95.554688 120.503906 91.066406 L 120.503906 62.363281 L 122.605469 58.308594 C 123.042969 57.460938 123.269531 56.523438 123.269531 55.570312 L 123.269531 49.804688 C 123.269531 48.160156 122.617188 46.652344 121.550781 45.546875 C 120.484375 44.445312 119 43.734375 117.347656 43.671875 Z M 117.347656 43.671875 "/>
<path style=" stroke:none;fill-rule:nonzero;fill:rgb(13.72549%,9.411765%,8.235294%);fill-opacity:1;" d="M 114.757812 52.929688 L 112.636719 52.929688 L 111.023438 57.820312 C 110.828125 58.417969 111.152344 59.054688 111.75 59.253906 C 112.347656 59.449219 112.992188 59.125 113.1875 58.527344 L 114.285156 55.195312 L 114.761719 55.195312 C 115.640625 55.195312 116.449219 54.835938 117.023438 54.261719 C 117.601562 53.6875 117.960938 52.882812 117.960938 52.003906 C 117.960938 51.128906 117.601562 50.324219 117.023438 49.75 C 116.449219 49.171875 115.640625 48.816406 114.761719 48.816406 L 110.101562 48.816406 C 109.472656 48.816406 108.964844 49.324219 108.964844 49.949219 C 108.964844 50.574219 109.472656 51.082031 110.101562 51.082031 L 114.761719 51.082031 C 115.019531 51.082031 115.242188 51.183594 115.414062 51.351562 C 115.585938 51.523438 115.6875 51.746094 115.6875 52.003906 C 115.6875 52.261719 115.585938 52.488281 115.414062 52.65625 C 115.242188 52.828125 115.019531 52.929688 114.757812 52.929688 Z M 114.757812 52.929688 "/>
<path style=" stroke:none;fill-rule:nonzero;fill:rgb(13.72549%,9.411765%,8.235294%);fill-opacity:1;" d="M 128.832031 26.996094 L 128.832031 0 L 0 0 L 0 28.128906 L 128.832031 28.128906 Z M 126.554688 25.863281 L 98.261719 25.863281 C 98.320312 25.726562 98.351562 25.578125 98.351562 25.421875 L 98.351562 2.265625 L 126.554688 2.265625 Z M 2.277344 2.265625 L 96.074219 2.265625 L 96.074219 25.417969 C 96.074219 25.578125 96.109375 25.726562 96.164062 25.863281 L 2.277344 25.863281 Z M 2.277344 2.265625 "/>
<path style=" stroke:none;fill-rule:nonzero;fill:rgb(13.72549%,9.411765%,8.235294%);fill-opacity:1;" d="M 106.617188 18.945312 C 107.96875 20.296875 109.855469 21.136719 111.921875 21.136719 C 113.460938 21.136719 114.898438 20.671875 116.089844 19.875 L 118.65625 22.433594 C 119.101562 22.875 119.820312 22.875 120.265625 22.433594 C 120.710938 21.992188 120.710938 21.273438 120.265625 20.832031 L 117.769531 18.34375 C 118.804688 17.0625 119.425781 15.429688 119.425781 13.660156 C 119.425781 11.597656 118.582031 9.722656 117.226562 8.375 C 115.875 7.023438 113.992188 6.183594 111.921875 6.183594 C 109.855469 6.183594 107.96875 7.023438 106.617188 8.375 C 105.261719 9.722656 104.417969 11.597656 104.417969 13.660156 C 104.417969 15.71875 105.261719 17.597656 106.617188 18.945312 Z M 108.226562 9.976562 C 109.175781 9.03125 110.476562 8.453125 111.921875 8.449219 C 113.367188 8.453125 114.667969 9.03125 115.617188 9.976562 C 116.566406 10.921875 117.148438 12.21875 117.148438 13.660156 C 117.148438 15.101562 116.566406 16.398438 115.617188 17.34375 C 114.667969 18.285156 113.367188 18.867188 111.921875 18.867188 C 110.476562 18.867188 109.175781 18.289062 108.226562 17.34375 C 107.277344 16.398438 106.695312 15.101562 106.695312 13.660156 C 106.695312 12.21875 107.277344 10.921875 108.226562 9.976562 Z M 108.226562 9.976562 "/>
<path style=" stroke:none;fill-rule:nonzero;fill:rgb(13.72549%,9.411765%,8.235294%);fill-opacity:1;" d="M 91.753906 37.363281 L 97.46875 36.042969 C 98.082031 35.902344 98.464844 35.292969 98.320312 34.683594 C 98.179688 34.074219 97.570312 33.695312 96.957031 33.835938 L 91.238281 35.15625 C 90.625 35.296875 90.246094 35.90625 90.386719 36.515625 C 90.527344 37.125 91.140625 37.503906 91.753906 37.363281 Z M 91.753906 37.363281 "/>
<path style=" stroke:none;fill-rule:nonzero;fill:rgb(13.72549%,9.411765%,8.235294%);fill-opacity:1;" d="M 96.097656 44.707031 L 99.785156 41.648438 C 100.265625 41.246094 100.332031 40.53125 99.929688 40.050781 C 99.527344 39.570312 98.808594 39.503906 98.328125 39.90625 L 94.644531 42.964844 C 94.160156 43.363281 94.09375 44.078125 94.496094 44.558594 C 94.898438 45.042969 95.617188 45.105469 96.097656 44.707031 Z M 96.097656 44.707031 "/>
<path style=" stroke:none;fill-rule:nonzero;fill:rgb(13.72549%,9.411765%,8.235294%);fill-opacity:1;" d="M 129.117188 35.15625 L 123.402344 33.835938 C 122.789062 33.695312 122.179688 34.074219 122.035156 34.683594 C 121.894531 35.292969 122.273438 35.902344 122.886719 36.042969 L 128.605469 37.363281 C 129.21875 37.503906 129.828125 37.125 129.96875 36.515625 C 130.113281 35.90625 129.730469 35.296875 129.117188 35.15625 Z M 129.117188 35.15625 "/>
<path style=" stroke:none;fill-rule:nonzero;fill:rgb(13.72549%,9.411765%,8.235294%);fill-opacity:1;" d="M 120.1875 38.378906 C 119.707031 37.976562 118.988281 38.042969 118.585938 38.523438 C 118.183594 39.003906 118.25 39.71875 118.730469 40.121094 L 122.417969 43.175781 C 122.898438 43.578125 123.617188 43.511719 124.019531 43.03125 C 124.421875 42.550781 124.355469 41.835938 123.871094 41.433594 Z M 120.1875 38.378906 "/>
<path style=" stroke:none;fill-rule:nonzero;fill:rgb(13.72549%,9.411765%,8.235294%);fill-opacity:1;" d="M 98.386719 50.757812 C 98.898438 51.125 99.609375 51.011719 99.976562 50.503906 L 103.21875 46.042969 C 103.589844 45.535156 103.472656 44.828125 102.964844 44.460938 C 102.457031 44.09375 101.746094 44.207031 101.375 44.714844 L 98.132812 49.175781 C 97.765625 49.683594 97.878906 50.390625 98.386719 50.757812 Z M 98.386719 50.757812 "/>
<path style=" stroke:none;fill-rule:nonzero;fill:rgb(13.72549%,9.411765%,8.235294%);fill-opacity:1;" d="M 39.738281 114.046875 C 39.734375 114.042969 39.730469 114.039062 39.726562 114.039062 C 39.675781 114.007812 39.621094 113.976562 39.566406 113.953125 C 39.070312 113.730469 38.472656 113.890625 38.160156 114.355469 C 35.671875 118.046875 33.917969 122.808594 33.917969 128.582031 L 33.917969 128.597656 C 33.917969 138.199219 33.917969 140.277344 33.917969 140.277344 L 33.917969 149 L 36.195312 149 L 36.195312 140.277344 C 36.195312 140.277344 36.195312 138.199219 36.195312 128.597656 C 36.195312 123.277344 37.789062 118.980469 40.050781 115.617188 C 40.398438 115.097656 40.257812 114.394531 39.738281 114.046875 Z M 44.507812 130.976562 C 43.878906 130.976562 43.371094 131.484375 43.371094 132.109375 L 43.371094 149 L 45.644531 149 L 45.644531 132.109375 C 45.644531 131.484375 45.136719 130.976562 44.507812 130.976562 Z M 44.507812 130.976562 "/>
<path style=" stroke:none;fill-rule:nonzero;fill:rgb(13.72549%,9.411765%,8.235294%);fill-opacity:1;" d="M 57.710938 80.273438 C 58.457031 79.941406 59.3125 79.941406 60.058594 80.273438 C 60.542969 80.476562 61.175781 80.542969 61.554688 80.214844 C 61.9375 79.890625 61.679688 78.996094 60.808594 78.605469 C 59.585938 78.0625 58.179688 78.0625 56.960938 78.605469 C 56.089844 78.996094 55.828125 79.890625 56.214844 80.214844 C 56.59375 80.546875 57.226562 80.476562 57.710938 80.273438 Z M 57.710938 80.273438 "/>
<path style=" stroke:none;fill-rule:nonzero;fill:rgb(13.72549%,9.411765%,8.235294%);fill-opacity:1;" d="M 58.882812 85.261719 C 57.773438 85.261719 56.863281 86.167969 56.863281 87.277344 C 56.863281 88.386719 57.773438 89.292969 58.882812 89.292969 C 59.996094 89.292969 60.90625 88.386719 60.90625 87.277344 C 60.90625 86.167969 59.996094 85.261719 58.882812 85.261719 Z M 58.882812 85.261719 "/>
<path style=" stroke:none;fill-rule:nonzero;fill:rgb(13.72549%,9.411765%,8.235294%);fill-opacity:1;" d="M 72.929688 89.292969 C 74.042969 89.292969 74.953125 88.386719 74.953125 87.277344 C 74.953125 86.167969 74.042969 85.261719 72.929688 85.261719 C 71.820312 85.261719 70.90625 86.167969 70.90625 87.277344 C 70.90625 88.386719 71.820312 89.292969 72.929688 89.292969 Z M 72.929688 89.292969 "/>
<path style=" stroke:none;fill-rule:nonzero;fill:rgb(13.72549%,9.411765%,8.235294%);fill-opacity:1;" d="M 64.859375 94.480469 L 67.132812 94.480469 C 67.417969 94.480469 67.652344 94.25 67.652344 93.964844 C 67.652344 93.679688 67.417969 93.445312 67.132812 93.445312 L 65.613281 93.445312 C 65.253906 93.445312 64.929688 93.246094 64.765625 92.929688 L 64.628906 92.664062 C 64.511719 92.4375 64.164062 92.519531 64.164062 92.777344 L 64.164062 93.789062 C 64.164062 94.171875 64.476562 94.480469 64.859375 94.480469 Z M 64.859375 94.480469 "/>
<path style=" stroke:none;fill-rule:nonzero;fill:rgb(13.72549%,9.411765%,8.235294%);fill-opacity:1;" d="M 61.503906 99.785156 C 61.890625 100.027344 62.324219 100.015625 62.535156 99.820312 C 64.667969 100.824219 67.148438 100.824219 69.277344 99.820312 C 69.492188 100.015625 69.921875 100.027344 70.308594 99.785156 C 70.78125 99.496094 70.953125 98.980469 70.726562 98.707031 C 70.496094 98.421875 70.261719 98.132812 70.03125 97.84375 C 69.800781 97.574219 69.371094 97.554688 69.046875 97.757812 C 68.773438 97.925781 68.621094 98.214844 68.652344 98.496094 C 66.917969 99.316406 64.898438 99.316406 63.164062 98.496094 C 63.191406 98.214844 63.039062 97.925781 62.769531 97.757812 C 62.441406 97.554688 62.011719 97.574219 61.78125 97.84375 C 61.550781 98.132812 61.320312 98.421875 61.089844 98.710938 C 60.859375 98.980469 61.03125 99.492188 61.503906 99.785156 Z M 61.503906 99.785156 "/>
</g>
</svg>
