<?xml version="1.0" encoding="UTF-8"?>
<svg xmlns="http://www.w3.org/2000/svg" xmlns:xlink="http://www.w3.org/1999/xlink" width="115px" height="150px" viewBox="0 0 115 149" version="1.1">
<g id="surface1">
<path style=" stroke:none;fill-rule:nonzero;fill:rgb(46.27451%,56.078431%,64.705882%);fill-opacity:1;" d="M 86.207031 138.527344 C 99.148438 151.054688 112.523438 139.511719 108.546875 123.640625 C 104.574219 107.769531 100.449219 93.65625 88.640625 81.414062 L 71.921875 77.386719 C 71.921875 77.386719 78.882812 129.835938 86.207031 138.527344 Z M 86.207031 138.527344 "/>
<path style=" stroke:none;fill-rule:nonzero;fill:rgb(46.27451%,56.078431%,64.705882%);fill-opacity:1;" d="M 93.53125 115.859375 L 93.53125 149 L 1.855469 149 L 1.855469 134.925781 C 1.855469 134.925781 1.855469 131.53125 1.855469 115.859375 C 1.855469 106.808594 4.589844 99.414062 8.464844 93.65625 C 8.464844 93.65625 8.957031 93.113281 9.710938 92.28125 C 11.320312 90.507812 14.140625 87.421875 15.957031 85.574219 C 16.519531 85 16.984375 84.546875 17.289062 84.289062 C 19.378906 82.507812 21.554688 81.171875 23.621094 80.222656 C 26.515625 78.886719 29.179688 78.300781 31.046875 78.300781 L 52.296875 62.15625 L 73.984375 77.882812 L 74.5625 78.300781 C 78.300781 78.300781 82.710938 81.019531 86.335938 86.515625 C 86.484375 86.742188 86.628906 86.96875 86.777344 87.203125 C 90.652344 93.433594 93.53125 102.960938 93.53125 115.859375 Z M 93.53125 115.859375 "/>
<path style=" stroke:none;fill-rule:nonzero;fill:rgb(100%,100%,100%);fill-opacity:1;" d="M 33.753906 77.945312 C 33.753906 77.945312 24.449219 79.964844 24.167969 80.871094 C 23.886719 81.777344 47.90625 112.8125 47.90625 112.8125 C 47.90625 112.8125 50.472656 114.800781 52.300781 114.597656 C 54.125 114.394531 56.578125 111.292969 56.578125 111.292969 L 80.074219 79.125 L 65.046875 75.921875 L 52.300781 61.734375 Z M 33.753906 77.945312 "/>
<path style=" stroke:none;fill-rule:nonzero;fill:rgb(100%,84.313725%,77.254902%);fill-opacity:1;" d="M 82.175781 41.308594 L 82.175781 38.230469 C 82.175781 24.359375 67.644531 11.121094 52.226562 11.121094 C 36.8125 11.121094 22.28125 24.359375 22.28125 38.230469 L 22.28125 41.351562 C 16.953125 41.839844 12.78125 46.300781 12.78125 51.730469 C 12.78125 57.328125 17.210938 61.894531 22.769531 62.144531 C 25.40625 74.277344 38.464844 84.835938 52.230469 84.835938 C 65.988281 84.835938 79.042969 74.285156 81.6875 62.15625 L 82.175781 62.15625 C 87.957031 62.15625 92.644531 57.488281 92.644531 51.730469 C 92.644531 45.972656 87.957031 41.308594 82.175781 41.308594 Z M 82.175781 41.308594 "/>
<path style=" stroke:none;fill-rule:nonzero;fill:rgb(54.117647%,63.921569%,72.54902%);fill-opacity:1;" d="M 28.730469 84.289062 C 27.453125 84.6875 26.246094 85.152344 25.113281 85.671875 C 10.761719 92.222656 7.511719 107.625 7.511719 115.671875 L 7.511719 149 L 1.855469 149 L 1.855469 134.925781 C 1.855469 134.925781 1.855469 131.53125 1.855469 115.859375 C 1.855469 106.808594 4.589844 99.414062 8.464844 93.65625 C 8.464844 93.65625 8.957031 93.113281 9.710938 92.28125 C 11.320312 90.507812 14.140625 87.421875 15.957031 85.574219 C 16.519531 85 16.984375 84.546875 17.289062 84.289062 C 19.378906 82.507812 21.554688 81.171875 23.621094 80.222656 Z M 28.730469 84.289062 "/>
<path style=" stroke:none;fill-rule:nonzero;fill:rgb(100%,84.313725%,77.254902%);fill-opacity:1;" d="M 74.027344 118.109375 L 75.855469 118.109375 L 75.816406 117.421875 L 74.027344 117.421875 C 71.703125 117.421875 69.804688 115.53125 69.804688 113.21875 C 69.804688 110.910156 71.707031 109.019531 74.027344 109.019531 L 75.320312 109.019531 L 75.242188 107.707031 L 74.714844 107.707031 C 72.394531 107.707031 68.230469 105.816406 68.230469 103.503906 C 68.230469 101.191406 72.394531 99.300781 74.714844 99.300781 L 74.746094 99.300781 L 74.671875 97.988281 C 72.371094 97.964844 70.496094 96.085938 70.496094 93.789062 C 70.496094 91.476562 72.394531 89.585938 74.714844 89.585938 L 90.9375 89.585938 C 93.261719 90.726562 95.546875 93.113281 95.546875 97.152344 L 95.546875 112.410156 C 95.445312 118.933594 95.023438 123.433594 93.542969 126.570312 C 92.960938 126.964844 92.296875 127.203125 91.59375 127.203125 L 74.027344 126.515625 C 71.703125 126.515625 69.804688 124.625 69.804688 122.3125 C 69.804688 120 71.707031 118.109375 74.027344 118.109375 Z M 74.027344 118.109375 "/>
<path style=" stroke:none;fill-rule:nonzero;fill:rgb(100%,100%,100%);fill-opacity:1;" d="M 113.226562 46.660156 C 113.203125 29.210938 98.976562 15.085938 81.453125 15.109375 C 63.925781 15.132812 49.742188 29.300781 49.765625 46.75 C 49.789062 64.199219 64.015625 78.324219 81.542969 78.300781 C 99.066406 78.277344 113.253906 64.109375 113.226562 46.660156 Z M 113.226562 46.660156 "/>
<path style=" stroke:none;fill-rule:nonzero;fill:rgb(100%,90.588235%,87.058824%);fill-opacity:1;" d="M 105.222656 46.660156 C 105.195312 33.613281 94.554688 23.058594 81.453125 23.082031 C 68.351562 23.105469 57.75 33.703125 57.773438 46.75 C 57.800781 59.792969 68.441406 70.347656 81.542969 70.324219 C 94.644531 70.300781 105.246094 59.703125 105.222656 46.660156 Z M 105.222656 46.660156 "/>
<path style=" stroke:none;fill-rule:nonzero;fill:rgb(13.72549%,9.411765%,8.235294%);fill-opacity:1;" d="M 40.761719 51.730469 C 42.578125 51.730469 44.0625 50.253906 44.0625 48.445312 C 44.0625 46.636719 42.578125 45.15625 40.761719 45.15625 C 38.945312 45.15625 37.460938 46.636719 37.460938 48.445312 C 37.460938 50.253906 38.945312 51.730469 40.761719 51.730469 Z M 40.761719 51.730469 "/>
<path style=" stroke:none;fill-rule:nonzero;fill:rgb(13.72549%,9.411765%,8.235294%);fill-opacity:1;" d="M 17.289062 119.746094 C 16.265625 119.746094 15.433594 120.570312 15.433594 121.59375 L 15.433594 149 L 19.148438 149 L 19.148438 121.59375 C 19.148438 120.570312 18.316406 119.746094 17.289062 119.746094 Z M 9.5 92.117188 C 8.644531 91.550781 7.492188 91.777344 6.921875 92.625 C 2.867188 98.648438 0 106.421875 0 115.839844 L 0 115.859375 C 0 131.535156 0 134.921875 0 134.921875 L 0 149 L 3.71875 149 L 3.71875 134.921875 C 3.71875 134.921875 3.71875 131.535156 3.71875 115.859375 C 3.722656 107.179688 6.324219 100.175781 10.007812 94.6875 C 10.527344 93.910156 10.386719 92.886719 9.710938 92.28125 C 9.644531 92.222656 9.578125 92.167969 9.5 92.117188 Z M 9.5 92.117188 "/>
<path style=" stroke:none;fill-rule:nonzero;fill:rgb(13.72549%,9.411765%,8.235294%);fill-opacity:1;" d="M 52.226562 143.378906 C 53.574219 143.378906 54.664062 142.292969 54.664062 140.953125 C 54.664062 139.613281 53.574219 138.527344 52.226562 138.527344 C 50.882812 138.527344 49.792969 139.613281 49.792969 140.953125 C 49.792969 142.292969 50.882812 143.378906 52.226562 143.378906 Z M 52.226562 143.378906 "/>
<path style=" stroke:none;fill-rule:nonzero;fill:rgb(13.72549%,9.411765%,8.235294%);fill-opacity:1;" d="M 82.789062 87.203125 L 80.207031 87.203125 L 80.207031 80.03125 C 80.632812 80.046875 81.0625 80.066406 81.496094 80.066406 C 81.929688 80.066406 82.359375 80.046875 82.789062 80.03125 Z M 102.679688 25.609375 C 108.105469 31.015625 111.453125 38.460938 111.457031 46.703125 C 111.453125 54.945312 108.105469 62.394531 102.679688 67.796875 C 97.253906 73.199219 89.777344 76.53125 81.496094 76.535156 C 73.21875 76.53125 65.742188 73.199219 60.3125 67.796875 C 54.890625 62.394531 51.539062 54.945312 51.539062 46.703125 C 51.539062 38.460938 54.890625 31.015625 60.3125 25.609375 C 65.742188 20.210938 73.21875 16.875 81.496094 16.875 C 89.777344 16.875 97.253906 20.210938 102.679688 25.609375 Z M 25.386719 64.757812 C 24.519531 62.460938 24.054688 60.09375 24.054688 57.726562 C 24.054688 56.75 23.261719 55.960938 22.28125 55.960938 C 21.304688 55.960938 20.511719 56.75 20.511719 57.726562 C 20.511719 58.53125 20.5625 59.328125 20.652344 60.125 C 19.101562 59.738281 17.714844 58.949219 16.617188 57.855469 C 15.039062 56.28125 14.070312 54.128906 14.070312 51.730469 C 14.070312 49.335938 15.039062 47.179688 16.617188 45.609375 C 17.214844 45.015625 17.898438 44.507812 18.644531 44.105469 L 18.644531 50.730469 L 18.972656 50.730469 C 21.9375 50.730469 24.34375 48.335938 24.34375 45.382812 L 33.746094 36.113281 C 35.183594 34.699219 37.609375 35.871094 37.382812 37.871094 C 37.109375 40.257812 39.371094 42.144531 41.6875 41.472656 C 43.828125 40.847656 46.460938 39.808594 49.109375 38.152344 C 48.382812 40.882812 47.992188 43.75 47.992188 46.703125 C 47.992188 54.570312 50.738281 61.804688 55.3125 67.507812 L 48.210938 67.507812 C 48.085938 67.070312 47.679688 66.75 47.203125 66.75 C 46.625 66.75 46.152344 67.222656 46.152344 67.796875 L 46.152344 69.605469 C 46.152344 70.183594 46.625 70.652344 47.203125 70.652344 C 47.679688 70.652344 48.085938 70.332031 48.210938 69.894531 L 56.242188 69.894531 C 56.371094 70.332031 56.777344 70.652344 57.253906 70.652344 C 57.507812 70.652344 57.742188 70.554688 57.921875 70.40625 C 61.011719 73.453125 64.699219 75.902344 68.792969 77.574219 C 66.542969 79.160156 64.070312 80.46875 61.46875 81.40625 C 58.503906 82.476562 55.378906 83.070312 52.226562 83.070312 C 48.628906 83.070312 45.058594 82.296875 41.726562 80.917969 C 36.722656 78.855469 32.265625 75.425781 29.097656 71.320312 C 27.511719 69.269531 26.25 67.050781 25.386719 64.757812 Z M 66.871094 94.761719 L 56.578125 108.605469 L 56.578125 93.65625 L 46.777344 93.65625 L 46.777344 108.605469 L 26.40625 81.199219 C 27.238281 80.882812 28.015625 80.640625 28.726562 80.46875 C 29.644531 80.246094 30.441406 80.148438 31.046875 80.148438 C 31.585938 80.148438 32.0625 79.917969 32.402344 79.558594 C 33.246094 80.210938 34.121094 80.828125 35.027344 81.402344 C 40.09375 84.621094 46.0625 86.597656 52.230469 86.601562 C 55.824219 86.601562 59.359375 85.925781 62.679688 84.726562 C 66.003906 83.527344 69.117188 81.800781 71.890625 79.691406 C 72.183594 79.464844 72.386719 79.164062 72.496094 78.835938 C 73.851562 79.210938 75.242188 79.507812 76.660156 79.714844 L 76.660156 87.203125 L 74.691406 87.203125 C 73.859375 87.234375 73.027344 87.398438 72.226562 87.683594 C 71.035156 88.117188 69.90625 88.839844 69.054688 89.882812 C 68.628906 90.402344 68.273438 91.003906 68.03125 91.675781 C 67.789062 92.34375 67.65625 93.078125 67.65625 93.851562 C 67.65625 93.949219 67.664062 94.050781 67.667969 94.152344 C 67.359375 94.277344 67.082031 94.476562 66.871094 94.761719 Z M 94.574219 120.382812 C 94.574219 121.949219 93.941406 123.351562 92.910156 124.378906 C 91.878906 125.40625 90.46875 126.035156 88.898438 126.035156 L 74.792969 126.035156 C 74.296875 126.015625 73.777344 125.917969 73.292969 125.742188 C 72.558594 125.476562 71.910156 125.039062 71.476562 124.503906 C 71.257812 124.234375 71.085938 123.941406 70.96875 123.613281 C 70.847656 123.285156 70.777344 122.921875 70.777344 122.496094 C 70.777344 121.699219 71.03125 120.664062 71.777344 119.382812 C 71.851562 119.253906 71.898438 119.117188 71.933594 118.980469 C 72.257812 119.035156 72.585938 119.066406 72.921875 119.066406 L 79.898438 119.066406 C 80.757812 119.066406 81.457031 118.371094 81.457031 117.511719 C 81.457031 116.65625 80.757812 115.960938 79.898438 115.960938 L 72.921875 115.960938 C 72.0625 115.960938 71.285156 115.613281 70.710938 115.042969 C 70.140625 114.472656 69.792969 113.699219 69.792969 112.84375 C 69.792969 111.988281 70.140625 111.214844 70.710938 110.644531 C 71.285156 110.074219 72.0625 109.730469 72.921875 109.726562 L 79.898438 109.726562 C 80.757812 109.726562 81.457031 109.03125 81.457031 108.175781 C 81.457031 107.316406 80.757812 106.621094 79.898438 106.621094 L 72.921875 106.621094 C 72.0625 106.621094 71.285156 106.273438 70.710938 105.703125 C 70.140625 105.132812 69.792969 104.359375 69.792969 103.503906 C 69.792969 102.648438 70.140625 101.878906 70.710938 101.304688 C 71.285156 100.734375 72.0625 100.390625 72.921875 100.390625 L 79.898438 100.390625 C 80.757812 100.390625 81.457031 99.691406 81.457031 98.835938 C 81.457031 97.976562 80.757812 97.28125 79.898438 97.28125 L 72.921875 97.28125 C 72.585938 97.28125 72.257812 97.316406 71.933594 97.367188 C 71.898438 97.230469 71.851562 97.09375 71.777344 96.964844 C 71.03125 95.683594 70.777344 94.648438 70.777344 93.851562 C 70.777344 93.285156 70.898438 92.824219 71.101562 92.417969 C 71.40625 91.808594 71.925781 91.300781 72.589844 90.925781 C 73.25 90.554688 74.046875 90.339844 74.796875 90.3125 L 88.894531 90.3125 C 90.46875 90.3125 91.878906 90.941406 92.910156 91.96875 C 93.941406 92.996094 94.574219 94.398438 94.574219 95.964844 Z M 103.242188 100.441406 C 100.171875 93.242188 96.0625 86.429688 89.980469 80.128906 C 89.269531 79.394531 88.09375 79.371094 87.355469 80.078125 C 87.09375 80.332031 86.917969 80.648438 86.835938 80.976562 C 86.691406 81.570312 86.84375 82.222656 87.300781 82.695312 C 88.851562 84.300781 90.261719 85.941406 91.554688 87.613281 C 90.714844 87.347656 89.820312 87.203125 88.898438 87.203125 L 86.332031 87.203125 L 86.332031 79.714844 C 93.648438 78.65625 100.207031 75.257812 105.1875 70.292969 C 111.246094 64.261719 115.003906 55.910156 115 46.707031 C 115.003906 37.496094 111.246094 29.144531 105.1875 23.117188 C 99.132812 17.082031 90.742188 13.339844 81.496094 13.339844 C 79.957031 13.339844 78.445312 13.457031 76.964844 13.65625 C 75.269531 11.839844 73.378906 10.207031 71.308594 8.8125 C 68.691406 7.046875 65.800781 5.644531 62.71875 4.6875 C 59.640625 3.722656 56.363281 3.207031 52.980469 3.207031 C 52.957031 3.15625 52.917969 3.132812 52.859375 3.132812 C 52.800781 3.132812 52.71875 3.160156 52.621094 3.207031 L 51.480469 3.207031 C 50.066406 3.207031 48.679688 3.308594 47.3125 3.480469 C 39.878906 3.683594 26.796875 3.480469 18.339844 0.167969 C 16.882812 -0.402344 15.234375 0.53125 15.007812 2.078125 C 14.46875 5.855469 15.941406 10.417969 17.210938 13.464844 C 17.777344 14.820312 16.527344 16.234375 15.101562 15.847656 L 12.84375 15.230469 C 11.15625 14.773438 9.535156 16.152344 9.730469 17.882812 C 10.070312 20.847656 10.878906 25.308594 12.78125 29.824219 C 14.824219 34.671875 16.910156 38.546875 18.015625 40.496094 C 16.539062 41.113281 15.214844 42.007812 14.109375 43.113281 C 11.898438 45.308594 10.523438 48.371094 10.523438 51.730469 C 10.523438 55.09375 11.898438 58.152344 14.109375 60.351562 C 16.007812 62.246094 18.550781 63.519531 21.371094 63.839844 C 21.820312 65.472656 22.441406 67.070312 23.210938 68.605469 C 24.679688 71.523438 26.679688 74.238281 29.070312 76.632812 C 28.675781 76.695312 28.269531 76.773438 27.847656 76.871094 C 26.136719 77.289062 24.25 77.992188 22.269531 78.980469 C 20.289062 79.972656 18.214844 81.25 16.15625 82.824219 C 15.34375 83.445312 15.191406 84.609375 15.816406 85.417969 C 15.859375 85.472656 15.90625 85.523438 15.957031 85.574219 C 16.601562 86.242188 17.660156 86.335938 18.417969 85.757812 C 19.953125 84.582031 21.492188 83.59375 22.972656 82.792969 L 25.113281 85.671875 L 47.0625 115.207031 C 47.628906 115.96875 48.355469 116.554688 49.15625 116.945312 C 49.953125 117.332031 50.816406 117.523438 51.679688 117.523438 C 52.539062 117.523438 53.40625 117.332031 54.207031 116.945312 C 55.003906 116.558594 55.730469 115.96875 56.296875 115.207031 L 68.917969 98.226562 C 68.972656 98.324219 69.023438 98.425781 69.078125 98.523438 C 69.089844 98.546875 69.109375 98.5625 69.117188 98.578125 C 68.902344 98.746094 68.695312 98.917969 68.507812 99.105469 C 67.378906 100.230469 66.671875 101.789062 66.671875 103.503906 C 66.671875 105.214844 67.378906 106.78125 68.507812 107.902344 C 68.601562 108 68.703125 108.082031 68.804688 108.171875 C 68.703125 108.261719 68.601562 108.351562 68.507812 108.449219 C 67.378906 109.566406 66.671875 111.132812 66.671875 112.84375 C 66.671875 114.558594 67.378906 116.117188 68.507812 117.242188 C 68.695312 117.429688 68.902344 117.601562 69.121094 117.769531 C 69.109375 117.785156 69.09375 117.796875 69.078125 117.820312 C 68.121094 119.464844 67.65625 121.035156 67.65625 122.496094 C 67.65625 123.527344 67.894531 124.488281 68.3125 125.320312 C 68.9375 126.566406 69.941406 127.503906 71.0625 128.132812 C 72.191406 128.761719 73.441406 129.09375 74.691406 129.140625 L 74.714844 129.144531 L 76.785156 129.144531 L 76.785156 133.46875 C 76.785156 136.050781 78.90625 138.15625 81.496094 138.15625 C 82.867188 138.15625 84.101562 137.566406 84.964844 136.632812 C 85.734375 135.800781 86.207031 134.683594 86.207031 133.46875 L 86.207031 129.144531 L 88.898438 129.144531 C 90.59375 129.144531 92.1875 128.664062 93.53125 127.832031 C 94.109375 127.476562 94.644531 127.050781 95.121094 126.578125 C 95.984375 125.71875 96.65625 124.675781 97.105469 123.515625 L 100.421875 127.902344 C 101.035156 128.722656 102.203125 128.882812 103.019531 128.273438 C 103.84375 127.65625 104.007812 126.496094 103.390625 125.679688 L 99.21875 120.15625 C 98.847656 119.664062 98.273438 119.414062 97.695312 119.425781 L 97.695312 97.34375 C 98.460938 98.835938 99.167969 100.347656 99.824219 101.886719 C 102.761719 108.769531 104.761719 116.167969 106.746094 124.085938 C 107.195312 125.882812 107.402344 127.609375 107.402344 129.226562 C 107.402344 133.078125 106.226562 136.3125 104.410156 138.53125 C 103.496094 139.640625 102.429688 140.503906 101.246094 141.085938 C 100.0625 141.671875 98.765625 141.984375 97.355469 141.984375 C 96.164062 141.984375 94.886719 141.757812 93.53125 141.238281 C 93.261719 141.136719 92.984375 141.023438 92.707031 140.894531 C 91.050781 140.132812 89.289062 138.933594 87.503906 137.203125 C 86.859375 136.578125 85.878906 136.515625 85.164062 136.996094 C 85.0625 137.066406 84.96875 137.148438 84.878906 137.238281 C 84.164062 137.96875 84.179688 139.140625 84.914062 139.851562 C 86.957031 141.832031 89.050781 143.289062 91.148438 144.253906 C 91.644531 144.480469 92.140625 144.679688 92.632812 144.851562 C 91.613281 144.855469 90.785156 145.683594 90.785156 146.703125 L 90.785156 149 L 94.503906 149 L 94.503906 146.703125 C 94.503906 146.070312 94.183594 145.515625 93.699219 145.179688 C 94.9375 145.519531 96.164062 145.6875 97.355469 145.6875 C 99.332031 145.6875 101.21875 145.234375 102.902344 144.398438 C 105.429688 143.144531 107.496094 141.058594 108.914062 138.441406 C 110.332031 135.820312 111.117188 132.671875 111.117188 129.226562 C 111.117188 127.296875 110.871094 125.269531 110.351562 123.191406 C 108.355469 115.238281 106.3125 107.644531 103.242188 100.441406 Z M 103.242188 100.441406 "/>
<path style=" stroke:none;fill-rule:nonzero;fill:rgb(13.72549%,9.411765%,8.235294%);fill-opacity:1;" d="M 63.785156 64.339844 C 68.3125 68.851562 74.585938 71.644531 81.496094 71.644531 C 88.410156 71.644531 94.679688 68.851562 99.210938 64.339844 C 103.738281 59.832031 106.546875 53.585938 106.546875 46.703125 C 106.546875 39.820312 103.742188 33.578125 99.210938 29.066406 C 94.679688 24.554688 88.410156 21.761719 81.496094 21.761719 C 74.585938 21.761719 68.3125 24.554688 63.785156 29.066406 C 59.253906 33.578125 56.449219 39.820312 56.449219 46.703125 C 56.449219 53.585938 59.253906 59.832031 63.785156 64.339844 Z M 65.660156 30.933594 C 69.71875 26.894531 75.308594 24.402344 81.496094 24.402344 C 87.6875 24.402344 93.277344 26.894531 97.335938 30.933594 C 101.390625 34.972656 103.894531 40.539062 103.894531 46.703125 C 103.894531 52.867188 101.390625 58.433594 97.335938 62.472656 C 93.277344 66.511719 87.6875 69.003906 81.496094 69.003906 C 75.308594 69.003906 69.71875 66.511719 65.660156 62.472656 C 61.605469 58.433594 59.101562 52.867188 59.097656 46.703125 C 59.101562 40.542969 61.605469 34.972656 65.660156 30.933594 Z M 65.660156 30.933594 "/>
<path style=" stroke:none;fill-rule:nonzero;fill:rgb(13.72549%,9.411765%,8.235294%);fill-opacity:1;" d="M 81.691406 53.625 C 85.511719 53.625 88.640625 50.511719 88.640625 46.703125 C 88.640625 42.898438 85.511719 39.78125 81.691406 39.78125 C 77.867188 39.78125 74.738281 42.898438 74.738281 46.703125 C 74.738281 50.511719 77.867188 53.625 81.691406 53.625 Z M 81.691406 53.625 "/>
<path style=" stroke:none;fill-rule:nonzero;fill:rgb(13.72549%,9.411765%,8.235294%);fill-opacity:1;" d="M 78.824219 32.621094 C 80.640625 31.808594 82.738281 31.808594 84.558594 32.621094 C 85.742188 33.117188 87.289062 33.28125 88.21875 32.472656 C 89.160156 31.679688 88.519531 29.5 86.394531 28.550781 C 83.410156 27.214844 79.96875 27.214844 76.984375 28.550781 C 74.859375 29.496094 74.222656 31.683594 75.160156 32.472656 C 76.089844 33.285156 77.636719 33.117188 78.824219 32.621094 Z M 78.824219 32.621094 "/>
</g>
</svg>
