<?xml version="1.0" encoding="UTF-8"?>
<svg xmlns="http://www.w3.org/2000/svg" xmlns:xlink="http://www.w3.org/1999/xlink" width="134px" height="150px" viewBox="0 0 134 150" version="1.1">
<g id="surface1">
<path style=" stroke:none;fill-rule:nonzero;fill:rgb(83.137255%,83.137255%,83.137255%);fill-opacity:1;" d="M 121.816406 150 L 12.183594 150 C 5.453125 150 0 144.5625 0 137.859375 L 0 115.046875 L 134 115.046875 L 134 137.859375 C 134 144.5625 128.546875 150 121.816406 150 Z M 121.816406 150 "/>
<path style=" stroke:none;fill-rule:nonzero;fill:rgb(96.862745%,96.862745%,96.862745%);fill-opacity:1;" d="M 115.390625 138.347656 L 18.609375 138.347656 C 8.332031 138.347656 0 130.050781 0 119.8125 L 0 46.921875 L 134 46.921875 L 134 119.8125 C 134 130.050781 125.667969 138.347656 115.390625 138.347656 Z M 115.390625 138.347656 "/>
<path style=" stroke:none;fill-rule:nonzero;fill:rgb(89.019608%,89.019608%,89.019608%);fill-opacity:1;" d="M 104.4375 138.324219 L 134 108.605469 L 117.574219 108.605469 C 110.585938 108.605469 104.890625 114.175781 104.757812 121.132812 Z M 104.4375 138.324219 "/>
<path style=" stroke:none;fill-rule:nonzero;fill:rgb(91.372549%,33.333333%,7.45098%);fill-opacity:1;" d="M 13.777344 12.308594 L 120.222656 12.308594 C 127.832031 12.308594 134 18.453125 134 26.035156 L 134 51.832031 L 0 51.832031 L 0 26.035156 C 0 18.453125 6.167969 12.308594 13.777344 12.308594 Z M 13.777344 12.308594 "/>
<path style=" stroke:none;fill-rule:nonzero;fill:rgb(63.529412%,13.333333%,11.764706%);fill-opacity:1;" d="M 41.339844 21.480469 C 41.339844 18.558594 38.960938 16.191406 36.03125 16.191406 C 33.097656 16.191406 30.71875 18.558594 30.71875 21.480469 C 30.71875 24.402344 33.097656 26.769531 36.03125 26.769531 C 38.960938 26.769531 41.339844 24.402344 41.339844 21.480469 Z M 41.339844 21.480469 "/>
<path style=" stroke:none;fill-rule:nonzero;fill:rgb(63.529412%,13.333333%,11.764706%);fill-opacity:1;" d="M 103.28125 21.480469 C 103.28125 18.558594 100.902344 16.191406 97.96875 16.191406 C 95.039062 16.191406 92.660156 18.558594 92.660156 21.480469 C 92.660156 24.402344 95.039062 26.769531 97.96875 26.769531 C 100.902344 26.769531 103.28125 24.402344 103.28125 21.480469 Z M 103.28125 21.480469 "/>
<path style=" stroke:none;fill-rule:nonzero;fill:rgb(98.431373%,63.921569%,37.254902%);fill-opacity:1;" d="M 37.050781 25.066406 L 35.011719 25.066406 C 33.082031 25.066406 31.507812 23.496094 31.507812 21.574219 L 31.507812 3.492188 C 31.507812 1.570312 33.082031 0 35.011719 0 L 37.050781 0 C 38.976562 0 40.550781 1.570312 40.550781 3.492188 L 40.550781 21.574219 C 40.550781 23.496094 38.976562 25.066406 37.050781 25.066406 Z M 37.050781 25.066406 "/>
<path style=" stroke:none;fill-rule:nonzero;fill:rgb(98.431373%,63.921569%,37.254902%);fill-opacity:1;" d="M 98.988281 25.066406 L 96.949219 25.066406 C 95.023438 25.066406 93.449219 23.496094 93.449219 21.574219 L 93.449219 3.492188 C 93.449219 1.570312 95.023438 0 96.949219 0 L 98.988281 0 C 100.917969 0 102.492188 1.570312 102.492188 3.492188 L 102.492188 21.574219 C 102.492188 23.496094 100.917969 25.066406 98.988281 25.066406 Z M 98.988281 25.066406 "/>
<path style=" stroke:none;fill-rule:nonzero;fill:rgb(100%,100%,100%);fill-opacity:1;" d="M 36.457031 39.378906 C 36.457031 39.832031 36.453125 40.25 36.441406 40.628906 C 36.429688 41.007812 36.40625 41.351562 36.367188 41.667969 C 36.324219 41.984375 36.257812 42.273438 36.164062 42.539062 C 36.066406 42.800781 35.9375 43.054688 35.777344 43.292969 C 35.394531 43.851562 34.941406 44.257812 34.417969 44.519531 C 33.894531 44.777344 33.265625 44.90625 32.53125 44.90625 L 28.652344 44.90625 L 28.652344 33.847656 L 32.53125 33.847656 C 33.265625 33.847656 33.894531 33.980469 34.417969 34.238281 C 34.941406 34.496094 35.394531 34.90625 35.777344 35.464844 C 35.9375 35.703125 36.066406 35.953125 36.164062 36.21875 C 36.257812 36.480469 36.324219 36.769531 36.367188 37.085938 C 36.40625 37.402344 36.433594 37.75 36.441406 38.128906 C 36.453125 38.503906 36.457031 38.921875 36.457031 39.378906 Z M 34.359375 39.378906 C 34.359375 38.941406 34.351562 38.566406 34.34375 38.25 C 34.332031 37.9375 34.3125 37.667969 34.28125 37.445312 C 34.253906 37.222656 34.210938 37.03125 34.15625 36.878906 C 34.097656 36.722656 34.019531 36.582031 33.921875 36.457031 C 33.566406 36.003906 33.042969 35.773438 32.351562 35.773438 L 30.75 35.773438 L 30.75 42.980469 L 32.351562 42.980469 C 33.042969 42.980469 33.566406 42.753906 33.921875 42.296875 C 34.019531 42.171875 34.097656 42.03125 34.15625 41.878906 C 34.210938 41.722656 34.253906 41.535156 34.28125 41.3125 C 34.3125 41.089844 34.332031 40.820312 34.34375 40.503906 C 34.351562 40.1875 34.359375 39.8125 34.359375 39.378906 Z M 34.359375 39.378906 "/>
<path style=" stroke:none;fill-rule:nonzero;fill:rgb(100%,100%,100%);fill-opacity:1;" d="M 38.601562 44.90625 L 38.601562 33.847656 L 45.683594 33.847656 L 45.683594 35.773438 L 40.699219 35.773438 L 40.699219 38.367188 L 44.941406 38.367188 L 44.941406 40.292969 L 40.699219 40.292969 L 40.699219 42.980469 L 45.683594 42.980469 L 45.683594 44.90625 Z M 38.601562 44.90625 "/>
<path style=" stroke:none;fill-rule:nonzero;fill:rgb(100%,100%,100%);fill-opacity:1;" d="M 55.285156 41.503906 C 55.082031 42.664062 54.625 43.539062 53.917969 44.121094 C 53.207031 44.707031 52.347656 45 51.34375 45 C 50.71875 45 50.175781 44.898438 49.710938 44.695312 C 49.25 44.496094 48.832031 44.207031 48.460938 43.835938 C 48.1875 43.554688 47.980469 43.265625 47.832031 42.964844 C 47.6875 42.664062 47.582031 42.335938 47.515625 41.980469 C 47.449219 41.621094 47.410156 41.230469 47.394531 40.808594 C 47.378906 40.382812 47.371094 39.90625 47.371094 39.378906 C 47.371094 38.851562 47.378906 38.375 47.394531 37.949219 C 47.410156 37.523438 47.449219 37.132812 47.515625 36.777344 C 47.582031 36.417969 47.6875 36.089844 47.832031 35.789062 C 47.980469 35.488281 48.1875 35.199219 48.460938 34.921875 C 48.832031 34.546875 49.25 34.261719 49.710938 34.058594 C 50.175781 33.855469 50.71875 33.757812 51.34375 33.757812 C 52.347656 33.757812 53.207031 34.046875 53.917969 34.632812 C 54.625 35.21875 55.082031 36.089844 55.285156 37.25 L 53.140625 37.25 C 53.027344 36.796875 52.832031 36.417969 52.550781 36.125 C 52.269531 35.828125 51.867188 35.683594 51.34375 35.683594 C 51.050781 35.683594 50.792969 35.734375 50.566406 35.835938 C 50.339844 35.941406 50.148438 36.082031 50 36.257812 C 49.898438 36.371094 49.816406 36.5 49.75 36.644531 C 49.683594 36.789062 49.632812 36.976562 49.59375 37.203125 C 49.550781 37.429688 49.519531 37.71875 49.5 38.066406 C 49.480469 38.414062 49.472656 38.847656 49.472656 39.378906 C 49.472656 39.90625 49.480469 40.34375 49.5 40.691406 C 49.519531 41.039062 49.550781 41.324219 49.59375 41.550781 C 49.632812 41.78125 49.683594 41.964844 49.75 42.109375 C 49.816406 42.257812 49.898438 42.386719 50 42.5 C 50.148438 42.675781 50.339844 42.816406 50.566406 42.917969 C 50.792969 43.023438 51.050781 43.074219 51.34375 43.074219 C 51.867188 43.074219 52.273438 42.925781 52.558594 42.632812 C 52.84375 42.335938 53.042969 41.960938 53.15625 41.503906 Z M 55.285156 41.503906 "/>
<path style=" stroke:none;fill-rule:nonzero;fill:rgb(100%,100%,100%);fill-opacity:1;" d="M 57.09375 44.90625 L 57.09375 33.847656 L 64.175781 33.847656 L 64.175781 35.773438 L 59.195312 35.773438 L 59.195312 38.367188 L 63.4375 38.367188 L 63.4375 40.292969 L 59.195312 40.292969 L 59.195312 42.980469 L 64.175781 42.980469 L 64.175781 44.90625 Z M 57.09375 44.90625 "/>
<path style=" stroke:none;fill-rule:nonzero;fill:rgb(100%,100%,100%);fill-opacity:1;" d="M 73.867188 44.90625 L 73.867188 38.460938 L 71.816406 42.65625 L 70.394531 42.65625 L 68.328125 38.460938 L 68.328125 44.90625 L 66.230469 44.90625 L 66.230469 33.847656 L 68.296875 33.847656 L 71.105469 39.828125 L 73.898438 33.847656 L 75.96875 33.847656 L 75.96875 44.90625 Z M 73.867188 44.90625 "/>
<path style=" stroke:none;fill-rule:nonzero;fill:rgb(100%,100%,100%);fill-opacity:1;" d="M 84.785156 39.238281 C 84.996094 39.351562 85.15625 39.449219 85.265625 39.53125 C 85.378906 39.617188 85.488281 39.714844 85.597656 39.828125 C 85.832031 40.085938 86 40.371094 86.105469 40.683594 C 86.210938 40.992188 86.261719 41.34375 86.261719 41.738281 C 86.261719 42.226562 86.1875 42.664062 86.039062 43.050781 C 85.886719 43.4375 85.667969 43.769531 85.378906 44.042969 C 85.09375 44.320312 84.746094 44.53125 84.339844 44.679688 C 83.929688 44.832031 83.476562 44.90625 82.972656 44.90625 L 78.472656 44.90625 L 78.472656 33.847656 L 82.792969 33.847656 C 83.292969 33.847656 83.753906 33.921875 84.164062 34.066406 C 84.578125 34.210938 84.925781 34.414062 85.214844 34.679688 C 85.5 34.945312 85.722656 35.261719 85.878906 35.636719 C 86.035156 36.007812 86.113281 36.425781 86.113281 36.894531 C 86.113281 37.949219 85.667969 38.730469 84.785156 39.238281 Z M 82.625 38.320312 C 83.058594 38.320312 83.398438 38.207031 83.644531 37.980469 C 83.890625 37.753906 84.015625 37.441406 84.015625 37.046875 C 84.015625 36.65625 83.890625 36.34375 83.644531 36.117188 C 83.398438 35.890625 83.058594 35.773438 82.625 35.773438 L 80.570312 35.773438 L 80.570312 38.320312 Z M 82.761719 42.980469 C 83.195312 42.980469 83.535156 42.859375 83.789062 42.617188 C 84.039062 42.371094 84.164062 42.039062 84.164062 41.613281 C 84.164062 41.191406 84.039062 40.859375 83.789062 40.621094 C 83.535156 40.382812 83.195312 40.261719 82.761719 40.261719 L 80.570312 40.261719 L 80.570312 42.980469 Z M 82.761719 42.980469 "/>
<path style=" stroke:none;fill-rule:nonzero;fill:rgb(100%,100%,100%);fill-opacity:1;" d="M 88.40625 44.90625 L 88.40625 33.847656 L 95.488281 33.847656 L 95.488281 35.773438 L 90.507812 35.773438 L 90.507812 38.367188 L 94.75 38.367188 L 94.75 40.292969 L 90.507812 40.292969 L 90.507812 42.980469 L 95.488281 42.980469 L 95.488281 44.90625 Z M 88.40625 44.90625 "/>
<path style=" stroke:none;fill-rule:nonzero;fill:rgb(100%,100%,100%);fill-opacity:1;" d="M 103.25 44.90625 L 101.148438 40.496094 L 99.640625 40.496094 L 99.640625 44.90625 L 97.542969 44.90625 L 97.542969 33.847656 L 101.753906 33.847656 C 102.296875 33.847656 102.785156 33.941406 103.21875 34.121094 C 103.652344 34.300781 104.019531 34.546875 104.320312 34.851562 C 104.621094 35.15625 104.851562 35.511719 105.007812 35.921875 C 105.164062 36.332031 105.242188 36.769531 105.242188 37.234375 C 105.242188 37.628906 105.1875 37.980469 105.082031 38.289062 C 104.976562 38.601562 104.832031 38.878906 104.652344 39.121094 C 104.472656 39.363281 104.261719 39.570312 104.027344 39.742188 C 103.789062 39.914062 103.539062 40.046875 103.277344 40.140625 L 105.679688 44.90625 Z M 103.144531 37.234375 C 103.144531 36.800781 103.003906 36.449219 102.726562 36.179688 C 102.449219 35.910156 102.082031 35.773438 101.617188 35.773438 L 99.640625 35.773438 L 99.640625 38.695312 L 101.617188 38.695312 C 102.082031 38.695312 102.449219 38.558594 102.726562 38.289062 C 103.003906 38.019531 103.144531 37.667969 103.144531 37.234375 Z M 103.144531 37.234375 "/>
<path style=" stroke:none;fill-rule:nonzero;fill:rgb(36.470588%,46.27451%,54.901961%);fill-opacity:1;" d="M 42.867188 65.007812 L 93.035156 65.007812 L 72.09375 123.011719 L 58.589844 123.011719 L 75.601562 76.195312 L 42.867188 76.195312 Z M 42.867188 65.007812 "/>
</g>
</svg>
