<?xml version="1.0" standalone="no"?>
<!DOCTYPE svg PUBLIC "-//W3C//DTD SVG 1.0//EN" "http://www.w3.org/TR/2001/REC-SVG-20010904/DTD/svg10.dtd">
<svg xmlns="http://www.w3.org/2000/svg" xmlns:xlink="http://www.w3.org/1999/xlink" id="body_1" width="295" height="192">

<g transform="matrix(0.2666667 0 0 0.2666667 73.76668 -0)">
	<g>
        <path d="M414.547 669.396C 476.76898 729.935 541.086 674.143 521.972 597.454C 502.85797 520.76495 483.03598 452.56598 426.249 393.404L426.249 393.404L345.846 373.955C 345.846 373.955 379.327 627.393 414.547 669.396z" stroke="none" fill="#768FA5" fill-rule="nonzero" />
        <path d="M449.764 559.861L449.764 720L8.929 720L8.929 651.989C 8.929 651.989 8.929 635.596 8.929 559.861C 8.929 516.11304 22.077 480.39603 40.713 452.56903C 40.713 452.56903 43.068 449.94702 46.693 445.93002C 54.435 437.34402 67.991 422.44702 76.736 413.51303C 79.44 410.74603 81.672 408.55402 83.147 407.30402C 93.18201 398.69803 103.646 392.243 113.579 387.653C 127.504005 381.19702 140.325 378.37003 149.295 378.37003L149.295 378.37003L251.486 300.36102L355.766 376.34204L358.552 378.37006C 376.532 378.37006 397.729 391.50507 415.156 418.06207C 415.87302 419.14807 416.569 420.25406 417.286 421.38107C 435.92 451.484 449.764 497.527 449.764 559.861z" stroke="none" fill="#768FA5" fill-rule="nonzero" />
        <path d="M162.317 376.645C 162.317 376.645 117.57201 386.39798 116.221 390.783C 114.869 395.16498 230.375 545.126 230.375 545.126C 230.375 545.126 242.70801 554.742 251.492 553.764C 260.278 552.78296 272.075 537.785 272.075 537.785L272.075 537.785L385.05 382.351L312.78598 366.875L251.49197 298.30798L162.317 376.645z" stroke="none" fill="#FFFFFF" fill-rule="nonzero" />
        <path d="M395.15 199.605L395.15 184.73C 395.15 117.714 325.279 53.733 251.151 53.733C 177.02301 53.733 107.153 117.714 107.153 184.73L107.153 184.73L107.153 199.827C 81.531 202.179 61.461 223.729 61.461 249.98C 61.461 277.022 82.757996 299.081 109.483 300.296C 122.177 358.93 184.964 409.94 251.15201 409.94C 317.31702 409.94 380.087 358.964 392.80902 300.355L392.80902 300.355L395.15103 300.355C 422.95602 300.355 445.49704 277.802 445.49704 249.98001C 445.49704 222.15802 422.955 199.605 395.15 199.605z" stroke="none" fill="#FFD7C5" fill-rule="nonzero" />
        <path d="M138.153 407.305C 132.009 409.231 126.213 411.465 120.766 413.985C 51.752 445.64398 36.126 520.068 36.126 558.95996L36.126 558.95996L36.126 720L8.929 720L8.929 651.989C 8.929 651.989 8.929 635.596 8.929 559.861C 8.929 516.11304 22.077 480.39603 40.713 452.56903C 40.713 452.56903 43.068 449.94702 46.693 445.93002C 54.435 437.34402 67.991 422.44702 76.736 413.51303C 79.44 410.74603 81.672 408.55402 83.147 407.30402C 93.18201 398.69803 103.646 392.243 113.579 387.653L113.579 387.653L138.153 407.305z" stroke="none" fill="#8AA3B9" fill-rule="nonzero" />
        <path d="M355.968 570.738L364.76498 570.738L364.56897 567.40796L355.96796 567.40796C 344.80695 567.40796 335.67496 558.26996 335.67496 547.10297C 335.67496 535.93494 344.80795 526.798 355.96796 526.798L355.96796 526.798L362.18994 526.798L361.81894 520.45996L359.28394 520.45996C 348.12094 520.45996 328.10193 511.32397 328.10193 500.15497C 328.10193 488.98798 348.12094 479.85095 359.28394 479.85095L359.28394 479.85095L359.43994 479.85095L359.06894 473.50195C 348.00693 473.38394 338.99094 464.30295 338.99094 453.20895C 338.99094 442.04095 348.12195 432.90396 359.28394 432.90396L359.28394 432.90396L437.28192 432.90396C 448.45993 438.41296 459.45892 449.93497 459.45892 469.45197L459.45892 469.45197L459.45892 543.18994C 458.97293 574.71497 456.94293 596.45496 449.82092 611.6079C 447.0129 613.5199 443.82492 614.6789 440.43793 614.6789L440.43793 614.6789L355.96692 611.3489C 344.8059 611.3489 335.67392 602.2109 335.67392 591.0439C 335.675 579.875 344.808 570.738 355.968 570.738z" stroke="none" fill="#FFD7C5" fill-rule="nonzero" />
        <path transform="matrix(1 -0.0014 0.0014 1 -0.3187 0.5544)"  d="M239.308 225.682C 239.308 141.36139 307.62396 73.00601 391.896 73.00601C 476.16803 73.00601 544.484 141.36139 544.484 225.682C 544.484 310.00262 476.16803 378.358 391.896 378.358C 307.62396 378.358 239.308 310.00262 239.308 225.682" stroke="none" fill="#FFFFFF" fill-rule="nonzero" />
        <path transform="matrix(1 -0.0019 0.0019 1 -0.427 0.743)"  d="M277.818 225.682C 277.818 162.64201 328.89246 111.53801 391.896 111.53801C 454.89954 111.53801 505.974 162.64201 505.974 225.682C 505.974 288.722 454.89954 339.826 391.896 339.826C 328.89246 339.826 277.818 288.722 277.818 225.682" stroke="none" fill="#FFE7DE" fill-rule="nonzero" />
        <path d="M408.32 675.804L408.32 675.804L408.319 675.803L408.32 675.804" stroke="none" fill="#231815" fill-rule="nonzero" />
        <path d="M196.012 249.981C 204.74599 249.981 211.89 242.83101 211.89 234.09201L211.89 234.09201L211.89 234.091C 211.89 225.353 204.745 218.203 196.012 218.203C 187.277 218.203 180.13199 225.353 180.13199 234.091L180.13199 234.091L180.13199 234.09201C 180.131 242.831 187.277 249.981 196.012 249.981z" stroke="none" fill="#231815" fill-rule="nonzero" />
        <path d="M83.146 578.631C 78.21001 578.631 74.216 582.62695 74.216 587.565L74.216 587.565L74.216 720L92.074005 720L92.074005 587.565C 92.075 582.627 88.081 578.631 83.146 578.631zM45.689 445.131C 41.572 442.385 36.022 443.492 33.278 447.59003C 13.782 476.688 0 514.248 0 559.759L0 559.759L0 559.862C 0 635.597 0 651.97 0 651.97L0 651.97L0 720L17.878 720L17.878 651.969C 17.878 651.969 17.878 635.597 17.878 559.86096C 17.898 517.91595 30.412 484.06396 48.126 457.54895C 50.624 453.79895 49.948997 448.83997 46.692 445.93094C 46.385 445.644 46.057 445.377 45.689 445.131z" stroke="none" fill="#231815" fill-rule="nonzero" />
        <path d="M251.151 692.831C 257.619 692.831 262.862 687.585 262.862 681.115C 262.862 674.644 257.619 669.397 251.151 669.397C 244.683 669.397 239.441 674.644 239.441 681.115C 239.442 687.585 244.684 692.831 251.151 692.831z" stroke="none" fill="#231815" fill-rule="nonzero" />
        <path d="M398.105 421.388L385.68402 421.388L385.68402 386.732C 387.74802 386.811 389.81302 386.889 391.89603 386.889C 393.97803 386.889 396.04202 386.81 398.10504 386.732L398.10504 386.732L398.10504 421.388L398.105 421.388zM493.762 123.755C 519.845 149.867 535.95197 185.85 535.956 225.682C 535.95197 265.513 519.845 301.495 493.762 327.608C 467.66498 353.706 431.703 369.823 391.896 369.827C 352.086 369.823 316.125 353.706 290.028 327.608C 263.94403 301.496 247.83801 265.513 247.83401 225.682C 247.83801 185.849 263.945 149.867 290.028 123.755005C 316.125 97.657005 352.087 81.54001 391.896 81.536C 431.704 81.54 467.665 97.656 493.762 123.755zM122.071 312.921C 117.915 301.83398 115.678 290.393 115.678 278.944C 115.678 274.232 111.86 270.413 107.152 270.413C 102.443 270.413 98.626 274.232 98.626 278.944C 98.626 282.828 98.885 286.689 99.304 290.528C 91.852 288.66302 85.192 284.84702 79.908005 279.56903C 72.326004 271.97003 67.663 261.56302 67.659004 249.98103C 67.663 238.39804 72.326004 227.99103 79.908005 220.39203C 82.783005 217.52003 86.064 215.07103 89.65501 213.13103L89.65501 213.13103L89.65501 245.14502L91.227005 245.14502C 105.490005 245.14502 117.054 233.57703 117.054 219.30502L117.054 219.30502L162.284 174.51102C 169.192 167.67102 180.855 173.33202 179.759 182.99602C 178.455 194.53601 189.315 203.65701 200.45801 200.39702C 210.757 197.38202 223.41501 192.36902 236.15001 184.35602C 232.66 197.55202 230.779 211.40002 230.78001 225.68202C 230.77701 263.687 243.98102 298.65103 265.989 326.21204L265.989 326.21204L231.84102 326.21204C 231.23102 324.10403 229.28502 322.55902 226.98402 322.55902C 224.19702 322.55902 221.92903 324.82803 221.92903 327.61703L221.92903 327.61703L221.92903 336.34305C 221.92903 339.13306 224.19704 341.40204 226.98402 341.40204C 229.28102 341.40204 231.22502 339.86105 231.83803 337.74902L231.83803 337.74902L270.46002 337.74902C 271.07 339.85703 273.01602 341.40204 275.31702 341.40204C 276.545 341.40204 277.65802 340.94403 278.535 340.21103C 293.391 354.94104 311.126 366.78104 330.808 374.85803C 319.992 382.52805 308.09302 388.84003 295.59302 393.37305C 281.32703 398.54803 266.29102 401.40906 251.15102 401.40805C 233.84901 401.41006 216.67801 397.67004 200.64502 391.01505C 176.59602 381.04605 155.16302 364.48004 139.92702 344.64005C 132.304 334.725 126.226 324.005 122.071 312.921zM321.555 457.908L321.554 457.90698L272.07498 524.80597L272.07498 452.56598L248.51 452.56598L224.94499 452.56598L224.94499 524.80896L126.98899 392.36496C 130.97398 390.84595 134.726 389.66995 138.129 388.84497C 142.54399 387.76996 146.388 387.291 149.303 387.29596C 151.879 387.29596 154.183 386.18796 155.81299 384.44196C 159.872 387.58997 164.079 390.56995 168.428 393.35095C 192.791 408.90594 221.502 418.45996 251.15399 418.46994C 268.443 418.46893 285.432 415.20694 301.408 409.41193C 317.386 403.61493 332.365 395.2849 345.69098 385.07693C 347.11298 383.98694 348.09097 382.53595 348.606 380.95093C 355.12997 382.76892 361.80798 384.20392 368.63397 385.19293L368.63397 385.19293L368.63397 421.38794L359.3 421.38794L359.176 421.39294C 355.173 421.54095 351.163 422.31995 347.324 423.71194C 341.58002 425.80295 336.164 429.28595 332.057 434.33093C 330.01102 436.84793 328.312 439.75793 327.143 442.99393C 325.97 446.22794 325.335 449.77893 325.337 453.51193C 325.337 453.99194 325.374 454.48193 325.394 454.96594C 323.918 455.562 322.572 456.533 321.555 457.908zM454.783 581.711C 454.779 589.279 451.73798 596.063 446.785 601.031C 441.82 605.987 435.04 609.029 427.477 609.033L427.477 609.033L359.65997 609.033C 357.274 608.94104 354.77798 608.458 352.44696 607.60803C 348.90396 606.32605 345.79895 604.22504 343.70697 601.635C 342.65396 600.336 341.83197 598.916 341.25797 597.331C 340.68497 595.743 340.35095 593.98 340.34897 591.927C 340.34796 588.074 341.56598 583.079 345.15997 576.882C 345.51996 576.262 345.74597 575.60803 345.91397 574.94604C 347.46298 575.19507 349.03897 575.36005 350.65396 575.36005L350.65396 575.36005L384.2 575.36005C 388.34402 575.36005 391.70502 571.9971 391.70502 567.8511C 391.70502 563.7041 388.34402 560.3421 384.2 560.3421L384.2 560.3421L350.653 560.3411C 346.52002 560.3391 342.79303 558.6651 340.032 555.91315C 337.281 553.15015 335.608 549.42114 335.60602 545.28613C 335.60803 541.1511 337.281 537.4221 340.032 534.65814C 342.794 531.90515 346.52002 530.2321 350.653 530.23016L350.653 530.23016L384.2 530.23016C 388.34402 530.23016 391.70502 526.8672 391.70502 522.7212C 391.70502 518.5742 388.34402 515.2122 384.2 515.2122L384.2 515.2122L384.2 515.21124L350.653 515.21124C 346.52002 515.2092 342.79303 513.5352 340.032 510.78323C 337.281 508.02023 335.608 504.29123 335.60602 500.15723C 335.60803 496.02222 337.281 492.29224 340.032 489.52924C 342.794 486.77625 346.52002 485.10223 350.653 485.10025L350.653 485.10025L384.2 485.10025C 388.34402 485.10025 391.70502 481.73724 391.70502 477.59125C 391.70502 473.44424 388.34402 470.08224 384.2 470.08224L384.2 470.08224L350.653 470.08124C 349.03802 470.08124 347.463 470.24625 345.914 470.49524C 345.746 469.83423 345.52 469.17923 345.16 468.56024C 341.562 462.36023 340.346 457.36725 340.34702 453.51324C 340.35303 450.77625 340.93503 448.55124 341.91202 446.57623C 343.376 443.63623 345.863 441.17624 349.07 439.37323C 352.241 437.58322 356.075 436.5392 359.67102 436.40823L359.67102 436.40823L413.83603 436.40823L427.47604 436.40823C 435.04004 436.41223 441.81903 439.45523 446.78406 444.41025C 451.73706 449.37823 454.77805 456.16125 454.78204 463.73126L454.78204 463.73126L454.78204 581.711zM496.457 485.355C 481.692 450.561 461.92902 417.653 432.684 387.203C 429.26398 383.658 423.612 383.535 420.068 386.957C 418.79898 388.187 417.95898 389.703 417.57 391.301C 416.874 394.16998 417.611 397.32498 419.802 399.6C 427.257 407.366 434.035 415.29602 440.261 423.36902C 436.22598 422.07803 431.925 421.381 427.481 421.381L427.481 421.381L415.15198 421.381L415.15198 385.194C 450.33597 380.091 481.873 363.658 505.81396 339.663C 534.956 310.524 553.019 270.177 552.998 225.691C 553.019 181.18399 534.956 140.837 505.814 111.699C 476.695 82.54 436.35 64.467 391.89 64.467C 384.497 64.467 377.22702 65.020004 370.1 65.983C 361.949 57.213 352.857 49.324 342.904 42.582C 330.309 34.058 316.42398 27.276001 301.598 22.644001C 286.792 17.992 271.043 15.493001 254.762 15.493001C 254.65999 15.247001 254.47499 15.145001 254.18799 15.145001C 253.902 15.145001 253.51299 15.267001 253.04199 15.493001L253.04199 15.493001L247.553 15.493001C 240.754 15.493001 234.07799 15.984001 227.504 16.825C 191.768 17.809 128.85599 16.825 88.18399 0.82100105C 81.17999 -1.9459989 73.25499 2.5630012 72.16899 10.042001C 69.567 28.3 76.653 50.348 82.756 65.061C 85.479996 71.618 79.479996 78.440994 72.618996 76.576996L72.618996 76.576996L61.763996 73.604996C 53.653996 71.392 45.852997 78.050995 46.795 86.411995C 48.433 100.73599 52.303997 122.293 61.456997 144.11499C 71.287994 167.53699 81.322 186.26498 86.626 195.691C 79.54 198.66199 73.172 202.986 67.847 208.334C 57.218002 218.949 50.604 233.743 50.604 249.972C 50.604 266.222 57.219 280.996 67.847 291.631C 76.981 300.79102 89.207 306.93802 102.764 308.49503C 104.935 316.38403 107.905 324.09003 111.612 331.50702C 118.677 345.626 128.302 358.74002 139.791 370.29703C 137.887 370.60403 135.941 370.99304 133.914 371.46503C 125.68 373.47403 116.609 376.87503 107.086 381.65002C 97.562996 386.44504 87.59 392.61304 77.698 400.21503C 73.785995 403.22702 73.048996 408.84204 76.06 412.75504C 76.264 413.02203 76.49 413.26703 76.735 413.51303C 79.828 416.75003 84.927 417.20203 88.573 414.39404C 95.946 408.71805 103.358 403.94305 110.465 400.07104L110.465 400.07104L120.766 413.98505L226.31601 556.70605C 229.04001 560.3951 232.522 563.22205 236.37201 565.10803C 240.20201 566.973 244.35901 567.89404 248.51701 567.89404C 252.65302 567.89404 256.811 566.97205 260.661 565.10803C 264.491 563.24304 267.993 560.395 270.717 556.70605L270.717 556.70605L331.397 474.65906C 331.663 475.13104 331.909 475.62207 332.17502 476.09305C 332.23703 476.19604 332.31903 476.27805 332.36002 476.36005C 331.33603 477.15906 330.332 477.99905 329.43103 478.90103C 324.00403 484.33102 320.60403 491.87204 320.60403 500.15103C 320.60403 508.43002 324.00403 515.991 329.43103 521.4C 329.88202 521.87103 330.37302 522.281 330.86502 522.711C 330.37302 523.142 329.88202 523.572 329.43103 524.04297C 324.00403 529.45197 320.60403 537.014 320.60403 545.292C 320.60403 553.571 324.00403 561.112 329.43103 566.542C 330.33203 567.443 331.33603 568.284 332.38004 569.083C 332.31903 569.165 332.25705 569.227 332.17505 569.329C 327.56705 577.27997 325.33505 584.86096 325.33505 591.93097C 325.33505 596.91 326.48206 601.56195 328.48904 605.57794C 331.49905 611.6019 336.33304 616.1309 341.71805 619.16296C 347.14505 622.196 353.16605 623.81494 359.16605 624.04L359.16605 624.04L359.28903 624.061L369.24203 624.061L369.24203 644.941C 369.24203 657.42 379.44104 667.604 391.89203 667.604C 398.48703 667.604 404.42603 664.755 408.56204 660.248C 412.26904 656.211 414.54205 650.82196 414.54205 644.941L414.54205 644.941L414.54205 624.061L427.48505 624.061C 435.63605 624.061 443.29504 621.725 449.76605 617.709C 452.55206 615.988 455.11206 613.938 457.40607 611.644C 461.56308 607.505 464.79907 602.464 466.94907 596.849L466.94907 596.849L482.90207 618.058C 485.85107 622.013 491.46307 622.79095 495.39508 619.83997C 499.34808 616.86896 500.1461 611.25397 497.1771 607.31995L497.1771 607.31995L477.1071 580.61993C 475.32608 578.2429 472.5611 577.03394 469.79608 577.0949L469.79608 577.0949L469.79608 470.377C 473.46207 477.59003 476.8621 484.90503 480.01608 492.34302C 494.1461 525.60004 503.7711 561.357 513.31506 599.614C 515.4651 608.302 516.46906 616.642 516.46906 624.44904C 516.46906 643.05505 510.81604 658.69006 502.07205 669.40704C 497.69006 674.77606 492.54904 678.93604 486.85706 681.76306C 481.16306 684.59106 474.93704 686.10706 468.16006 686.10706C 462.42508 686.10706 456.28107 685.00006 449.76907 682.50104C 448.45908 682.00903 447.12808 681.45605 445.79608 680.84106C 437.83008 677.15204 429.37207 671.3531 420.7711 662.99304C 417.6781 659.981 412.96808 659.67303 409.5271 661.989C 409.0361 662.33704 408.5851 662.726 408.1551 663.15704C 404.71408 666.702 404.79608 672.35803 408.3191 675.80005C 418.14908 685.369 428.2251 692.3981 438.3011 697.07007C 440.69708 698.15607 443.0731 699.1191 445.4481 699.95905C 440.53308 699.98004 436.5601 703.9761 436.5601 708.89307L436.5601 708.89307L436.5601 720L454.43808 720L454.43808 708.893C 454.43808 705.84 452.90207 703.155 450.56708 701.536C 456.52707 703.175 462.42508 703.995 468.1591 703.995C 477.6611 703.995 486.7331 701.802 494.82208 697.766C 506.9881 691.701 516.91907 681.619 523.7391 668.976C 530.5591 656.313 534.3271 641.10803 534.3271 624.44904C 534.3271 615.12506 533.1401 605.33105 530.6411 595.29004C 521.052 556.849 511.223 520.17 496.457 485.355z" stroke="none" fill="#231815" fill-rule="nonzero" />
        <path d="M306.722 310.904C 328.5 332.70398 358.65298 346.207 391.896 346.20398C 425.138 346.20697 455.291 332.70398 477.068 310.904C 498.85498 289.11398 512.351 258.944 512.348 225.68298C 512.351 192.42099 498.85602 162.24998 477.06802 140.45999C 455.29102 118.65999 425.13803 105.15699 391.89603 105.15999C 358.653 105.15699 328.50003 118.65999 306.72202 140.45999C 284.93503 162.25099 271.43903 192.42099 271.44202 225.68298C 271.44 258.943 284.935 289.114 306.722 310.904zM315.737 149.479C 335.248 129.96701 362.133 117.918 391.896 117.91501C 421.65698 117.91801 448.543 129.968 468.05298 149.479C 487.554 169.002 499.59598 195.90201 499.59897 225.682C 499.59598 255.46 487.55396 282.362 468.05298 301.884C 448.54297 321.397 421.658 333.445 391.896 333.448C 362.134 333.445 335.248 321.396 315.737 301.884C 296.237 282.362 284.194 255.461 284.191 225.682C 284.194 195.903 296.237 169.002 315.737 149.479z" stroke="none" fill="#231815" fill-rule="nonzero" />
        <path d="M392.824 259.127C 411.207 259.127 426.249 244.07701 426.249 225.68301L426.249 225.68301L426.249 225.68102C 426.249 207.28702 411.208 192.23701 392.824 192.23701C 374.44 192.23701 359.397 207.28702 359.397 225.68102L359.397 225.68102L359.397 225.68301C 359.397 244.076 374.44 259.127 392.824 259.127z" stroke="none" fill="#231815" fill-rule="nonzero" />
        <path d="M379.039 157.635C 387.783 153.704 397.863 153.704 406.608 157.635C 412.312 160.028 419.747 160.831 424.221 156.91899C 428.737 153.09099 425.67 142.54399 415.443 137.95999C 401.094 131.51498 384.554 131.51498 370.203 137.95999C 359.97202 142.53899 356.911 153.103 361.425 156.91899C 365.895 160.845 373.323 160.033 379.039 157.635z" stroke="none" fill="#231815" fill-rule="nonzero" />
	</g>
</g>
</svg>